<svg xmlns="http://www.w3.org/2000/svg" viewBox="0 0 162.16 135.35"><defs><style>.cls-1{fill:#61c4f2;}.cls-2{fill:#f86464;}.cls-3{fill:#263357;}</style></defs><title>Element 6</title><g id="Ebene_2" data-name="Ebene 2"><g id="icons"><path class="cls-1" d="M36,41.84a32,32,0,1,0,32,32A32,32,0,0,0,36,41.84Zm0,40a8,8,0,1,1,8-8A8,8,0,0,1,36,81.84Z"/><path class="cls-2" d="M114.26,87.16s-11.59-18.5-8.41-29.22,10.44-16.81,11.71-21.49c0,0-9,23.46-2.84,36s11.63,21.18,11.63,21.18Z"/><path class="cls-2" d="M155.23,11.68c-1.82,4.41-2.13,10.21-2.94,14.94-1,5.62-2.36,11.13-3.52,16.7-4.6,22.13,0,23.34-1.37,33.89-1.68,13.16-13.23,18.31-17.2,35.07-.95,4-2.91,8.12-.44,12a3.47,3.47,0,0,0,5.37.7c1.58-1.47,2.13-3.11,2.84-5.08,2.83-7.69,23-24.58,23.33-44.18.1-6-3.12-11.52-3-17.53s-.67-11.07.33-17c.91-5.38,2.53-13.2,1.67-18.66-.68-4.31.64-9.29-3.41-11.47a1.15,1.15,0,0,0-1.65.67Z"/><path class="cls-3" d="M64.62,41.48a2.23,2.23,0,0,0-4.45,0A2.23,2.23,0,0,0,64.62,41.48Z"/><path class="cls-3" d="M105.57,40.85c1.42,2.28,2.64,4.24,2.64,5.63,0,2.87-2,3.9-3.16,8.91a20.31,20.31,0,0,0-2,7.77c0,7.68,1.86,14.13,5.51,19.2A2.08,2.08,0,0,0,112,79.93c-3.14-4.34-4.73-10-4.73-16.77,0-4,3.28-9,4.58-13.37,3.09-5.08,7-9.29,7.15-13.4a2,2,0,0,0-4-.19c-.08,1.71-1.67,4.16-3.45,6.78-2-4.53-6.82-9.37-7.33-16.68-.48-7,3.21-14.78,6.83-19.67a2.08,2.08,0,0,0-3.33-2.48c-2,2.67-8.35,12.16-7.64,22.44C100.47,32.67,103.3,37.21,105.57,40.85Z"/><path class="cls-3" d="M160.72,63.66c-2.31-8.38.11-24.54,1-30.63,1.19-8-1-20.72-5.8-27.85a2.08,2.08,0,0,0-3.44,2.33c4.11,6,6.21,17.73,5.13,24.91-1,6.92-3.46,23.12-.91,32.34,6.86,24.84-15.37,44.31-22.95,58.46-16.69-2.16-34.55-2.87-71.25-27.72a34.07,34.07,0,0,0,5.77-10.08c24.34,11.22,26.51,1.38,43.13,4.07,1.2.45,8.36,3.2,12,6.17a2.07,2.07,0,1,0,2.64-3.2c-4.47-3.69-13-6.8-13.36-6.94a2.22,2.22,0,0,0-.37-.09,41.63,41.63,0,0,0-16,.45,36.12,36.12,0,0,1-9.22.84,1.89,1.89,0,0,0,.22-.89c.28-23.72-7-31.14-5.34-48.32.92-9.36,9-22.57,16.85-34.26A2.08,2.08,0,0,0,95.32.94C75.89,30,75.05,38.27,80,60a100.79,100.79,0,0,1,3.13,25.82,2,2,0,0,0,0,.43,58.87,58.87,0,0,1-13.68-4.83A34.07,34.07,0,1,0,2.18,73.81C2.18,103.62,38,119,59.63,98.56a229.68,229.68,0,0,0,24.95,15c.09,3.1.19,13.27-1.91,19.06a2.08,2.08,0,0,0,3.9,1.42c2-5.46,2.23-13.87,2.2-18.43,20.85,9.83,34.09,10.35,45.9,12a2.07,2.07,0,0,0,2.16-1.16C143.25,112.88,168.39,91.4,160.72,63.66ZM36.25,103.73a29.92,29.92,0,1,1,29-22.45,1.92,1.92,0,0,0-.37,1.32A30,30,0,0,1,36.25,103.73Z"/><path class="cls-3" d="M3.84,52.29A38.89,38.89,0,0,1,53.05,38.7,2.08,2.08,0,0,0,54.85,35a42.5,42.5,0,0,0-18.6-4.23A43,43,0,0,0,.38,50,2.08,2.08,0,0,0,3.84,52.29Z"/><path class="cls-3" d="M36.25,54.17A19.64,19.64,0,1,0,55.9,73.81,19.66,19.66,0,0,0,36.25,54.17Zm0,35.13a15.49,15.49,0,1,1,15.5-15.49A15.51,15.51,0,0,1,36.25,89.3Z"/><path class="cls-3" d="M36.25,65.73a8.08,8.08,0,1,0,8.08,8.08A8.09,8.09,0,0,0,36.25,65.73Zm0,12a3.92,3.92,0,1,1,3.93-3.92A3.93,3.93,0,0,1,36.25,77.73Z"/></g></g></svg>