<svg xmlns="http://www.w3.org/2000/svg" viewBox="0 0 156.54 152.67"><defs><style>.cls-1{fill:#61c4f2;}.cls-2{fill:#f86464;}.cls-3{fill:#263357;}</style></defs><title>Element 1</title><g id="Ebene_2" data-name="Ebene 2"><g id="icons"><path class="cls-1" d="M98.55,124.73h27.76l9.57-13.34,5.33,4.67,4.5-1.28c9.77-29-19.59-55.37-47.16-43.56Z"/><rect class="cls-2" x="68.55" y="105.89" width="9.5" height="45"/><rect class="cls-2" x="126.05" y="106.89" width="9.5" height="44.5"/><path class="cls-2" d="M72.91,66.85H29v-25a2,2,0,0,0-4,0v27a2,2,0,0,0,2,2H72.91a2,2,0,0,0,0-4Z"/><path class="cls-2" d="M33.38,60.76,45.05,45.33a2,2,0,0,1,2.37-.64l14.47,6.05,8.57-10a2,2,0,0,1,3,2.6L64,54.45c-1.27,1.48-1.52.87-16.67-5.47L36.56,63.18A2,2,0,0,1,33.38,60.76Z"/><path class="cls-3" d="M148.52,122.47c0-11.25,1.64-9.56-10.07-9.56,0-9.55,1.61-7.88-12.14-7.88a2.08,2.08,0,0,0-2.08,2.08v15.06h-43V107.76a2.07,2.07,0,0,0-2.07-2.07H69.06A2.08,2.08,0,0,0,67,107.76v4.5H59a2.07,2.07,0,0,0-2.07,2.07v8c-.4-.09-5.46-.06-5.87-.06A2.08,2.08,0,0,0,49,124.35v8.7A2.08,2.08,0,0,0,51,135.13c.41,0,5.47,0,5.87-.06,0,11.3-1.68,9.61,10.07,9.61,0,9.55-1.6,7.88,12.15,7.88a2.08,2.08,0,0,0,2.07-2.08v-7H92.6c5.56,0,8.32-5.51,7.67-8.2h24v14.51a2.08,2.08,0,0,0,2.08,2.07h10.07a2.07,2.07,0,0,0,2.07-2.07v-4.49c11.82,0,10.07,1.74,10.07-10h5.87a2.08,2.08,0,0,0,2.08-2.08C156.47,120.91,157.87,122.47,148.52,122.47ZM53.12,131v-4.54c.43,0,3.4,0,3.79-.06V131C56.52,130.94,53.55,131,53.12,131Zm7.94,9.56V116.41H67v24.12Zm16,7.88H71.13V109.84h5.92Zm19.28-12.62a3.74,3.74,0,0,1-3.73,3.73H81.2v-4.2H96.39A1.78,1.78,0,0,0,96.33,135.79ZM81.2,131.17v-4.85h43v4.85Zm53.1,16.58h-5.92V109.18h5.92Zm10.07-6.57h-5.92V117.07h5.92Zm7.95-10h-3.8v-4.55h3.8Z"/><path class="cls-3" d="M105.2,81.17c1.84,0,2.56-2,8.89-1.12h0c9.44,1.24,14.06,5.79,15.92,15.7a2.08,2.08,0,1,0,4.08-.77c-2.3-12.24-9.51-19.28-23-19.28-3.18,0-4.07.57-6.56,1.42A2.08,2.08,0,0,0,105.2,81.17Z"/><path class="cls-3" d="M105,40.73l1.42-.29c5.59-1.15,12.94.08,16.72,1.45,6.37,2.29,9.12,9,7.55,15l-2.19,8.45a9.31,9.31,0,0,0,3.91,10.12c7.45,4.89,11.72,13.57,11.72,23.82a2.08,2.08,0,0,0,4.15,0c0-11.67-4.95-21.62-13.59-27.29a5.17,5.17,0,0,1-2.17-5.61L134.72,58c2.09-8.05-.63-22.16-23.88-22.16a27.24,27.24,0,0,0-6.62.86,2.08,2.08,0,0,0,.79,4.08Z"/><path class="cls-3" d="M118.54,67.32a2.08,2.08,0,1,0,4,1.09L126,55.69a7.74,7.74,0,0,0-2.62-8.25c-2.65-1.93-9.23-2.65-12.54-2.65a19,19,0,0,0-4.91.7,2.08,2.08,0,0,0,.79,4.08,15.9,15.9,0,0,1,4.12-.63c3.36,0,8.69.83,10.1,1.86a3.68,3.68,0,0,1,1,3.83Z"/><path class="cls-3" d="M30.58,83.78a2.33,2.33,0,0,0-4.66,0A2.33,2.33,0,0,0,30.58,83.78Z"/><path class="cls-3" d="M30.58,95a2.33,2.33,0,0,0-4.66,0A2.33,2.33,0,0,0,30.58,95Z"/><path class="cls-3" d="M30.58,106.53a2.33,2.33,0,0,0-4.66,0A2.33,2.33,0,0,0,30.58,106.53Z"/><path class="cls-3" d="M50.05,139.52H7.73A3.74,3.74,0,0,1,4,135.79V21.5a3.74,3.74,0,0,1,3.73-3.74h17.5V29.52a2,2,0,0,0,2,2H75.39a2,2,0,0,0,2-2V17.76H92.6a3.75,3.75,0,0,1,3.73,3.74v94.87a2,2,0,0,0,4,0V21.5a7.74,7.74,0,0,0-7.73-7.74h-16C74,8.48,68.77,9.17,65.93,9.17V5.31A5.31,5.31,0,0,0,60.62,0H42a5.31,5.31,0,0,0-5.3,5.31V9.2l-.3,0c-2.74,0-7.82-.61-10.35,4.59H7.73A7.74,7.74,0,0,0,0,21.5V135.79a7.74,7.74,0,0,0,7.73,7.73H50.05a2,2,0,0,0,0-4ZM40.7,5.31A1.31,1.31,0,0,1,42,4H60.62a1.31,1.31,0,0,1,1.31,1.31v7.15a1.31,1.31,0,0,1-1.31,1.3H42a1.3,1.3,0,0,1-1.3-1.3Zm-7.36,7.86c.34,0,3.11,0,3.43,0A5.28,5.28,0,0,0,42,17.76H60.62a5.29,5.29,0,0,0,5.23-4.59h3.43a4.12,4.12,0,0,1,4.11,4.12V27.52H29.23V17.29A4.12,4.12,0,0,1,33.34,13.17Z"/><path class="cls-3" d="M73.1,82H37.54a2,2,0,0,0,0,4H73.1a2,2,0,0,0,0-4Z"/><path class="cls-3" d="M75.1,95.48a2,2,0,0,0-2-2H37.54a2,2,0,0,0,0,4H73.1A2,2,0,0,0,75.1,95.48Z"/><path class="cls-3" d="M60.55,107a2,2,0,0,0-2-2h-21a2,2,0,0,0,0,4h21A2,2,0,0,0,60.55,107Z"/><path class="cls-3" d="M10.57,27V130.25a2,2,0,0,0,2,2H44.05a2,2,0,0,0,0-4H14.57V27A2,2,0,0,0,10.57,27Z"/><path class="cls-3" d="M85.75,27.1v90.27a2,2,0,0,0,4,0V27.1a2,2,0,1,0-4,0Z"/></g></g></svg>