<svg xmlns="http://www.w3.org/2000/svg" viewBox="0 0 143.9 159.88"><defs><style>.cls-1{fill:#f86464;}.cls-2{fill:#61c4f2;}.cls-3{fill:#263357;}</style></defs><title>Element 9</title><g id="Ebene_2" data-name="Ebene 2"><g id="icons"><path class="cls-1" d="M106.35,129.8s10-22,10.5-38.5-8-41.5-8-41.5l6-3.5s13,30.5,11.5,46.5-7,37-8.5,37.5S106.35,129.8,106.35,129.8Z"/><polygon class="cls-2" points="106.35 41.6 111.66 19.98 119.35 27.3 106.35 41.6"/><path class="cls-1" d="M91.35,131.8h30.5a9.5,9.5,0,0,1,0,19h-19.5Z"/><path class="cls-2" d="M65.43,111.43l-2.18,4.43,3.56,7.79-1.89,2.21-11.67-8.21-.63-3.15c3.31-3.66,2.11-1.94,5.28-7.6-2.6-1.34-2.76-.6-2.76-.6-46.69,1.26-30.29,44.16-30.29,44.16h79.5C94,131.38,76.48,118.12,65.43,111.43Z"/><circle class="cls-1" cx="46.1" cy="131.55" r="8.25"/><path class="cls-2" d="M44.35,48.46l5.34-8.66,2.66-9.34,8-6,9.34,8,2.66,7.34-4,4L65,39.13,59,43.8l3.33,5.33-3.33,6C50.83,52.67,54.18,54.19,44.35,48.46Z"/><path class="cls-1" d="M63.85,11.63S75.69,7,80.52,8.63l1.67,3.83-18,4.67Z"/><path class="cls-3" d="M141.83,149H131a12,12,0,0,0-8.81-20h-1.76c1.46-4,3.14-8.8,4.07-12.56,5.77-23.23,3.15-49.07-7-69.18,5.84-5.06,11.36-12.4,15.07-23a6.58,6.58,0,0,0-12.44-4.3c-.3.86-.62,1.68-.95,2.48-6.66-4.34-7-5-8.43-4.26a2.07,2.07,0,0,0-1.13,1.73c0,.16-1,15.78-10.23,23.3A31.92,31.92,0,0,1,93.09,45a2.07,2.07,0,0,0,.74,4.08A35,35,0,0,0,100,47.38c1.87,0,17.13-6.33,24.06-26.11,1.08-3.05,5.63-1.41,4.59,1.57-9,25.84-28.87,30.5-36,31.34a5.73,5.73,0,0,0-4.74-4.92c-12.39-2.06-19.27-5-22.46-15.14a2,2,0,0,0-3.82,1.2c4.17,13.27,14.5,16,25.62,17.88a1.73,1.73,0,0,1,1.45,1.73,2.05,2.05,0,0,0-.64,1.33,1.75,1.75,0,0,1-1.09.39c-11.38-2.19-23.76-4.71-28.65-20.3a2,2,0,0,0-3.81,1.2A31,31,0,0,0,60.85,49.1l-2.24,3.55a15.47,15.47,0,0,1-11.45-4.28c4.69-5.18,3.63-9.73,7.5-15.94a14.23,14.23,0,0,1,5-5.3c2.82-1.55,4.58-4,6.45-4.95A2,2,0,0,0,67,19.47c4.42-2.71,9.4-2.84,12.71-3-.9,4.18-4.75,8-6.45,7.68a5.5,5.5,0,0,1-2.12-1.28c-1.88-1.77-4.9,1-2.45,3.15-.91,2.48,0,5.65.75,8.5.44,1.58,1.17,4.23.82,4.88a2,2,0,0,0,3.51,1.92C75.68,37.73,72,31.57,72.3,28c4.41,1,9-4.2,10.74-8.79,4.31-11.39-6-20.52-15.23-17.06a5.86,5.86,0,0,0-7-1.57C55.53-1,48.48,1.45,46.77,12.06,45.27,21.34,42.48,22.6,42,22.75c-2.24-.54-3.39,3.06-.74,3.92A13.24,13.24,0,0,0,51,25.39c4.54-2.5,7.92-7.5,10.07-14.85l.63.44a13.39,13.39,0,0,0,.58,5.55c.72,2.72.34,2.09.08,3.34-1.64,1.29-3,2.81-4.67,3.75-5.19,2.85-8.3,9.36-10,15-2.29,7.48-4.63,7.71-5.52,9.06-5.07,4.08-8.15,7-9,14-.61,5,1.74,9,7.38,12.74a25,25,0,0,0,8,3,2.1,2.1,0,0,0-1.42.71c-.76.88-.67.55-18.22.55a4.37,4.37,0,1,1,.88-8.64,2.07,2.07,0,0,0,2.45-1.62c.68-3.31-5.3-3.49-8.71-.7C17.73,72.53,20,82.92,29.81,82.92l3.42,20.93A32.31,32.31,0,0,0,17.58,149H2.08A2.08,2.08,0,0,0,0,151.06v6.75a2.07,2.07,0,0,0,2.08,2.07H141.83a2.07,2.07,0,0,0,2.07-2.07v-6.75A2.08,2.08,0,0,0,141.83,149ZM113.33,23.54l3.47,2.26a31.49,31.49,0,0,1-7.45,10.89A47.43,47.43,0,0,0,113.33,23.54ZM79.82,12.25c-2.76.21-8.35.16-13.72,2.94C62.78,2.49,78.31,2.84,79.82,12.25ZM47.66,22.54C51.84,15.24,49.59,4.14,58,4.19a5.45,5.45,0,0,0,.13,2.89C57.25,8.08,55.54,19.72,47.66,22.54ZM64.29,4.42a9.52,9.52,0,0,0-1.5,2.43C60.65,5.37,62.58,3.08,64.29,4.42Zm56.14,111A139.37,139.37,0,0,1,116,129h-6.32c1.38-3.09,3.79-8.63,5-12.51,10.77-33.69-.55-63.69-2.53-65.24q1-.63,2-1.35C123.52,69,125.89,93.42,120.43,115.42ZM87,60.65a5.7,5.7,0,0,0,4.51-2.21,46.49,46.49,0,0,0,17.33-5.27,91.68,91.68,0,0,1,1.89,62C109,120.57,105.46,128,105.1,129H98a2.08,2.08,0,1,0,0,4.15h24.12a7.8,7.8,0,0,1,0,15.6c-11.89,0-11.66-.15-12.42.25h-3c-13.08-23.69-37.91-40.11-41.31-41.16,4-10.66,11.37-22.41,11.78-23.41.33-.79,1.93-4.84,1.61-7.41a11.44,11.44,0,0,0-5.44-8.21L58.81,59.71c1.62-2.44,3.92-6.08,5-7.77C72.08,58.86,86,60.72,87,60.65ZM45.33,137.9a6.59,6.59,0,1,1,2-12.88l-3.58,4.48A2.08,2.08,0,0,0,47,132.09l3.69-4.62A6.59,6.59,0,0,1,45.33,137.9Zm7-24.59c3.4-2.68,8.36,1.22,9.78,7.23Zm3.72-56.74-.84,1.28c-1-.11-7.22,1.84-12.82-5.19.62-.55,1.2-1,1.84-1.51A18.88,18.88,0,0,0,56.09,56.57Zm-19,5.65a11.91,11.91,0,0,1,2.52-6.64c3.81,4.55,9.14,7.08,15.1,6.3C55,62,71,72,71.22,72.18a7.6,7.6,0,0,1,3.59,5.32c.14,1.09-.66,3.71-1.28,5.24-1.07,1.79-10.4,17.46-13.12,27.56a12.44,12.44,0,0,0-1.3-.84c2.92-7.32.78-22.69,7-28.45a2,2,0,0,0-.56-3.29c-7.3-3.21-18-3.38-22.76-6.58C37.29,67.5,36.85,64.59,37.14,62.22ZM34,82.92h3.77l3.15,18.71a28.77,28.77,0,0,0-3.73.82Zm17.62,23a2.08,2.08,0,0,0,.84-4.07,32.27,32.27,0,0,0-7.39-.64L42,82.92c3.71,0,6.17.44,8.27-2a2.08,2.08,0,0,0-.53-3.15c3.88.86,8.07,1.52,11.63,2.65-5.35,8-3.53,22.17-6.11,27.88-4.93-.3-10,4.9-7.17,7l4.4,3.25c-.22.24-2.29,2.84-2.49,3.09a10.74,10.74,0,1,0,3.32,2.5c.21-.27,2.3-2.86,2.47-3.15,8,5.93,7.87,6,8.87,6a2.07,2.07,0,0,0,2.07-2,19.05,19.05,0,0,0-3-11.18,16.45,16.45,0,0,1,.4-2c3,1.71,24.55,14.69,37.79,37.16H22.41C8.83,128.3,26.92,100.89,51.64,106Zm88.11,49.77H4.15v-2.6h135.6Z"/><path class="cls-3" d="M135.45,106.71a114.78,114.78,0,0,0-4.74-51A2.07,2.07,0,1,0,126.78,57a110.64,110.64,0,0,1,4.55,49.16,2.08,2.08,0,0,0,4.12.55Z"/><path class="cls-3" d="M105.56,142.92h16.33a2.08,2.08,0,0,0,0-4.15H105.56a2.08,2.08,0,1,0,0,4.15Z"/><path class="cls-3" d="M129.73,114.8a2,2,0,0,0,4,0A2,2,0,0,0,129.73,114.8Z"/><path class="cls-3" d="M84.4,141.46a2,2,0,0,0,4,0A2,2,0,0,0,84.4,141.46Z"/><path class="cls-3" d="M75.06,141.46a2,2,0,0,0,4,0A2,2,0,0,0,75.06,141.46Z"/></g></g></svg>