<svg xmlns="http://www.w3.org/2000/svg" viewBox="0 0 162.28 146.33"><defs><style>.cls-1{fill:#61c4f2;}.cls-2{fill:#f86464;}.cls-3{fill:#263357;}</style></defs><title>Element 3</title><g id="Ebene_2" data-name="Ebene 2"><g id="icons"><rect class="cls-1" x="119.8" y="56.17" width="24" height="12.67"/><rect class="cls-1" x="120.14" y="98.5" width="32" height="24"/><rect class="cls-2" x="68.64" y="55" width="44.5" height="51"/><path class="cls-1" d="M11.64,143.5,8.64,98s11.5,3,15.5,3,12-3,12-3l15,2.5-2,43.5Z"/><rect class="cls-2" x="37.64" y="3.5" width="45" height="13.5"/><rect class="cls-2" x="94.64" y="3" width="8.5" height="14"/><path class="cls-3" d="M158,144.2a2.16,2.16,0,0,0,4.31,0A2.16,2.16,0,0,0,158,144.2Z"/><path class="cls-3" d="M143.66,48a2.16,2.16,0,0,0-4.31,0A2.16,2.16,0,0,0,143.66,48Z"/><path class="cls-3" d="M108.45,26.09A25.35,25.35,0,0,1,120.87,47.8a2.08,2.08,0,0,0,2.07,2.08h10.23a2.08,2.08,0,0,0,0-4.15H125a29.53,29.53,0,0,0-14.39-23.21,2.07,2.07,0,0,0-2.11,3.57Z"/><path class="cls-3" d="M39.44,120.42A6.58,6.58,0,1,0,46,127,6.58,6.58,0,0,0,39.44,120.42ZM37,127a2.42,2.42,0,0,1,4.84,0C41.86,130.19,37,130.19,37,127Z"/><path class="cls-3" d="M86.72,79.51h-3a2,2,0,0,0,0,4h3A2,2,0,0,0,86.72,79.51Z"/><path class="cls-3" d="M96.72,83.51h3a2,2,0,0,0,0-4h-3a2,2,0,0,0,0,4Z"/><path class="cls-3" d="M152.12,141.93h-3.5a13.44,13.44,0,0,0,3.61-9.15V93.46a13.43,13.43,0,0,0-8.56-12.57,9.29,9.29,0,0,1-5.93-8.7V70.67h5.69a2.08,2.08,0,0,0,2.07-2.08V57.12a2.07,2.07,0,0,0-2.07-2.07H121.32a2.08,2.08,0,0,0,0,4.15h20v7.31h-20a2.08,2.08,0,0,0,0,4.16h12.23v1.52a13.43,13.43,0,0,0,8.56,12.57,9.29,9.29,0,0,1,5.93,8.7V99c-.32,0-26.18,0-26.5,0a2.08,2.08,0,0,0,0,4.15c.32,0,26.18,0,26.5,0V119c-.32,0-26.18,0-26.5,0a2.08,2.08,0,1,0,0,4.15c.32,0,26.18,0,26.5,0v9.69a9.32,9.32,0,0,1-7.62,9.15H108.13a20.47,20.47,0,0,0,8.06-16.27V47.8A20.54,20.54,0,0,0,97.66,27.39V20.44h2.08a7.73,7.73,0,0,0,7.73-7.72v-5A7.74,7.74,0,0,0,99.74,0H42.48a7.73,7.73,0,0,0-7.72,7.73v5a7.72,7.72,0,0,0,7.72,7.72H44v7A20.54,20.54,0,0,0,25.5,47.8v4a2.08,2.08,0,0,0,4.15,0v-4A16.38,16.38,0,0,1,46,31.44H95.67A16.38,16.38,0,0,1,112,47.8v5.79c-.64-.29,1.89-.19-42.45-.19a2.08,2.08,0,0,0-2.07,2.08v51.28a2.07,2.07,0,0,0,2.07,2.07H112c0,18.29.26,18.76-.9,22.14H58.91a2.08,2.08,0,0,0,0,4.15H109a16.36,16.36,0,0,1-11.58,6.81H51.64l3.83-54.07c5.91,0,4.93.57,4.93-10.47a2.08,2.08,0,0,0-2.08-2.08H9.75V69.82A8.82,8.82,0,0,1,18.56,61c22.13,0,21,.11,21.62-.17a2.08,2.08,0,0,0,2-2.07V53.11h8.59V71.9a2.08,2.08,0,0,0,4.15,0V51A2.08,2.08,0,0,0,52.82,49H40.08A2.08,2.08,0,0,0,38,51v5.83H18.56a13,13,0,0,0-13,13v5.49H2.12A2.07,2.07,0,0,0,.05,77.39c0,11.52-.93,10.47,5.62,10.47L9.5,141.93H3.8a2.08,2.08,0,0,0,0,4.15H11c.39.14,38.36.26,39.08,0h4.76c.81.24,60.43,0,61.26,0a2.15,2.15,0,0,0,.8.16c24.13,0,22.31.06,23.81-.16h11.38a2.08,2.08,0,0,0,0-4.15ZM86.67,16.29V4.15h6.15V16.29Zm16.65-8.56v5a3.58,3.58,0,0,1-3.58,3.57H97V4.15h2.77A3.58,3.58,0,0,1,103.32,7.73Zm-64.41,5v-5a3.57,3.57,0,0,1,3.57-3.58h40V16.29h-40A3.57,3.57,0,0,1,38.91,12.72Zm9.2,14.57V20.78h45.4v6.51Zm23.56,77.39V57.56c42.09,0,39.73.1,40.37-.18V67.82H83.72a2.08,2.08,0,0,0,0,4.15H112v7.54h-2.32a2,2,0,0,0,0,4H112V91H97a2.08,2.08,0,0,0,0,4.15h15v9.49ZM4.2,79.46H56.25V83.7H4.2Zm47.11,8.4-.71,10A23.19,23.19,0,0,1,47,97.13c-13.68-3.39-16.44,3.12-29,0a27.49,27.49,0,0,0-7.54-.95l-.58-8.32ZM12.89,131H17a2.08,2.08,0,1,0,0-4.15H12.59l-.31-4.39H24.51a2.08,2.08,0,0,0,0-4.15H12l-.31-4.39H17a2.08,2.08,0,0,0,0-4.16H11.38l-.66-9.39c7,.1,11.07,3.48,21.74.83,8.69-2.15,13.21.34,17.85.81l-2.83,40H13.66Z"/></g></g></svg>