<svg xmlns="http://www.w3.org/2000/svg" viewBox="0 0 151.68 133.66"><defs><style>.cls-1{fill:#f86464;}.cls-2{fill:#61c4f2;}.cls-3{fill:#263357;}</style></defs><title>Element 7</title><g id="Ebene_2" data-name="Ebene 2"><g id="icons"><circle class="cls-1" cx="130.3" cy="111.59" r="19.65" transform="translate(-40.74 124.82) rotate(-45)"/><path class="cls-2" d="M31.91,45c-19.18,17.41-6,48,21.32,48,13.51,0,25-8.13,28.92-19.38C59.81,93.89,22,73.07,31.91,45Z"/><path class="cls-3" d="M151.67,22.87a22.06,22.06,0,0,0-44-2H97.28a2.08,2.08,0,0,0,0,4.15h10.26c0,88-.09,83.32.16,83.91a22,22,0,0,0,9.09,20.55H4.15v-3.33h98.63a2.08,2.08,0,0,0,0-4.15H4.15V25h8.79a2.08,2.08,0,0,0,0-4.15H2.08A2.08,2.08,0,0,0,0,23V131.58a2.08,2.08,0,0,0,2.08,2.07c.32,0,126.93,0,127.25,0a22.08,22.08,0,0,0,22.34-22.06c0-.71,0-1.41-.1-2.11C151.73,108.93,151.67,23.4,151.67,22.87Zm-22.06,106.6a17.92,17.92,0,1,1,17.91-17.92A17.94,17.94,0,0,1,129.61,129.47ZM111.69,98.69V22.87a17.92,17.92,0,1,1,35.83,0V98.69A22,22,0,0,0,111.69,98.69Z"/><path class="cls-3" d="M129.61,99.86a11.69,11.69,0,1,0,11.69,11.69A11.71,11.71,0,0,0,129.61,99.86Zm0,19.23a7.54,7.54,0,1,1,7.54-7.54A7.55,7.55,0,0,1,129.61,119.09Z"/><path class="cls-3" d="M121.34,47.1V17.45a2.08,2.08,0,0,0-4.15,0V47.1A2.08,2.08,0,0,0,121.34,47.1Z"/><path class="cls-3" d="M117.42,55.64a2.07,2.07,0,0,0,4.14,0A2.07,2.07,0,0,0,117.42,55.64Z"/><path class="cls-3" d="M44.42,101.81a2.07,2.07,0,1,0,2.07-2.07A2.07,2.07,0,0,0,44.42,101.81Z"/><path class="cls-3" d="M55.18,95.4c23.28,0,39-23,32.31-43.86,4.8-5.75,7.23-12,7.23-18.62C94.72,17,83.18,0,66,0H44.51c-23,0-38.4,32.18-21.58,51.84A33.76,33.76,0,0,0,55.18,95.4ZM44.51,4.15H66C80.7,4.15,90.57,19,90.57,32.92c0,5.79-2.26,11.32-6.69,16.44-2.3,1.71.87,2.61.87,12.32a29.57,29.57,0,1,1-59.13,0c0-8.67,3.23-10.44.84-12.08-1.2-1.6-6.52-6.88-6.52-16.68C19.94,19,29.81,4.15,44.51,4.15Z"/><path class="cls-3" d="M55.18,100.7a2.08,2.08,0,0,0,0,4.15A43.21,43.21,0,0,0,98.35,61.68a2.08,2.08,0,0,0-4.15,0A39.06,39.06,0,0,1,55.18,100.7Z"/><path class="cls-3" d="M29.87,42a2.08,2.08,0,0,0,2.93-.13c12.25-13.36,33.69-12.59,44.93-.19a2.39,2.39,0,0,0,3.66-.47c5.74-9.17-1-30.46-15.94-30.46H45.06c-15.81,0-21.72,23.29-15.57,30.77C29.66,41.76,29.58,41.77,29.87,42Zm15.19-27.1H65.45c9.77,0,15.62,13.54,13.32,22A35.15,35.15,0,0,0,31.88,37C29.35,28,35.55,14.94,45.06,14.94Z"/><path class="cls-3" d="M62.23,61.24c5.79-1.8,5.11-12.87-6.52-12.87-4.74,0-10.24,2-10.24,7.56h4.84c0-4.08,10.64-4.48,10.64.25-.06,3.56-5.64,3.08-9.1,3.08v4c4.06,0,9.47-.59,9.47,3.44,0,5.09-11.37,4.87-11.37.22H45.07c0,5.83,5.61,7.89,10.49,7.89s10.85-1.87,10.85-8.14A6.11,6.11,0,0,0,62.23,61.24Z"/></g></g></svg>