<svg xmlns="http://www.w3.org/2000/svg" viewBox="0 0 164 157.8"><defs><style>.cls-1{fill:#61c4f2;}.cls-2{fill:#f86464;}.cls-3{fill:#263357;}</style></defs><title>Element 8</title><g id="Ebene_2" data-name="Ebene 2"><g id="icons"><path class="cls-1" d="M67.27,115.1l-2-13-8.5-8.5,9.5,1,7,4c7.9,0,10.21.76,24.5-4l7.5-.5c-6.14,8-4.32,4.9-8,13.5l-.5,8.5C67.65,114,90.73,116.4,67.27,115.1Z"/><path class="cls-2" d="M70.77,45.35V53c0,5.87,4.75,14.13,10.62,14.13S92,58.84,92,53V45.6L100.27,48,99,58.6l1.75,9.5c-2.46,11.36-1.26,7.59-5.25,16.5L95,94.85,91.27,98.1c-10.75,1.22-6.87,1.11-17,.5l-5.75-2.75.25-9C66,79.48,67.31,82.56,63,73.35c.3-11.66.07-7.72,1-17.25L62.27,49Z"/><rect class="cls-1" x="5.47" y="13.6" width="15" height="40" rx="4.18" ry="4.18"/><rect class="cls-1" x="142.77" y="14.1" width="15" height="40" rx="4.42" ry="4.42"/><path class="cls-3" d="M153.57,155.62a2.2,2.2,0,0,0,4.39,0A2.2,2.2,0,0,0,153.57,155.62Z"/><path class="cls-3" d="M34.07,139.82a2.2,2.2,0,0,0,0-4.39A2.2,2.2,0,0,0,34.07,139.82Z"/><path class="cls-3" d="M58.88,86.91a2,2,0,0,0,.32-4c-28-2.26-32.3,18.17-28.63,46.42a2,2,0,1,0,4-.51c-.51-3.9-.83-7.84-.94-11.38C33,96.35,38.28,85.23,58.88,86.91Z"/><path class="cls-3" d="M162,31.62h-2.6V15.29a2,2,0,0,0-2-2h-13a2,2,0,0,0-2,2v16.5H136a6.67,6.67,0,0,0-6.29-4.5h-4.27a6.68,6.68,0,0,0-6.3,4.5h-23a20.28,20.28,0,0,0-1-15.79C99.35,10.42,97.05.93,94.88.12A2,2,0,0,0,93.3.2a26.2,26.2,0,0,1-7.75,2.42c-6.68.94-9.55-1.56-14.61.73-6.28,2.82-8,9.63-8,9.63-1.71,6.39,1.54,11.67,2.89,13.5a20.36,20.36,0,0,0,1.08,5.31H44.83a6.68,6.68,0,0,0-6.3-4.5H34.27a6.68,6.68,0,0,0-6.3,4.5H21.6V15.29a2,2,0,0,0-2-2H6.6a2,2,0,0,0-2,2V31.62H2a2,2,0,0,0,0,4H4.6V52.29a2,2,0,0,0,2,2h13a2,2,0,0,0,2-2V35.79h6.26a6.69,6.69,0,0,0,3.49,4.15,1.49,1.49,0,0,0,0,.21c.74,17.47,4.86,28,23.7,30a48.56,48.56,0,0,0,6.58-.29c1.54,13.26,6,10,5.84,23.59-5.12-1.32-14.78-3.11-21.26-.1-12.91,6-3.58,37.5-3.17,50.16-3.8,1-.77.18-11,3.31a5.55,5.55,0,0,0-3.63,6.94H16.93a2,2,0,0,0,0,4H146.27a2,2,0,0,0,0-4H135.43a5.38,5.38,0,0,0-3.51-7.07c-10.29-3.08-7.21-2.3-10.93-3.21.43-12.76,9.78-44.89-3.27-50.17-5.87-2.37-14.56-1.51-21.17.15-.13-13.56,4.32-10.4,5.84-23.64A69.6,69.6,0,0,0,110,70c19.94-2.11,22-14.21,22.69-29.81a1.49,1.49,0,0,0,0-.21,6.66,6.66,0,0,0,3.49-4.15h6.26v16.5a2,2,0,0,0,2,2h13a2,2,0,0,0,2-2V35.62H162a2,2,0,1,0,0-4ZM8.6,17.29h2.29v33H8.6Zm9,33H14.89v-33H17.6Zm107.87-19h4.27c3.52,0,3.52,5.33,0,5.33h-4.27a2.67,2.67,0,1,1,0-5.33Zm-6.41,4.5a6.74,6.74,0,0,0,3.09,3.94c.49,9.84-6.43,13.38-8.25,14.14a10.32,10.32,0,0,1-5.6-3.3A22.43,22.43,0,0,0,92.81,42.7a2.43,2.43,0,0,1-2.51-2.24,2.2,2.2,0,0,0-.07-.37,17.16,17.16,0,0,0,4-4.3ZM73.23,46.27a6.06,6.06,0,0,0,3.93-3.88,13.78,13.78,0,0,0,9.41-.25,6.08,6.08,0,0,0,4,4.11v9.41a8.65,8.65,0,0,1-17.29,0Zm-.4-31.05c6,5.81,14.06,6.54,19.27,3.53C96,28,90.33,39.1,81.53,39.1,70.52,39.1,66.25,22.79,72.83,15.22Zm2.76-8.87c3,0,8.77,1.85,17.43-1.65,3.62,13-11.09,15.46-18.57,6.38-2.22-2.7-6.14,3-7.41,6-.18.41-.33.83-.48,1.25C65.67,12.34,70.37,6.35,75.59,6.35ZM73.5,40.58A2.45,2.45,0,0,1,71,42.7a22.47,22.47,0,0,0-15.49,7.87,10.27,10.27,0,0,1-5.59,3.3c-1.79-.76-8.69-4.32-8.25-14a6.72,6.72,0,0,0,3.27-4.05h23.9A16.64,16.64,0,0,0,73.5,40.58ZM34.27,31.29h4.26c3.53,0,3.53,5.33,0,5.33H34.27a2.67,2.67,0,1,1,0-5.33ZM55.45,66.13C39.52,64.45,36.1,56.21,35.36,40.62h2.3c0,10.62,7.36,15.89,11.44,17.21,1.29.42,6.36-.95,9.49-4.7a17.66,17.66,0,0,1,3.31-3,34.08,34.08,0,0,1,.41,15.64A57.73,57.73,0,0,1,55.45,66.13Zm12.63,31.6c2.87,2.88,17.55,5,27.56.41a2.09,2.09,0,0,0,.68-.52c1.32-.37,2.73-.7,4.16-1-3.28,3.32-6.43,8.89-6.1,17.93A63.06,63.06,0,0,1,82.59,113a3.6,3.6,0,0,0-1,0,88,88,0,0,1-11.92,1.12c.2-8.8-2.94-14.23-6.18-17.48C65.06,96.91,66.62,97.3,68.08,97.73Zm40.05,46.83c-2.17,2-3.4,5.24-3.52,9.16H59.38c-.15-3.58-1.22-7.25-4-9.53.38-13.38,4.47-19.33,3-27.07,8.42,2.14,20.92.25,23.51-.18,2.15.52,13.75,3,22.81.61C101.57,127.45,107,136.15,108.13,144.56ZM45.52,130.87C41,100.93,43.43,95.76,54.83,95.66c1,.83,11.17,3.28,10.81,18.38-3.83-.16-7.36-.75-9.5-2.1a2,2,0,0,0-2.45.23,2,2,0,0,0-.36,2.44c4,7-1.76,16.25-1.92,27.76a11.35,11.35,0,0,0-4.43.21C46.81,139.46,46.21,135.43,45.52,130.87ZM33.64,153.62a1.49,1.49,0,0,1-1.44-1.54,1.54,1.54,0,0,1,1-1.48c4.64-1.42,8.51-2.67,8.51-2.67,7.09-2,9.34-2.2,11.17-.63,1.44,1.24,2.3,3.54,2.46,6.42H34.23A1.92,1.92,0,0,0,33.64,153.62Zm98.16-1.77a2.44,2.44,0,0,1-1.52,1.87H108.61c.18-4.72,2.22-8.2,7-7.36,2.18.38,4.44.9,6.63,1.51C131,150.61,131.8,150.39,131.8,151.85Zm-13.32-21.08c-.68,4.61-1.29,8.67-1.46,11.8a11.31,11.31,0,0,0-5.07-.09c-1.08-7.07-7.83-18.47-1.38-27.71a2,2,0,0,0-.2-2.53c-2.1-2.19-2.33,1.7-12,2.29C97.78,99.45,108,96.18,108.46,96a1.84,1.84,0,0,0,.51-.24C120.34,95.87,123.14,99.48,118.48,130.77ZM92.59,95.08c-6.81,2.52-16.65,2.17-21.18,0,.73-15.73-4.48-13.27-5.85-26,2.1-5.28,1.83-16.32-.09-20.93A18.81,18.81,0,0,1,69.23,47v8.67a12.65,12.65,0,0,0,25.29,0V47a18.44,18.44,0,0,1,3.93,1.19,40.28,40.28,0,0,0,.06,20.19C97.37,81.54,91.86,79.18,92.59,95.08ZM102,65.74a37.09,37.09,0,0,1,.09-15.54,17.53,17.53,0,0,1,3.16,2.93,14.22,14.22,0,0,0,8.65,4.79c1.74.19,12.32-4.6,12.28-17.3h2.48C127.84,57.88,124.68,67.4,102,65.74ZM146.4,17.29h2.49v33H146.4Zm9,33h-2.51v-33h2.51Z"/></g></g></svg>