<svg xmlns="http://www.w3.org/2000/svg" viewBox="0 0 132.9 162.47"><defs><style>.cls-1{fill:#61c4f2;}.cls-2{fill:#f86464;}.cls-3{fill:#263357;}</style></defs><title>Element 10</title><g id="Ebene_2" data-name="Ebene 2"><g id="icons"><path class="cls-1" d="M80,77.58,86.39,91l-17.33,29.5-9.62,7.94C69.55,95.65,64.86,107.24,80,77.58Z"/><path class="cls-2" d="M76,9.24l4.34-5.66a66,66,0,0,1,17,12.25c0,.5-3.45,6.58-3.45,6.58Z"/><path class="cls-1" d="M99.16,129.08s-20-50.5-21-58c0,0,12.5.5,16.5-3,0,0,4.5,3,4,5.5s-2,8.5-2,8.5l8,44Z"/><path class="cls-2" d="M16.58,120.63s-14.5,17-14.5,25a14.5,14.5,0,0,0,29,0C31.08,137.65,16.58,120.63,16.58,120.63Zm-.25,29.11a6,6,0,1,1,6-6A6,6,0,0,1,16.33,149.74Z"/><path class="cls-1" d="M51.51,53.48H32.09c-1,0-1.47-.59-4.67-2.9-.86-.61-.21.55-9.62-27.33A2,2,0,0,1,21.59,22l8.69,25.74,2.45,1.77H51.51a2,2,0,0,1,0,4Z"/><path class="cls-3" d="M113,122.14a2.33,2.33,0,0,0,0-4.66A2.33,2.33,0,0,0,113,122.14Z"/><path class="cls-3" d="M108.87,109.85a2,2,0,0,0,3.94-.69l-4.53-25.95c3.18-8.93.57-18.85-5.12-26A2,2,0,0,0,99.4,57c-1.07,2.12,1.4,2.06,4.37,9.11a21.72,21.72,0,0,1,.58,16.19C104,83.15,104,81.71,108.87,109.85Z"/><path class="cls-3" d="M87.23,74.52a2,2,0,1,0-3,2.65l5,5.66a2,2,0,0,0,3-2.64Z"/><path class="cls-3" d="M130.91,136.67,91.46,135.1c3-3.08,7.65-1.74,11.3-5.2.69,2.62,1.27,4.24,2.9,4.24a2,2,0,0,0,1.82-2.83c-3.82-8.29,1.27-20-5.11-29.64-1.1-6.32-1.25-10.75-3.23-18.56,0-2.43,5.25-10.52-3.84-21.34-4.23-5,.1-4.19,2.59-15.24C100,37,99,34.36,97.09,30.12c-3.45-7.54-1.29-7.72.81-11.64,1.35,9.66,7.53,14.29,12.85,14.5,2.8.1,2.93-3.67.66-3.93-.4-.31-2.59-2.46-.79-11.69,1.83-9.4-2.44-14.59-8.51-15.54a5.42,5.42,0,0,0-7.39-.67l-.81.64C84.75-3.12,72.82,3.57,73.36,16.14c.25,5.8,3.68,15.09,11.56,12.92,0,2.58.86,2.79-5,6.11-7.58,4.34-7.14,6-3.91,13.89C72.33,51.47,67.4,52.77,61,53.83a5.73,5.73,0,1,0,1.86,11.31A63.88,63.88,0,0,0,76.46,61.6a79.19,79.19,0,0,0,1.36,13.33c-15.55,33.76-9.6,18.23-20.23,52.7-3.74.27-8.21.77-10.89,5.16a2,2,0,0,0-.22.52c-.32,0-18.22-.75-18.54-.71-1.25-2-2.59-4-3.87-5.74.09-.3,4.86-55,4.89-55.31h36.7a2.08,2.08,0,0,0,0-4.15H20.26l-3.2-2.31C3.52,24.51,4.06,27.1,4.72,25.8a2.44,2.44,0,0,1,4.47.34c11.45,33.94,10.64,32.31,11.53,33,4.19,3,4.49,3.46,5.49,3.46h25.3a2.08,2.08,0,1,0,0-4.15H26.88l-3.2-2.3L13.13,24.82A6.58,6.58,0,0,0,.64,29L13.33,67c.33,1,1,1.21,5,4.12.85.61,1.55.39,6.42.39L20.37,122c-1.09-1.36-1.9-2.33-2.21-2.7a2.15,2.15,0,0,0-3.16,0c-.29.34-1,1.16-1.91,2.32l4.3-45.93a2.07,2.07,0,0,0-4.13-.39c0,.42-4.92,52.12-4.86,52.53-4,5.71-8.4,13-8.4,17.85a16.59,16.59,0,0,0,16.58,16.57H53.69a4.71,4.71,0,0,0,4.71-4.71v-3.1h58.85v3.72a4.33,4.33,0,0,0,4.33,4.33h7a4.33,4.33,0,0,0,4.32-4.33v-19.4A2.07,2.07,0,0,0,130.91,136.67Zm-43.85-1.75-18.67-.74a14.31,14.31,0,0,0-.5-6c.84-1,8.57-12.55,9.73-20.57,1.89-1.56,6.14-5.3,8.53-9C97,125,96.48,127.5,96.85,128.5,88.79,130.2,87.32,133.68,87.06,134.92Zm14.81-13.6c-.63,1.13.36,2.88-1.38,5.11-2.21-10.16-15.16-40.08-15.71-41.34A61.87,61.87,0,0,1,81.46,72.5a24.77,24.77,0,0,0,14.05-2.82c3,7.16-.53,8.89-.36,13.77A118.37,118.37,0,0,1,97.52,96.3c.27,2,.56,4.12,1,6.49C99,105.53,101.78,102.9,101.87,121.32ZM91.8,63.82a29.41,29.41,0,0,1,1.84,2.33A21.18,21.18,0,0,1,80.9,68.4c-.06-.5-.11-1-.15-1.48A18,18,0,0,0,91.8,63.82ZM106.17,26.9c-6.18-5.14-4.28-16.57-4.35-17.57a5.41,5.41,0,0,0,1.58-3C110.38,9.6,104.82,18.92,106.17,26.9ZM98.79,6.66a7.26,7.26,0,0,0-1.6-2.36A1.43,1.43,0,1,1,98.79,6.66Zm-5.69,12a32.42,32.42,0,0,0-13.79-10C84.84-.16,102.21,4.6,93.1,18.67ZM90.57,41C86.28,54.59,76.11,58.91,62.17,61.2a1.74,1.74,0,0,1-.56-3.43c11.84-1.94,21.59-5,25.65-17.84a2,2,0,0,0-1.3-2.5c-3.26-1-2,3.79-6.71,9-2.3-5.15-2-5.07,2.7-7.73,8-4.6,7-5.69,7-12.62a2,2,0,0,0-3.44-1.39c-1,.2-.77.49-2.37.75a3.12,3.12,0,0,1-1.08.07c-2.27-.37-5.83-6.9-4.27-13.12A28.44,28.44,0,0,1,91.31,23c-.38,6.07,3.53,9.57,3.76,14.15A35.65,35.65,0,0,1,94,45.66c-2,8.68-5.59,9.68-4.13,14.64a13.71,13.71,0,0,1-9.37,2.58c-.08-2.46,0-2.51-.22-3.07,6.2-3.38,11.3-8.72,14.11-17.63A2,2,0,0,0,90.57,41ZM79.29,81.28c1.26,4.44,1.91,5.53,4.74,12.26a1.82,1.82,0,0,0-.15.62c-.13,2.13-5,7.29-9.4,10.85a2,2,0,0,0-.74,1.37c-.61,6.66-7,16.42-9.08,19.37a5.24,5.24,0,0,1-2.73,1.39C71.28,96.81,67.32,107.27,79.29,81.28ZM64.36,130.59a8.25,8.25,0,0,1,0,3.43l-13.09-.52C54.37,130.82,59.86,132.25,64.36,130.59Zm64.39,10.15v9.53H32.49c1.42-4.9.44-8.42-2.15-13.45ZM4.15,145.66c0-5.25,7.9-16.15,12.43-21.77C21.1,129.51,29,140.4,29,145.66a12.43,12.43,0,0,1-24.85,0Zm50.1,11.86c0,.91.62.56-26.74.56a16.54,16.54,0,0,0,3.11-3.66H54.25Zm74.33.8h-7a.18.18,0,0,1-.18-.18v-3.72h7.35v3.72A.18.18,0,0,1,128.58,158.32Z"/><path class="cls-3" d="M23.4,143.39a6.83,6.83,0,1,0-6.82,6.83A6.83,6.83,0,0,0,23.4,143.39Zm-6.82-2.67c3.53,0,3.53,5.35,0,5.35S13,140.72,16.58,140.72Z"/><path class="cls-3" d="M115.17,146.88l3,.12a2,2,0,0,0,.16-4l-3-.12a2,2,0,1,0-.16,4Z"/><path class="cls-3" d="M63.21,144.81l3,.12a2,2,0,0,0,.16-4l-3-.12a2,2,0,1,0-.16,4Z"/><path class="cls-3" d="M50.22,144.3l3,.12a2,2,0,0,0,.16-4l-3-.12a2,2,0,0,0-.16,4Z"/><path class="cls-3" d="M37.23,143.78l3,.12a2,2,0,0,0,.16-4l-3-.12a2,2,0,0,0-.16,4Z"/><path class="cls-3" d="M102.18,146.36l3,.12a2,2,0,0,0,.16-4l-3-.12a2,2,0,1,0-.16,4Z"/><path class="cls-3" d="M76.2,145.33l3,.12a2,2,0,0,0,.16-4l-3-.12a2,2,0,0,0-.16,4Z"/><path class="cls-3" d="M89.19,145.85l3,.12a2,2,0,0,0,.16-4l-3-.12a2,2,0,1,0-.16,4Z"/></g></g></svg>