<svg xmlns="http://www.w3.org/2000/svg" viewBox="0 0 159.38 144.36"><defs><style>.cls-1{fill:#61c4f2;}.cls-2{fill:#f86464;}.cls-3{fill:#263357;}</style></defs><title>Element 5</title><g id="Ebene_2" data-name="Ebene 2"><g id="icons"><path class="cls-1" d="M29.84,131.58l2,5.5,16.5,5.5c72.38-2.16,48.73.28,71.34-1.84l2.83-5.66-4.83-2.17c-38.49,1.23-23,.62-68.17,2.67Z"/><rect class="cls-1" x="84.6" y="3.54" width="57.92" height="12.01"/><polygon class="cls-2" points="40.11 58.66 45.7 69.98 58.2 71.8 49.15 80.61 51.29 93.06 40.11 87.18 28.93 93.06 31.07 80.61 22.03 71.8 34.52 69.98 40.11 58.66"/><path class="cls-3" d="M79.82,37.14c2.31-9.11,4.32-15.7,6-19.61h15.68a2,2,0,0,0,0-4h-15V6.1h54.15v7.43h-15a2,2,0,0,0,0,4h15.17c4.75,12.42,9,42.21,10,50-5.65,1-22.57,4-31,5.18C115,44.18,115.5,45.67,114.5,45a2,2,0,0,0-2-.31c-1.41.58-.84-.6-5.92,28.05C86.8,69.51,83,66.33,82.2,69.75a2,2,0,0,0,1.52,2.38C92,74,102.85,76.28,107.91,77a2,2,0,0,0,2.23-1.64l3.08-17.38,2.91,17.36A2,2,0,0,0,118.37,77c9-1.19,34.73-5.77,35-5.82A2,2,0,0,0,155,68.91c-.19-1.55-4.88-38.09-10.52-52.81.15-.5.09-11.47.09-12a2,2,0,0,0-2-2H84.41a2,2,0,0,0-2,2V15.33c-1.58,2.27-5.58,17.33-6.47,20.83A2,2,0,0,0,79.82,37.14Z"/><path class="cls-3" d="M136.87,23.41A2,2,0,1,0,133,24.55c2.46,8.27,4.75,21.09,6.24,30.39a2,2,0,1,0,3.95-.64C141.72,44.89,139.39,31.88,136.87,23.41Z"/><path class="cls-3" d="M120.27,8.05h-14a2,2,0,0,0,0,4h3.91l-3.61,8a2,2,0,0,0,3.64,1.64l2.08-4.62,2.6,15.26a2,2,0,0,0,4-.67l-3.36-19.65h4.83A2,2,0,0,0,120.27,8.05Z"/><path class="cls-3" d="M142.57,64.48a2.12,2.12,0,0,0,0-4.24A2.12,2.12,0,0,0,142.57,64.48Z"/><path class="cls-3" d="M26.71,123.56a2.08,2.08,0,0,0,0-4.15h0a117.72,117.72,0,0,1-22.06-2c6.58-29.07.79-59.79-.32-65.17C6.15,48.75,13.51,33,9.5,10.59l-.06-.49a40.73,40.73,0,0,1,7.79-4.34c0,.09,2.8,20.89,2.82,21,3.84,19.68,12.74,23.81,19.52,23.81,9.91,0,17.4-9.16,19.54-23.94L61.93,5.14a23,23,0,0,1,6.43,3.68c-.27,3.3-3.76,24.52,7,43.65A169.37,169.37,0,0,0,74.69,91a2.07,2.07,0,0,0,4.13-.39,165.36,165.36,0,0,1,.72-38.28,2.13,2.13,0,0,0-.48-1.67,65.75,65.75,0,0,1-6.73-39.48s0-.08,0-.12c.23-3,.56-4-.59-4.87C67.23,2.81,65.15,1.39,59,.05a2.08,2.08,0,0,0-2.35,1.2c-2.38,5.46-10.92,9.26-17.09,9.26-6,0-14.42-3.63-16.89-8.84A2.07,2.07,0,0,0,20.35.54,34.07,34.07,0,0,0,8,6C4.75,8.39,4.94,8,5.4,11.24,9.6,34.72.38,50.76.29,50.91a2.06,2.06,0,0,0-.24,1.51c.08.35,7.7,35.2,0,66.15a2.11,2.11,0,0,0,.25,1.59,2.07,2.07,0,0,0,1.31.94A119.65,119.65,0,0,0,26.71,123.56ZM39.57,14.67c5.92,0,13.39-2.75,17.89-7.41L55,26C53.57,35.88,48.77,46.4,39.57,46.4,30.13,46.4,26,35.32,24.14,26L21.62,7.26C26.09,11.91,33.67,14.67,39.57,14.67Z"/><path class="cls-3" d="M66.31,118.75a22.94,22.94,0,0,1-2.46.3c-3.29.26-2.48,4.3.07,4,2.35-.19,5.14-.27,4.71-2.69A2,2,0,0,0,66.31,118.75Z"/><path class="cls-3" d="M77.54,114.15c-.81.52-1.63,1-2.45,1.45a2,2,0,0,0,1,3.76c.85,0,2.45-1.07,3.66-1.84A2,2,0,0,0,77.54,114.15Z"/><path class="cls-3" d="M121.08,117.76c-.12-8-3.4-12.68-8.81-12.68h-5.54a2.08,2.08,0,0,0-2.08,2s0,1.92-.05,4c0,4.32-5,7-8.4,4.49a29.23,29.23,0,0,1-2.09-2.32,2.07,2.07,0,0,0-3.2,2.63,23.36,23.36,0,0,0,2.82,3c6.23,4.55,15-.13,15-7.79,0-.67,0-1.32,0-1.9h3.5c5.11,0,4.39,8.92,4.87,9.92A28.68,28.68,0,0,1,120,131.32c-68.36.65-62,6.16-87.11-.67,1.62-10.15,11.81-8.93,16.88-9.73a77.75,77.75,0,0,0,13.42-3.78c7.51-2.67,13.7-11.53,17.1-18.7,2.59.11,8.72,1,11.7,6.24-2.1,2.12-6,5.66-8.78,6.81a2.07,2.07,0,0,0,1.57,3.84c4.87-2,11-8.57,11.24-8.85a2.06,2.06,0,0,0,.38-2.21c-4.52-10.74-17.06-10-17.59-10a2.06,2.06,0,0,0-1.77,1.26c-.06.14-6,14.11-15,17.6a76.33,76.33,0,0,1-12.88,3.66c-5.83.91-20.63-.3-20.63,17.05a7,7,0,0,0,3.17,5.33c5.45,2.81,14.32,5.16,24.52,5.16,43.46-1.67,48.05-.67,60.38-.67a8,8,0,0,0,7.63-7.85C124.16,130.69,124.48,125,121.08,117.76ZM56.13,140.21c-12,0-22.08-3.88-22.94-5.18,24.85,6.5,20.72,1.07,86.88.44C120.16,143.27,114.43,136.92,56.13,140.21Z"/><path class="cls-3" d="M116.61,97.9a2.06,2.06,0,0,0-.37,2.91c2.56,3.33,8.23-5.32,9.63-8.18a2.09,2.09,0,0,0-.15-2.09c-6.58-9.63-18.72-6.41-19.23-6.26A2.07,2.07,0,0,0,105,85.87a38.86,38.86,0,0,1-6.83,14.63,2.07,2.07,0,0,0,3.25,2.58,42.67,42.67,0,0,0,7.33-15c2.57-.41,8.8-.82,12.79,3.86A21.94,21.94,0,0,1,116.61,97.9Z"/><path class="cls-3" d="M158.29,111.43a33,33,0,0,0-5.71-12.59c-1.71-7.77-5.88-11.76-11.17-10.67L136,89.27a2.08,2.08,0,0,0-1.62,2.42s.35,1.89.74,3.9c.82,4.24-3.46,7.85-7.34,6.08a25.77,25.77,0,0,1-2.5-1.87,2.08,2.08,0,0,0-2.62,3.23,23.42,23.42,0,0,0,3.37,2.4c7,3.22,14.62-3.12,13.17-10.63-.13-.65-.25-1.3-.36-1.87l3.43-.69c5-1,6,7.75,6.75,8.75a28.68,28.68,0,0,1,5.24,11.35c-19.64,4.2-14.62,2.62-28.33,6.25a2.08,2.08,0,0,0,.53,4.08s9.63-2.42,11.78-2.83c7.15-1.37,15.33-3.1,16.9-3.44a3.7,3.7,0,0,1-.53,3.11c-1.77,2.72-8.69,2.29-26.84,6.28a2.08,2.08,0,0,0,.9,4.06c22.48-4.94,26.25-3.2,29.42-8.08C160.32,118.28,159.18,115.57,158.29,111.43Z"/></g></g></svg>