<?xml version="1.0" encoding="utf-8"?>
<!-- Generator: Adobe Illustrator 22.0.1, SVG Export Plug-In . SVG Version: 6.00 Build 0)  -->
<svg version="1.1" id="Ebene_1" xmlns="http://www.w3.org/2000/svg" xmlns:xlink="http://www.w3.org/1999/xlink" x="0px" y="0px"
	 viewBox="0 0 688 315" style="enable-background:new 0 0 688 315;" xml:space="preserve">
<style type="text/css">
	.st0{fill:#FEFEFE;}
	.st1{fill:#868686;}
	.st2{fill:#AEAEAE;}
	.st3{fill:#3E3E3E;}
	.st4{fill:#AFAFAF;}
	.st5{fill:#969696;}
	.st6{fill:#B4B4B4;}
	.st7{fill:#E9E9E9;}
	.st8{display:none;fill:#F2F2F2;}
	.st9{fill:#E8E8E8;}
	.st10{fill:#B0B0B0;}
	.st11{fill:#979797;}
	.st12{fill:#F1F1F1;}
	.st13{fill:#C9C9C9;}
	.st14{fill:#F2F2F2;}
	.st15{fill:#E1E1E1;}
	.st16{fill:#D8D8D8;}
	.st17{fill:#D6D6D6;}
	.st18{fill:#DEDEDE;}
	.st19{fill:#E0E0E0;}
	.st20{fill:#D7D7D7;}
	.st21{fill:#EFEFEF;}
	.st22{fill:#BABABA;}
	.st23{fill:#B6B6B6;}
	.st24{fill:#B3B3B3;}
	.st25{fill:#DDDDDD;}
	.st26{fill:#BFBFBF;}
	.st27{fill:#DBDBDB;}
	.st28{fill:#909090;}
	.st29{fill:#B7B7B7;}
	.st30{fill:#B5B5B5;}
	.st31{fill:#A2A2A2;}
	.st32{fill:#EBEBEB;}
	.st33{fill:#B8B8B8;}
	.st34{fill:#414141;}
	.st35{fill:#B9B9B9;}
	.st36{fill:#A3A3A3;}
	.st37{fill:#B2B2B2;}
	.st38{fill:#9F9F9F;}
	.st39{fill:#A0A0A0;}
	.st40{fill:#DFDFDF;}
	.st41{fill:#ECECEC;}
	.st42{fill:#EEEEEE;}
	.st43{fill:#EDEDED;}
	.st44{fill:#E3E3E3;}
	.st45{fill:#F0F0F0;}
	.st46{fill:#919191;}
	.st47{fill:#8F8F8F;}
	.st48{fill:#959595;}
	.st49{fill:#9E9E9E;}
	.st50{fill:#DCDCDC;}
	.st51{fill:#DADADA;}
	.st52{fill:#CACACA;}
	.st53{fill:#CBCBCB;}
	.st54{fill:#565656;}
	.st55{fill:#A1A1A1;}
	.st56{fill:#9A9A9A;}
	.st57{fill:#A5A5A5;}
	.st58{fill:#D9D9D9;}
	.st59{fill:#A4A4A4;}
	.st60{fill:#B1B1B1;}
	.st61{fill:#AAAAAA;}
	.st62{fill:#A9A9A9;}
	.st63{fill:#797979;}
	.st64{fill:#BCBCBC;}
	.st65{fill:#8A8A8A;}
	.st66{fill:#898989;}
	.st67{fill:#BBBBBB;}
	.st68{fill:#8B8B8B;}
	.st69{fill:#4B4B4B;}
	.st70{fill:#E4E4E4;}
	.st71{fill:#888888;}
	.st72{fill:#808080;}
	.st73{fill:#494949;}
	.st74{fill:#C2C2C2;}
	.st75{fill:#575757;}
	.st76{fill:#C0C0C0;}
	.st77{fill:#8E8E8E;}
	.st78{fill:#676767;}
	.st79{fill:#8D8D8D;}
	.st80{fill:#BDBDBD;}
	.st81{fill:#ADADAD;}
	.st82{fill:#7B7B7B;}
	.st83{fill:#A7A7A7;}
	.st84{fill:#747474;}
	.st85{fill:#757575;}
	.st86{fill:#848484;}
	.st87{fill:#878787;}
	.st88{fill:#858585;}
	.st89{fill:#C8C8C8;}
	.st90{fill:#E7E7E7;}
	.st91{fill:#2D2D2D;}
	.st92{fill:#4D4D4D;}
	.st93{fill:#555555;}
	.st94{fill:#2B2B2B;}
	.st95{fill:#404040;}
	.st96{fill:#525252;}
	.st97{fill:#5F5F5F;}
	.st98{fill:#6E6E6E;}
	.st99{fill:#767676;}
	.st100{fill:#545454;}
	.st101{fill:#656565;}
	.st102{fill:#727272;}
	.st103{fill:#C6C6C6;}
	.st104{fill:#636363;}
	.st105{fill:#535353;}
	.st106{fill:#717171;}
	.st107{fill:#E5E5E5;}
	.st108{fill:#6D6D6D;}
	.st109{fill:#CCCCCC;}
	.st110{fill:#3B3B3B;}
	.st111{fill:#D2D2D2;}
	.st112{fill:#BEBEBE;}
	.st113{fill:#D1D1D1;}
	.st114{fill:#CFCFCF;}
	.st115{fill:#7F7F7F;}
	.st116{fill:#5D5D5D;}
	.st117{fill:#5E5E5E;}
	.st118{fill:#9C9C9C;}
	.st119{fill:#6A6A6A;}
	.st120{fill:#D3D3D3;}
	.st121{fill:#424242;}
	.st122{fill:#7E7E7E;}
</style>
<g>
	<g>
		<path class="st0" d="M638.5,33.8c0,85.1,0,170.1,0.1,255.2c0,2.6-0.4,3.4-3.2,3.4c-187-0.1-374.1-0.1-561.1,0
			c-2.6,0-3.1-0.5-3.1-3.1c0.1-90.7,0.1-181.4,0-272.1c0-2.8,0.4-3.6,3.4-3.6c186.8,0.1,373.6,0.1,560.4,0c3.1,0,4.2,0.6,3.6,3.7
			c-0.2,1.4,0,2.9,0,4.3c-1,0.9-2.8,0.4-3.3,2c-0.2,0.3-0.5,0.5-0.7,0.6c-0.3,0.1-0.6,0.1-1,0.1c-0.5-0.1-0.9-0.4-1.3-0.7
			c-0.5-0.4-1.1-0.5-1.8-0.5c-11.9,2.7-23.7,6.2-35.5,9.3c-25.5,6.7-51,13.6-76.5,20.5C479.6,63.4,440.8,73.8,402,84.2
			c-31.1,8.3-62.1,16.7-93.1,24.9c-12.6,3.4-25.3,6.8-37.9,10.2c-3.1,0.9-6.1,2.2-9,3.6c-6.5,3.2-10.5,8.2-11.4,15.5
			c-0.2,1.9-0.5,3.8-1.3,5.6c-0.6,1.8-1.9,2.7-3.6,3.1c-5.2,1.4-10.2,3.2-15.5,4.3c-1.5,0.3-2.7,0.9-3.6,2.1c-0.7,1-1.6,1.8-1.4,3.2
			c0.1,0.8,0.4,1.5,0.7,2.2c0,3.7,1.5,5.2,5,4.4c3.6-0.8,7.2-1.7,10.7-2.9c1.5-0.5,1.9-1.1,1.7-2.5c-0.6-2,0.5-3.6,1.4-5.2
			c0.3-0.3,0.6-0.4,1-0.5c0.4,0.1,0.7,0.3,1,0.6c0.7,1.7,0.3,3.5,0.5,5.2c0,1.7,0.2,3.3-0.3,5c-0.6,3.4,0,4.2,3,3.5
			c2.9-0.6,5.8-1.1,8-3.4c1.9-1.9,2.6-0.4,2.8,1.4c0.2,3.7-0.6,7.2-1.7,10.7c-0.4,0.5-0.9,1-1.5,0.7c-4.2-2.4-7.8,0.4-11.6,1.2
			c-1.1,0.2-1.4,1.2-1.4,2.2c0.1,1.1-0.3,2-0.7,3c-0.1,0.7-0.3,1.3-0.4,2c-0.2,1.2-0.4,2.4-0.4,3.6c0.3,1.5-0.7,2.7-0.7,4.2
			c0,0.4,0,0.7,0.1,1.1c-0.6,1.6-0.8,3.3-0.5,5c-1.4,4.5-1.3,9.2-2,13.8c-1.1,6.4-2.7,12.5-8.6,16.2c-3,1.9-6.3,3-9.6,3.9
			c-11.2,2.9-22.4,6.1-33.7,9c-2.9,0.7-5.5,1.8-6.2,5.2c-0.1,0.7-0.2,1.4-0.2,2.2c0.6,5.3,1.2,5.4,6.3,4.5c13-2.2,25.2-7.3,38-10.1
			c0.7-0.2,1.4-0.5,2.1-0.6c2.7-0.5,3.2,0.2,2.6,3.1c0.5,2.6-0.3,3.8-3.1,4.4c-3.4,0.7-6.8,1.8-10.2,2.7c-2,0.5-3.3,1.7-3.9,4.5
			c0.6-2.8,1.9-3.9,4-4.5c3.2-0.8,6.3-1.9,9.6-2.5c2.9-0.6,4.5-1.9,3.7-5.1c0.4-3.4,3.2-3.7,5.6-4.7c1.2-0.5,2.5-0.9,3.8-1.1
			c7.4-1.8,12.8-6.2,16.7-12.7c3.3-5.5,4.6-11.6,5.7-17.9c1.7-10.2,2.2-20.7,4.3-30.8c1.3-6.3,1.9-12.7,2.8-19.1
			c0.5-3.2,2.5-5,5.6-5.8c6.8-1.7,13.6-3.6,20.3-5.7c4.9-1.6,7.3-5.3,6.4-10.1c-0.3-1.9-1-4-3.7-2.3c-0.4,0.3-0.8,0.7-1.3,0.9
			c-0.9,0.3-1.6-0.1-2.3-0.6c-0.4-0.2-0.9-0.3-1.3-0.3c-2.3,0.5-4.4,1.8-6.9,1.8c-5,0.4-9.4,3.1-14.3,3.4c-1.5,0.1-2.8,0.8-4.2,1.1
			c-1.6,0.4-3.1,0.5-3.4-1.7c0.8-2.5,3.6-1.3,5-2.8c0.5-0.5,1-1,1.5-1.4c0.5-0.2,1-0.4,1.4-0.6c0.7-0.3,1.3-0.7,1.9-1.1
			c5.5-3.6,11.5-5.6,18-6.7c4.3-0.7,8.5-2.5,12.8-3.6c15.3-4,30.5-8.1,45.8-12.1c12.4-3.3,24.6-7,37-10.2
			c15.4-3.9,30.8-8.3,46.2-12.3c16.3-4.3,32.6-8.8,48.9-13.1c14.9-3.9,29.8-8.1,44.8-11.9c8.1-2.1,16.2-4.2,24.2-6.6
			c7.6-2.3,15.4-4.1,23.2-6.1c10.4-2.6,20.7-5.5,31-8.3c9.4-2.6,18.9-5,28.2-7.9C635.6,34.4,636.7,32.6,638.5,33.8z"/>
		<path class="st1" d="M248.1,143.8c0.8-13.9,5.6-20.9,19.1-25c16.7-5.1,33.7-9.4,50.6-13.9c103-27.6,205.9-55.2,308.9-82.8
			c1.7-0.5,3.5-0.8,5.3-1.1c1.1,5.6,0.6,6.5-4.7,7.9c-31.6,8.5-63.3,16.9-94.9,25.4c-42,11.3-84.1,22.5-126.1,33.8
			c-34.7,9.3-69.5,18.6-104.2,28c-8.8,2.4-17.7,4.4-26.4,7.2c-4.6,1.3-7.7,4.1-9.3,8.6c-1.1,2.4-1,5.1-2,7.5
			c0.2,1.7-0.9,2.6-2.3,3.1c-4,1.4-8.2,2.2-12.3,3.3C248.5,146.1,247.6,145.5,248.1,143.8z"/>
		<path class="st2" d="M633.4,22.3c0.1,0.4,0.1,0.9,0.2,1.3c3.3,5,2.3,7.9-3.6,9.5c-25.4,7.1-50.9,13.7-76.3,20.6
			C526.9,61,500.1,68,473.4,75.3c-6.1,1.7-12.3,3.2-18.4,4.9c-11.5,2.8-22.9,6.1-34.4,9.1c-24.2,6.4-48.3,13-72.5,19.4
			c-13.3,3.5-26.5,7.4-39.9,10.4c-10.2,2.1-20.4,4.6-30.2,8.1c-1.1,0.4-2.1,1.1-3.4,0.8c-1.6-1.4-0.4-2.1,0.7-2.7
			c-3.1,1.7-3.1,1.7-4.3-0.3c1.2-1.6,3-2.1,4.7-2.6c17.4-4.7,34.8-9.3,52.2-14c23.3-6.3,46.5-12.5,69.8-18.7
			c35.8-9.6,71.7-19.2,107.5-28.8c24.9-6.7,49.8-13.4,74.7-20c16.1-4.3,32.2-8.7,48.4-12.9c2.2-0.6,3.7-1.5,3.7-4
			C632,23.1,632.2,22.2,633.4,22.3z"/>
		<path class="st1" d="M180.5,246.9c-0.3-4.3,1.7-6.2,5.9-7.2c11.7-2.8,23.3-6.1,35-9.2c11.7-3.1,15.1-7.1,16.7-19
			c0.6-4.5,1.4-9,2.2-13.4c3.5-0.8,6.9-1.5,10.4-2.1c3.3-0.6,4.2,0.4,5,4.4c0.3,2.2-0.6,4.2-0.7,6.3c-0.5,4.4-1.6,8.6-3.5,12.6
			c-3.7,6.7-9,11.4-16.2,14c-9,3.3-18.4,5.2-27.6,7.7c-7.5,2.1-15,4.2-22.5,6C183.7,247.2,182.1,248,180.5,246.9z"/>
		<path class="st3" d="M633.4,22.3c-0.7,4.7-3.9,6.1-8.2,7.3C510,60.3,394.9,91.2,279.8,122.1c-1.4,0.4-2.8,0.7-4.2,1
			c-0.3-0.2-0.8-0.2-0.8-0.8c9.9-3.4,20.1-5.7,30.1-8.4C404,87.2,503.2,60.7,602.4,34.1c7.5-2,15-4.3,22.6-5.9c4.3-0.9,7-2.6,7-7.3
			C632.8,21,633.2,21.6,633.4,22.3z"/>
		<path class="st4" d="M187.7,170.3c0.3,1.1,0.5,2.1,0.8,3.2c-1.9,1.5-4.3,1.7-6.5,2.2c-10.9,2.7-21.7,5.9-32.6,8.7
			c-4.4,1.1-6.6,3.7-7.3,8.1c-1.8,12-3.4,24.1-5.1,36.1c-1.1,7.7-7.2,12.6-15.1,12.1c-2.1-0.1-4-0.9-4.5-3.4c-0.2-1.6,0.8-2,2.1-2.4
			c1.8-0.6,3.7-1.1,5.5-1.5c2.6-0.6,4.6-1.9,5.6-4.5c1.2-3.1,0.2-6.4,1.4-9.5c0.4-1.3,0.7-2.7,0.9-4c1.8-8.1,2.8-16.3,3.5-24.5
			c-0.3-3.1,0.9-6,1.6-9c0.4-1.3,1.6-1.7,2.7-2c12.8-3.6,25.7-7,38.6-10.3c0.5-0.1,0.9-0.1,1.4-0.1c1.3-0.1,2.5-0.4,3.7-1
			c1.3-0.7,2.5-0.6,3.4,0.7C187.8,169.6,187.8,169.9,187.7,170.3z"/>
		<path class="st5" d="M586.5,54.7c6.9-2.2,13.9-4.1,21-5.6c4-0.5,8.1-1,12.2-0.7c1.8,0.2,3.4,0.6,4.5,2.1c-0.7,0.7-1.6,0.7-2.6,0.9
			c-7.2,1.3-14.3,2.9-20.9,6.2c-6.6,2.2-13.3,3.8-20.1,5.5c-3.2-0.2-6.2,0.9-9.3,1.6c-6.3,1.6-12.5,3.2-18.8,4.9
			c-1.2,0.3-2.2,0.9-3.1,1.7c-5.1,1.5-10.1,3.2-15.3,4c-4.5,0.4-8.8,1.9-13.2,3.1c-1.7,0.5-3.6,1.8-5.2-0.3c-0.6-3,0.8-4.4,3.6-4.9
			c2.4-0.5,4.9-1,7.2-1.9c8.7-2.3,17.3-4.7,25.9-6.8c0.8-0.2,1.7-0.3,2.2-1.1c4.1-1.5,8.3-2.5,12.5-3.4
			C573.8,58.6,580.4,57.5,586.5,54.7z"/>
		<path class="st6" d="M562.2,67.7c-0.3,2.2-0.5,4.4-1.5,6.5c-2.5,1.6-5.4,1.6-8.1,2.4c-3.7,1-7.4,2.1-11.2,3.1
			c-3,0.7-5,2.7-5.6,5.9c-1.3,6.3-2,12.8-2.9,19.1c-1,7.2-2,14.4-3.1,21.5c-0.7,4.3-3.3,6.8-7.4,7.9c-2.1,0.6-4.2,1.2-6.4,1.7
			c-4,1-5.4,0.2-6.7-3.6c-0.4-1.2,0.1-1.9,1.2-2.1c1.2-0.3,2.3-0.6,3.5-0.8c4.2-0.7,7.7-2.4,9.4-6.6c0.7-2.8,1.5-5.6,1.6-8.5
			c1.2-8.2,3.3-16.3,3.5-24.7c-0.1-4.6,1.6-8.8,2.5-13.2c1.2-1.8,3.2-1.3,4.9-1.7c7.6-1.9,15-4.5,22.5-6.6c1-0.3,2-0.8,3.1-0.5
			C561.9,67.5,562,67.6,562.2,67.7z"/>
		<path class="st7" d="M272.7,136c0.4-4.8,4-6.7,7.8-7.9c7.6-2.3,15.3-4.2,22.9-6.2c20.4-5.5,40.7-10.9,61.1-16.4
			c26.7-7.2,53.4-14.3,80.2-21.5c23.6-6.3,47.2-12.7,70.8-19c1.8-0.5,3.8-0.7,5.6-1.1c0.7-0.5,1.4-0.5,2.2,0
			c-8.8,3.5-18.2,5.2-27.3,7.8c-23,6.4-46,12.5-69.1,18.6c-21.9,5.8-43.8,11.5-65.7,17.4c-20.1,5.4-40.2,11-60.4,16.4
			c-6,1.6-12.1,3.1-18.1,4.8c-3.6,1-7.2,2.2-8.6,6.3C273.7,135.6,273.2,135.8,272.7,136z"/>
		<path class="st2" d="M101.3,187.2c3.3-0.5,4.7,0.7,4.2,4.2c-2.4,16.7-4.8,33.4-7.3,50.1c-0.6,4-3,6.4-6.7,7.6
			c-2,0.7-4.2,1.2-6.3,1.7c-2.9,0.7-5.8,1.1-7.1-2.7c-0.1-0.3-0.8-0.3-1.3-0.5c-0.2-1.9,1.4-1.6,2.4-2c2.9-0.9,5.8-1.6,8.7-2.3
			c3.1-0.7,4.5-2.5,4.5-5.5c1.5-4.6,0.9-9.5,1.9-14.2c2.5-6.9,2.5-14.3,3.7-21.5c0.1-0.8-0.3-1.6-0.5-2.4c-0.1-0.6-0.1-1.2,0-1.8
			c0.6-2.7,1-5.6,1.8-8.3C99.6,188.6,99.6,187.1,101.3,187.2z"/>
		<path class="st8" d="M398.7,111.6c-0.7-0.6-2.1-0.9-1.7-2c0.5-1.2,1.8-0.8,2.9-0.5c3.9,1.1,7.1,5.5,7.5,9.7
			c0.5,6.1-1.1,11.9-1.8,17.8c-1.2,9.1-2.7,18.2-4,27.4c-0.5,3.6-2.8,5.7-5.9,7.1c-3.4,1.6-7.1,2.2-10.7,3.2
			c-16.6,4.5-33.3,8.9-50,13.4c-6.9,1.9-13.6,2.8-20.3-0.6c-2.4-1.2-4.6-2.7-5.7-5.2c-0.5-1.3-1.9-2.7-0.9-3.9s2.3,0.6,3.6,0.6
			c0.3-0.1,0.6,0,0.9,0.3c-0.3,3.3,2.2,4.3,4.5,5.4c5,2.4,10,1.8,15.1,0.5c19.9-5.2,39.8-10.6,59.7-16c4.1-1.1,6.5-3.4,7.1-7.9
			c1.5-11.4,3.2-22.8,4.9-34.1c0.3-2.1,0.5-4.3,0.3-6.5c-0.3-2.7-1.2-5.2-3.9-6.5C399.2,113.3,399.2,112.3,398.7,111.6z"/>
		<path class="st9" d="M205,162.7c5.8-2.1,10.7,3.1,9.8,10.4c-1.4,10.5-2.9,21.1-4.4,31.6c-0.6,4.3-0.7,8.6-2.5,12.6
			c-0.7,1.6-1.7,2.9-3.3,3.7c-4.4,2-8.9,3.6-13.8,3.6c-4.6,0-6.1-1.5-6-5.8c0-1.3,0.9-1.5,1.9-1.7c1.1-0.1,2.3-0.2,3.1,0.6
			c1.5,1.6,3.3,1.2,5,0.8c7.3-1.4,8.7-2.7,9.7-9.8c1.7-11.7,3.4-23.5,5-35.2c0.4-2.6-0.4-4.7-2.3-6.4
			C206.6,165.6,204.2,165,205,162.7z"/>
		<path class="st10" d="M606.9,56.9c0.7,1,1.5,1.9,2.2,2.9c-0.1,0.6-0.4,1.1-1,1.5c-5.3,0.8-10.5,2.6-15.7,3.6
			c-5.3,1.1-8.2,4.1-9,9.7c-1.7,11.3-3.3,22.7-5,34c-0.4,2.6-0.6,5.3-1.9,7.6c-1.9,3.2-10.3,6.1-13.9,5c-1.4-0.4-2.1-1.4-2.4-2.8
			c0-1.6,1.1-1.9,2.3-2.2c1.9-0.5,3.9-1,5.8-1.7c2.5-1,3.7-3.1,4.4-5.6c1-3,0.3-6.3,1.4-9.2c1.7-7.9,3.2-15.8,3.7-23.9
			c0.7-3.1,1-6.3,1.4-9.5c-0.3-2.5,1.1-3.6,3.3-4.2c6.6-1.8,13.3-3.4,19.9-5.4C603.8,56.7,605.4,55.9,606.9,56.9z"/>
		<path class="st2" d="M308.8,173.6c-0.1-1.1-0.2-2.1,0.5-3.1c3.9,0.8,7.3-1.3,11-1.8c0.9-0.1,2-0.7,1.9-2.1
			c-0.1-0.5-0.1-1.1,0.1-1.6c0.3-0.8,0.7-1.7,1.3-2.3c0.8-0.6,1.8-0.8,2-2.2c0.8-6.1,2.3-12.2,2.2-18.4c-0.1-4.3,1.6-8.3,2.3-12.4
			c0.2-0.4,0.5-0.6,0.8-0.9c12.3-3.3,24.5-6.5,36.8-9.9c2-0.5,3.9-1.1,6-1.2c0.4,0,0.8,0,1.2,0.1c1.6,0.8,4.6-0.1,4.6,2.4
			c0,2.6-3,2.2-4.8,2.7c-10.1,2.7-20,5.7-30.2,8c-8,1.8-9.6,3.1-11.2,11.3c-1.4,6.9-2.1,14-3.2,20.9c-0.3,2-0.4,4.1-2,5.6
			c-0.9,0.5-1.1,1.5-1.7,2.3c-0.8,1.6-2.3,2-3.7,2.4c-2.5,0.7-5.1,1.2-7.5,2.1C312.4,176.7,310.3,176.1,308.8,173.6z"/>
		<path class="st11" d="M425.3,99.8c-0.2-1.8,1-2.4,2.5-2.8c3.5-0.9,7.1-1.8,10.6-2.7c3.1-0.4,6.3-0.6,9.1-2.4
			c10-3.1,20.1-5.8,30.3-8.1c4-0.9,8.1-0.6,11.7,1.8c0.3,1.4-0.7,1.5-1.7,1.7c-9.4,1.5-18.3,4.9-27.5,7.1c-0.8,0.2-1.5,0.8-2.1,1.3
			c-4.8,1.6-9.6,3.4-14.8,3.3c-1.2,0-1.9,0.8-2.8,1.2c-4.1,0.2-8,1.6-11.9,2.7C425.4,103.9,424.9,103.4,425.3,99.8z"/>
		<path class="st5" d="M341.1,121.1c0.2,0,0.5,0,0.7-0.1c4.8-0.2,9.1-2.2,13.6-3.8c5.4-1.7,10.9-2.6,16.3-4.4
			c2.6-1.2,5.7-0.9,8.2-2.7c4.8-1.9,9.7-2.1,14.4,0.1c0.2,2.4-1.8,2.3-3.2,2.7c-5.8,1.5-11.3,3.9-17.2,4.5c-2.6,0.3-5.1,1-7.5,2.3
			c-9.3,2.7-18.6,5.1-28,7.6c-6.3,0.6-12.1,2.9-18.1,4.4c-1.7,0.4-3.4,1.3-4.8-0.6c-0.5-2.3,0.7-3.4,2.7-3.8
			c7-1.5,13.6-4.2,20.7-5.1C339.9,122.2,340.5,121.6,341.1,121.1z"/>
		<path class="st11" d="M199.9,160.7c1.4,0,2.5,0.6,3.6,1.4c0.2,1.9-1.3,1.6-2.4,1.9c-9.3,2.4-18.7,4.9-28,7.3
			c-0.9,0.2-1.8,0.6-2.6,1.2c-7.6,2.1-15.2,4.2-22.9,6.2c-7.6,0.9-14.7,3.9-22.2,5.7c-1.3,0.3-1.8,2.5-3.5,1.5
			c-0.2-0.7-0.3-1.5,0.1-2.2c0.1-1.5-0.1-3,0.8-4.3c2.4,0.1,4.5-1.2,6.8-1.3c9.4-2.4,18.8-5.1,28.2-7.6s18.8-4.7,28.2-7.4
			c1.4-0.4,2.7-0.8,4.1-1.3C193.3,160.1,196.6,160.7,199.9,160.7z"/>
		<path class="st12" d="M187.8,176.4c-0.2,1.4-1.1,1.8-2.4,2.2c-11.7,3-23.4,6-35,9.1c-3.1,0.8-4.7,3-5,6.2c-1.3,13.1-3.8,26-5.6,39
			c-0.6,4.3-2.9,7.1-6.8,8.5c-4.1,1.5-8.4,2.8-12.8,3.3c-2.5,0.3-4.4-0.8-5.9-2.7c-1.2-1.6-1.1-2.8,0.9-3.6
			c5.2,3.2,10.4,2.4,15.7,0.2c3.1-1.3,5.1-3.7,5.7-6.9c1.5-8.2,2.6-16.5,3.6-24.8c0.7-5.3,1.4-10.6,2.4-15.8
			c0.6-3.3,3.1-5.3,6.3-6.3c6.4-2.1,12.9-3.4,19.4-5.3c4.7-1.4,9.5-2.5,14.2-3.6C184.2,175.3,186.1,174.8,187.8,176.4z"/>
		<path class="st13" d="M634.1,23.7c3.4,3.3,2.6,7-2.1,8.7c-4.4,1.6-9,2.6-13.5,3.8c-24.3,6.5-48.7,12.9-73,19.4
			c-28.3,7.6-56.5,15.2-84.7,22.9c-2,0.5-4,0.9-5.9,1.4c-0.3-0.2-0.3-0.3-0.3-0.5c0.1-0.2,0.2-0.2,0.3-0.2c6.4-2.7,13.3-3.9,20-5.7
			c30.7-8.4,61.5-16.6,92.3-24.9c20-5.4,40-10.7,60-16.1c7.1-1.9,7.1-1.9,6.4-8.9C633.7,23.7,633.9,23.7,634.1,23.7z"/>
		<path class="st14" d="M296.5,133.9c0.4-1.3,1.1-2.2,2.6-1.8c1.9,0.5,3,1.9,3.6,3.7c1.6,5.2-1,10.5-6.5,12.3
			c-6.3,2.1-12.7,3.7-19,5.4c-5.4,1.5-5.9,2.1-6.7,7.8c-2.4,17.2-4.8,34.4-7.5,51.6c-1.8,11.2-7.2,20.2-17.6,25.8
			c-1.6,0.9-3.2,1.5-5.1,1.7c-0.4-0.8-0.2-1.5,0.3-2.2c2.2-1.8,4.8-3.2,7.1-4.8c4.7-3.1,7.7-7.5,9.7-12.6c2.7-6.6,3.5-13.6,4.5-20.6
			c1.6-11.1,3.4-22.2,4.6-33.4c0-1.5,0-3,0.1-4.5c0.2-1.2,0.9-2.2,1.1-3.4c0.7-4.6,3.8-6.9,8-8.1c5.5-1.5,11.1-2.9,16.5-4.5
			c1.4-0.4,2.7-0.9,3.9-1.7C299.8,142.3,301,137.2,296.5,133.9z"/>
		<path class="st11" d="M286.2,135.2c2.4-1,4.9-1.7,7.4-2c1.6,1.5,1.1,3.2,0.7,5c-2.6,2-6,1.7-8.9,3.2c-6,1.5-12.2,2.2-17.7,5.2
			c-1.1,0.6-2.2,1.4-3.3,2.1c-0.6,0.3-1.2,0.6-1.9,0.6c-1.3-0.6-2.5-0.9-4.1-0.4c-4.3,1.4-8.8,2.4-13.1,3.8l0,0
			c-0.3,0.3-0.6,0.5-0.9,0.6c-5.6,1.3-11,3-16.6,4.3c-1.4,0.3-2.8,0.9-3.9-0.6c-0.1-1.6-0.1-3.2,0.5-4.7c13-3.1,25.8-6.5,38.6-10.3
			c3.4-1,6.9-1.3,10.2-2.6C277.4,137.8,282,137.2,286.2,135.2z"/>
		<path class="st15" d="M509.5,131.7c4.5,5.2,9.5,2.1,14.2,0.6c3.4-1.1,4.7-4.1,5.2-7.5c1.7-11.9,3.5-23.9,5.1-35.8
			c1-7.3,2.6-9.3,9.6-11c5.7-1.4,11.1-3.9,17.1-3.7c-0.2,0.9-0.7,1.6-1.4,2.1c-0.8,0.9-1.8,1.3-2.9,1.7c-4.7,0.8-9.3,2-13.8,3.5
			c-3.1,1-5.2,2.8-5.4,6.6c-0.2,4.4-1.1,8.7-1.7,13c-0.9,8.5-2.5,16.8-3.5,25.3c-0.7,5.4-4.1,8.4-8.9,9.7c-3.5,1-6.9,2.4-10.7,2.3
			c-3.5-0.1-5.2-1.7-5-5.2c0.8-0.4,0.2-0.6-0.2-0.8C507.7,131,508.5,131.1,509.5,131.7z"/>
		<path class="st12" d="M628.4,51.8c-1-1.1-3.7-1.8-2.4-3.6c1.1-1.6,3,0,4.4,1c4.6,3.1,6.1,7.7,5.4,12.8
			c-1.7,13.2-3.7,26.3-5.6,39.4c-0.7,5-3.7,7.9-8.4,9.1c-3.3,0.9-6.6,2.2-10.1,2.5c-5.6,0.4-7.6-1.9-7.2-7.9c1.2-0.1,2.3,0.1,3.2,1
			c1.8,2.8,4.1,3.4,7.3,2.4c3.4-1,7-1.1,9.6-4.1c1-1.2,2-2.4,2.2-3.9c1.6-13.3,4.3-26.5,5.4-39.8C632.6,56.9,631.1,54.2,628.4,51.8z
			"/>
		<path class="st14" d="M474.3,100.1c-0.6,1.4-2,1.7-3.3,1.9c-6.4,0.9-12.4,3.5-18.7,4.8c-3.2,0.6-4,3.1-4.4,5.8
			c-1,7.5-2,14.9-3.1,22.4c-0.7,5.3-1.6,10.6-2.3,15.9c-0.7,5.5-3.6,8.9-9,10.3c-3.1,0.8-6.2,1.8-9.4,2.2c-6.1,0.8-8.1-1.4-7.6-7.8
			c1.2-0.1,2.4-0.7,3.5,0.3c0.3,0.3,0.5,0.7,0.6,1c1,3,2.6,4,5.9,3.1c2.9-0.8,5.8-1.6,8.4-2.9c4.2-2.1,4.5-6.3,5-10.1
			c1.5-11.8,3.7-23.6,5.1-35.4c0.5-4.3,3.1-7,7-8.1c5.3-1.5,10.7-2.7,15.9-4.1C470.1,98.8,472.4,98.3,474.3,100.1z"/>
		<path class="st16" d="M117.8,236.7c5,4.8,15.8,1.9,17.2-5c1.9-9.9,3.1-19.9,4.6-29.8c0.6-3.7,1.1-7.4,1.6-11
			c0.6-3.8,2.7-6.3,6.5-7.3c12-3.2,24.1-6.4,36.1-9.6c1.5-0.4,3.1-0.4,4.6-0.5c-0.2,0.7-0.5,1.5-0.7,2.2c-13.4,2-26.1,6.7-39.2,9.8
			c-4.4,1-5.3,4.7-5.8,8.5c-1.5,12.6-3.7,25-5.3,37.6c-0.5,3.8-2.8,6.4-6.2,7.7c-3.3,1.3-6.8,2.2-10.4,2.5c-2.3,0.2-4.6-0.2-4.4-3.5
			c-0.5-0.3-1-0.5-1.5-0.8C115.4,235.7,116.5,235.9,117.8,236.7z"/>
		<path class="st1" d="M87,168.4c-1.3-3.7-1.1-7.1,2.1-9.8s6.6-2,10-0.1c1.2,0.2,2.4,0.6,3.3,1.5c1,0.6,1.5,1.5,1.5,2.7
			c0,0.7,0.1,1.4,0,2.1c-1.8,3.1-4.5,5.5-6.3,8.6c-0.2,0.3-0.4,0.6-0.7,0.8c-1.3,0.6-2.6,0.4-3.9,0.4c-1.5,0.2-2.6-0.4-3.5-1.5
			C87.9,171.9,87.2,170.3,87,168.4z"/>
		<path class="st12" d="M608.2,63.4c-0.2,1.9-1.7,2.1-3.1,2.4c-4.1,1-8.1,2-12.2,3.1c-3.5,0.9-5.3,2.8-5.8,6.7
			c-1.7,13.2-3.7,26.3-5.7,39.4c-0.5,3.2-2.3,5.8-5.3,7.3c-4.2,2.1-8.8,3-13.4,4c-1.8,0.4-3.9-0.1-5.5-1.3c-1.7-1.3-2.7-2.9-0.3-4.6
			c5.9,4,11.5,1.6,17-0.8c2.8-1.2,3.8-3.8,4.3-6.7c1.9-10.9,3.2-21.8,4.9-32.7c0.5-3.3,0.6-6.7,1.8-9.9c4.8-5.2,11.5-5.7,17.8-7.1
			C604.6,62.7,606.6,61.3,608.2,63.4z"/>
		<path class="st17" d="M628.4,51.8c1.8-1.4,2.2,0.5,2.9,1.3c2.9,3.5,2.5,7.7,2,11.7c-1.5,11.6-3.3,23.2-5,34.8
			c-0.7,4.5-3.3,7.6-7.8,9c-3,0.9-6,1.6-9.2,1.6c-2.7,0-4.4-1-4.6-3.9c-0.5-2.4,1.3-2,2.7-2.2c3.7,4.2,7.8,1.3,11.5,0.2
			c3-0.9,3.8-4,4.2-6.9c1.4-11.3,3-22.7,4.8-33.9c0.4-2.3,0.5-4.8-1.2-6.9c-0.9-1.1-1.4-2.5-0.2-3.9
			C628.4,52.4,628.4,52.1,628.4,51.8z"/>
		<path class="st18" d="M398.7,111.6c5.5,1.9,7.7,5.8,6.8,11.8c-1.8,12.7-3.6,25.3-5.4,38c-0.6,4.1-2.6,7.2-6.5,8.2
			c-21.4,5.8-42.8,11.5-64.2,17c-4.6,1.2-9.3,1.1-13.5-1.6c0.3-0.5,0.8-0.8,1.4-0.9c8.4,2.7,16.1-0.8,23.8-2.9
			c16.1-4.3,32.1-8.7,48.2-13.1c4.9-1.4,7.9-4.3,8.6-9.4c1.6-11.9,3.5-23.7,5-35.6c0.4-2.8-0.2-5.3-2.9-6.8c-0.8-0.7-2-1.1-1.4-2.5
			C398.7,113,398.7,112.3,398.7,111.6z"/>
		<path class="st19" d="M474.3,100.1c-8.2,0-15.7,3.3-23.4,5.2c-2.5,0.6-4.1,2.9-4.5,5.6c-1.7,11.7-3.7,23.5-5.1,35.2
			c-1.3,10.5-9.2,16.8-19.7,15.1c-2.8-0.5-3.5-1.9-2-4.3c5.2,2.8,9.8,0.2,14.4-1.8c0.3-0.2,0.6-0.4,0.9-0.7c1.9-1.7,2.7-3.9,3.1-6.3
			c2.1-12.5,3.7-25,5.6-37.6c0.7-4.6,3-7.2,7.5-8.5c7.3-2.1,14.9-3.6,22-6.3c0.7-0.4,1.4-0.7,2.2-0.2c0.7,1.3,0.6,2.7,0.5,4.1
			C475.7,102.6,474.6,98.6,474.3,100.1z"/>
		<path class="st20" d="M267.7,162c0,1.7,0,3.4,0,5c-1.8,9.4-2.8,18.9-4.3,28.3c-1.3,8.4-1.9,16.9-4.7,25c-1.1,3.1-2.3,6.3-5.3,8.1
			c-0.6-0.3-0.9-0.8-1-1.4c0.1-2.7,2.1-4.5,2.9-6.9c2.9-8.1,3.4-16.6,4.8-25c2.1-12.5,3.6-25.1,5.6-37.7c0.8-4.8,3.6-7.3,8-8.5
			c6.1-1.7,12.3-3.2,18.3-5.1c1.9-0.6,4.3-1.2,2.4-4.1c-0.2-0.6-0.1-1.2-0.1-1.8c0.5-1.6-1-3.8,1.4-4.9c0.3,0.7,0.5,1.5,0.8,2.2
			c1.6-1.1,2.6,0.1,3.2,1.3c0.9,2,0.9,4.2-0.2,6.2c-1.3,2.4-3.6,3.5-6.1,4.1c-6.3,1.5-12.4,3.7-18.7,5.1c-3.4,0.8-5.4,2.8-6,6.3
			C268.4,159.5,268.6,160.9,267.7,162z"/>
		<path class="st4" d="M628.4,52.6c4.9,6.6,2,13.7,1.2,20.7c-1,8.2-2.3,16.4-3.5,24.5c-0.8,6-8.2,11.2-14.1,10
			c-1.6-0.3-1.9-1.7-2.5-2.8c0.1-1.6,1.3-1.6,2.5-1.6c1.7,0.1,3.1,1.3,4.9,0.8c2.8-0.8,4.6-2.1,4.6-5.2c0.1-0.7,0.2-1.4,0.7-1.9
			c1.2-0.5,1.5-1.6,1.6-2.7c1.2-9,2.4-18.1,4-27.1c0.4-2-0.4-4-0.6-6c0-1.9,0.2-3.9-1.7-5.2c-1.2-1-2.5-0.5-3.9-0.2
			c-3.8,0.8-7.5,2.1-11.3,3.1c-0.8-0.7-1.5-1.3-2.3-2c-0.3-0.3-0.4-0.7-0.4-1.2c0.1-1,1-1.5,1.7-1.6c4.9-1.2,9.7-3.3,14.9-3.1
			C626.2,50.4,626.8,52.8,628.4,52.6z"/>
		<path class="st14" d="M556.4,77c1-0.2,1.9-0.5,2.9-0.7c-0.2,2-1.7,2.4-3.3,2.8c-4.1,1-8.1,1.9-12.2,3.1c-3.2,0.9-5.2,2.6-5.7,6.4
			c-1.4,12.1-3.3,24.1-5,36.2c-1.1,7.6-4,10.8-11.5,12.7c-2.9,0.7-5.8,1.4-8.8,1.9c-2.4,0.4-4.5-0.4-5.9-2.5
			c-0.9-1.4-1.2-2.6,0.4-3.7c2.4,4.2,4.6,5.2,9.1,3.9c0.3-0.1,0.7-0.3,1-0.4c10.2-1.4,14.3-7.5,14.6-17.5c0.2-6.2,1.7-12.3,2.6-18.4
			c0.6-4.3,1.4-8.5,1.8-12.9c0.3-4,2.3-6.1,6.1-7.1C547.3,79.5,551.9,78.5,556.4,77z"/>
		<path class="st21" d="M492.5,87.8c0-0.2,0.1-0.5,0.1-0.7c0.3-1.2-2.3-1.8-1.1-2.9c1.3-1.2,3.1-0.2,4.3,0.7c5,3.6,6.3,8.8,5.7,14.6
			c-0.5,4.9-2.6,8.6-7.7,10.1c-3.9,1.2-7.6,2.9-11.8,2.7c-3.7-0.1-7.2-3.3-7.5-6.9c0-0.4,0.2-0.7,0.6-0.4c0.3,0.2,0.6,0.4,0.8,0.7
			c0.6-1.5,1.9-1.6,3.2-1.5c0.6,0.2,1.3,0.5,1.3,1.1c-0.1,3.9,2.9,3.3,4.9,2.9c2.9-0.6,5.7-1.6,8.4-2.7c3.2-1.4,4.6-5.6,3.9-11.1
			c-0.3-2.2-1-3.6-3.4-3.5C493.3,90.1,491.5,89.8,492.5,87.8z"/>
		<path class="st22" d="M202.1,257.6c2.5,1.6,2.9,3.9,2.8,6.1c-0.6,9.6-5.1,19-16.1,21.1c-2.7,0.5-5.3,1.4-8,2.1
			c-1.9,0.5-3.5,0.4-5.1-1.7c3.7-1,7.2-2.3,10.7-2.9c11.2-1.9,15.6-12.5,15.6-20.5C202.1,260.5,202.1,259.2,202.1,257.6z"/>
		<path class="st23" d="M522.7,191.6c4.1,0.1,7.7-0.6,11.1-2.1c5.6-2.4,8.6-6.7,9.5-12.6c0.8-5.2,1.5-10.4,2.3-15.7
			c2,1.1,2.4,2.8,2.1,4.8c-0.8,5-1.3,10-2.4,14.9c-1.9,7.9-10.7,13.9-18.8,13.3C525.1,194,523.7,193.7,522.7,191.6z"/>
		<path class="st24" d="M575.8,157.8c1.6,0.4,1.8,1.5,2.1,2.5c2.2,8.9-3.7,20.2-12.3,23.2c-3.8,1.3-7.8,2.2-11.8,3.3
			c-1,0.3-2.3,0.9-2.7-0.6c-0.5-1.7,1.1-1.9,2.2-2.2c2.2-0.6,4.4-1.2,6.6-1.7c10.6-2.8,16-9.9,15.9-20.9
			C575.8,160.1,575.8,159.1,575.8,157.8z"/>
		<path class="st12" d="M87,168.4c1,1.2,1.9,2.4,2.9,3.7c0.9,4.2,5.8,6.7,10.5,5.3c4.9-1.5,8-8.4,5.8-13.2c-1-2.1-2.4-3.5-4.8-3.6
			c-0.8-0.7-1.5-1.4-2.3-2c-0.6-2.4,0.1-3.4,2.6-2.4c8.8,3.4,10.9,13.2,5.7,20c-6,7.8-18.1,5-21.7-2.7C84.5,170.9,86.3,170,87,168.4
			z"/>
		<path class="st6" d="M620.4,146.9c2,0.5,2,2.2,2.2,3.7c1.3,12.6-10.9,24.8-23.6,23.6c-2.1-0.2-2.3-0.3-4-2.4
			C610.5,172.6,619.6,163.8,620.4,146.9z"/>
		<path class="st25" d="M116.5,238.3c0.7,2.7,2.8,3.1,5.1,2.8c3.5-0.4,6.9-1.2,10.1-2.6c3.6-1.5,5-4.6,5.6-8.2
			c1.5-10.3,3.1-20.6,4.5-30.9c2-14.2,1.3-13.1,13.7-16.3c7.8-2,15.4-4.3,23.2-6.4c3-0.8,6.1-1.3,9.2-1.1c0,0.2,0,0.5,0,0.7
			c-8.2,0.4-15.8,3.7-23.7,5.5c-4.5,1-9,2.6-13.5,3.6s-6.6,3.8-7.2,8.2c-1.7,12.5-3.6,24.9-5.2,37.3c-0.5,4-2.5,6.7-5.9,8.4
			c-3.7,1.8-7.7,2.6-11.8,3c-2.8,0.2-4.3-1.7-5.3-4C115.5,238.3,116,238.3,116.5,238.3z"/>
		<path class="st26" d="M475.2,95.7c-0.3,0.5-0.6,1-0.9,1.5c-8.5,1.3-16.7,4.1-25,6.3c-3.3,0.9-4.6,3.6-5,6.8
			c-1.3,8.8-2.5,17.5-3.8,26.3c-0.7,4.6-1.3,9.2-2.1,13.8c-0.4,2.5-1.5,4.5-3.7,5.9l0,0c-3.1,1.3-6.4,1.9-9.6,2.7
			c-2.3,0.6-4.3,0-4.7-2.8c0.1-0.4,0.2-0.8,0.5-1.1c0.6-0.4,1.4-0.7,2-0.3c3.5,1.9,6.5-0.1,9.6-1.1c2.5-0.8,2.9-3.4,3.2-5.5
			c1.3-13,4.4-25.7,5.5-38.7c0.4-4.5,3-7.6,7.2-9c5.4-1.8,11.1-2.9,16.6-4.5c1.4-0.4,2.3-0.8,2.5-2.3c0.2-0.3,0.5-0.6,0.9-0.8
			c1.5-0.1,3.1-1,4.6,0.2C473.7,93.9,474.5,94.8,475.2,95.7z"/>
		<path class="st27" d="M608.2,63.4c-6.4,0.6-12.5,2.6-18.6,4.6c-1.4,0.5-2.5,1.7-3.7,2.6c-1.9,6.5-2,13.3-3.2,20
			c-1.5,8.2-2.2,16.5-3.8,24.7c-0.4,2-1.5,3.7-3.3,4.5c-4.4,2.1-9.1,3.8-14.1,3.7c-2.9,0-3.9-1.7-2.6-4.2c4.4,3.1,8.8,1.3,13.1-0.1
			c5.2-1.6,5.2-6.4,5.8-10.5c1.7-11.1,3.1-22.3,5-33.4c0.2-1.3,0.1-2.6,0.4-3.9c1.3-5.3,5.8-6.1,10.1-7.2c4.9-1.3,9.8-2.5,14.8-3.7
			c0.3-0.2,0.6-0.4,0.9-0.7c1,1.6,0.5,3.3,0.6,5.4C609,64.3,608.6,63.9,608.2,63.4z"/>
		<path class="st23" d="M335.7,242c3-0.1,3.9-1.5,4.2-3.7c0.8-5.8,1.8-11.5,2.5-17.3c0.3-2.3,1.3-3.5,3.5-4.4
			c2.5-0.9,5.8-0.3,7.6-3.3c0.4-0.7,1.1,0.7,1.7,1.1c1.1,0.8,0.3,1.8-0.4,2.4c-1.4,1.2-3.2,1.6-5,1.9c-3.3,0.5-4.6,2.5-4.9,5.6
			c-0.6,5-1.3,9.9-2.1,14.9C341.9,244.4,341.1,244.8,335.7,242z"/>
		<path class="st28" d="M273.5,139.7c-3.4,2.9-7.8,2.9-11.7,4c-9.1,2.6-18.2,5-27.5,6.9c-3,0.6-5.9,1.8-8.8,3
			c-2.1,0.9-0.6-1-1.1-1.2c1.9-1.9,4.6-1.9,6.9-2.6c4.3-1.3,8.7-2.4,13.1-3.6c1.5-0.4,3-0.9,3.7-2.5c0.1,0.2,0.3,0.6,0.4,0.6
			c5.4-1.2,11.4-0.7,15.6-5.3c0.1-0.2,0.3-0.4,0.5-0.4c0.3,0,0.4,0.2,0.5,0.4c0.1,1.8,1.3,1.2,2.2,1c1.6-0.3,3.1-0.7,4.7-1.1
			C272.4,139.5,273.2,139.1,273.5,139.7z"/>
		<path class="st29" d="M292.9,253.6c2.9-0.2,3.8-1.8,3.7-4c-0.3-7.4,3.5-10.5,10.5-11.5c2.6-0.4,5.9-0.2,7.6-3.3
			c0.4-0.8,0.8,0.1,1,0.4c1.4,1.6,1,3-0.7,3.8c-1.5,0.7-3.2,1.3-4.8,1.4c-7,0.7-11.1,3.8-11,11.6
			C299.2,255.7,296.8,256.3,292.9,253.6z"/>
		<path class="st23" d="M595.8,166.3c-2.6-3.6-2-9.1,1.5-13.8c3-4,7.2-6.2,12.1-7c0.8-0.1,1.7-0.1,2.5,0.1c0.9,0.2,2.1,0.4,1.9,1.7
			c-0.2,1-1.3,0.9-2.1,0.9c-5.1,0.1-8.7,3-11.8,6.6c-1.9,2.2-2.8,4.9-3.2,7.9C596.6,164,597,165.4,595.8,166.3z"/>
		<path class="st22" d="M275.6,238.3c-1.1,7.2-2.1,14.3-3.2,21.4c-0.3,1.9-1.4,3.3-3.5,3.6c-1.2,0.2-2.7,0.2-3.1-1.1
			c-0.6-1.7,1.1-1.5,2-1.8c1.5-0.5,1.8-1.7,2-3.1c0.9-6.5,1.9-13,2.9-19.5c0.2-1.1-0.2-2.8,1.7-2.5
			C275.9,235.7,275.5,237.2,275.6,238.3z"/>
		<path class="st6" d="M179.2,279.5c0.8-5.8,1.5-10.8,2.2-15.8c0.3-2.3,1.5-3.6,3.8-4.1c2.9-0.6,5.7-1.9,8.7-1.9
			c1,0,2.1,0.1,2.3,1.3c0.1,1.3-1.1,1.3-2,1.5c-11.5,2.7-9.5,1.1-11.2,12.2c-0.3,2.1-0.8,4.2-1.3,6.3c-0.2,1-0.6,2-1.9,1.7
			C178.8,280.5,179.2,279.5,179.2,279.5z"/>
		<path class="st30" d="M566.3,157.6c1.9,0.2,3.4-0.2,3.6,1.1c0.2,1.4-1.4,1.3-2.4,1.6c-11,3.3-8.9,0.7-10.9,12.4
			c-0.4,2.1-0.7,4.2-1.2,6.4c-0.2,0.8-0.5,1.7-1.7,1.4c-0.9-0.2-1-1-0.9-1.7c0.8-5.4,1.6-10.9,2.5-16.3c0.2-1,0.6-1.9,1.6-2.2
			C560.3,159.2,563.7,158.3,566.3,157.6z"/>
		<path class="st31" d="M170.6,171.4c-0.7-1.7,1-1.2,1.5-1.3c9.1-2.6,18.1-5,27.2-7.5c1.4-0.4,2.8-0.4,4.2-0.6
			c0.5,0.2,0.9,0.5,1.4,0.7c0.5,1.6,2.9,1.6,3,3.5c0.4,0.5,0.4,1,0.2,1.5c-0.9,0.7-1.7,0.1-2.4-0.4c-3.5-1.4-6.4,0.8-9.6,1.4
			c-2.8,0.5-5.5,1.5-8.3,1.1c-2.3-1.1-4.3,1.7-6.6,0.6c-2.5-1.2-4.5,0.6-6.8,0.8C173,171.4,171.9,172.8,170.6,171.4z"/>
		<path class="st32" d="M241,239c-0.2,0.5-0.5,1-0.7,1.4c-3.3,1.5-7.6,1.1-9.4,5.2c-0.2,0.3-0.4,0.3-0.5,0c-0.3-2-1.3-2.3-3.3-1.7
			c-9.5,2.9-19,5.6-28.6,8.2c-4.1,1.1-8.4,1.9-12.6,2.7c-3.4,0.7-5.5-1.6-6.1-6.5c0.4-0.4,1-0.7,1.6-0.8c1.4-0.3,2.3,0.1,2.8,1.5
			c0.7,3.2,3.1,2.9,5.4,2.5c5.5-1.1,10.8-2.9,16.3-4.3c10.7-2.8,21.5-5.5,32.1-8.8C239.1,238.1,240.2,237.6,241,239z"/>
		<path class="st33" d="M385.6,208.1c-1.1,7.2-2.1,14.4-3.2,21.7c-0.3,1.8-1.2,3.1-3,3.7c-1.3,0.5-2.8,0.7-3.5-0.7
			c-0.8-1.7,1-1.5,1.8-1.9c1.5-0.7,1.9-2.1,2.1-3.5c1-6.5,1.9-13,3-19.5c0.1-0.6-1-2.4,1.2-2.1C385.7,206,385.6,207,385.6,208.1z"/>
		<path class="st28" d="M189.9,162c-5.8,2.5-12,4-18.1,5.5c-4.9,1.2-9.7,2.3-14.5,3.7c-8.5,2.4-17.1,4.2-25.4,7.2
			c-0.8,0.3-1.7,0.2-2.5,0.2c-0.3-1.7,2-0.7,2.2-2.1c19-5.1,37.9-10.1,56.9-15.2C188.9,161.8,189.6,161.4,189.9,162z"/>
		<path class="st34" d="M181.1,248.3c-0.4,0-0.9,0.1-1.3,0.1c0.2-0.5,0.4-1,0.6-1.5c18.3-5,36.6-10,54.9-14.9
			c0.8,0.1,1.6,0.1,1.6,1.3c-0.6,1.8-2.2,2.1-3.6,2.5c-15.2,4.1-30.5,8.1-45.7,12.3c-0.9,0.1-1.8,0.6-2.8,0.5
			C183.6,248.4,182.4,247.6,181.1,248.3z"/>
		<path class="st24" d="M416.2,220.6c9.5-1.1,18-3.4,20.2-14.7c2.1,1.6,2,3.4,1.6,5.2c-1.5,6.8-13.6,13.5-20.2,11.2
			C417.1,222,416.6,221.5,416.2,220.6z"/>
		<path class="st30" d="M242.5,247.9c-1,6.9-2.1,13.8-3.1,20.6c-0.2,1.3-0.9,2.5-2.2,3.1c-1.1,0.5-1.7,0.1-2.3-1
			c-0.5-0.9-0.7-1.3,0.5-1.7c1.3-0.4,1.2-1.6,1.4-2.7c0.9-6.3,1.9-12.6,2.8-18.8c0.2-1.1,0.1-2.9,1.6-2.8
			C243.2,244.8,242.2,246.7,242.5,247.9z"/>
		<path class="st24" d="M443.2,213.8c16.7-4.8,18.1-5.8,19.9-15.2c2.5,2.1,2.4,6.1-0.3,9.6C458.6,213.9,448.3,217,443.2,213.8z"/>
		<path class="st6" d="M325.4,220.1c2.6,1.9,2.2,4.2,1.9,6.4c-0.9,6.2-1.8,12.3-2.8,18.5c-0.1,0.9-0.5,1.9-1,2.6
			c-0.6,0.9-1.7,1.7-2.8,1c-1.1-0.7-0.4-1.6,0.1-2.7c2.2-4.6,1.8-9.8,2.8-14.7C324.4,227.7,324.8,224,325.4,220.1z"/>
		<path class="st24" d="M470.8,206.3c1.8-0.4,3.5-0.7,5.2-1.1c6.7-1.5,12.1-4.6,13.9-11.8c0.2-0.6,0-1.7,1-1.6
			c1,0.1,1.2,1.1,1.3,1.9c0.3,2.1-0.3,4.1-1.5,5.8c-4.1,5.9-9.9,8.5-16.9,8.5C472.7,208.1,471.4,208.1,470.8,206.3z"/>
		<path class="st33" d="M390.8,221.9c-0.1-5.4,0.9-6.4,6.1-8c4.1-1.2,8.5-1.3,12.1-4c0.7-0.5,1.8-0.1,2.1,0.7
			c0.7,1.4-0.2,2.4-1.4,2.8c-2.7,0.9-5.5,1.7-8.3,2.4c-4,1-8.3,1.5-8,7.2c0,1-0.9,1-1.5,1C391,224.1,390.8,223.6,390.8,221.9z"/>
		<path class="st35" d="M392.5,209.8c0.5-5.8,0.6-5.8,6.3-7.4c4.2-1.2,8.7-1.6,12.5-4.1c0.7-0.4,1.7-0.3,2.2,0.6
			c0.5,1,0,1.9-0.8,2.5c-1.3,1-2.9,1.1-4.4,1.5c-2.4,0.7-4.8,1.5-7.3,1.9c-3.2,0.5-5.4,1.9-5.9,5.3c-0.2,1.2-0.7,1.8-1.8,1.6
			C392,211.6,392.4,210.6,392.5,209.8z"/>
		<path class="st29" d="M230.3,245.7c0.2,0,0.4,0,0.5,0c2.8,2.7,2.5,4.1-1.3,5.2c-3.4,1-6.9,2-10.4,2.8c-2.6,0.6-4.4,2-4.8,4.7
			c-0.2,1.3-0.7,2.2-2,1.8c-1.3-0.3-0.7-1.5-0.7-2.4c0.1-3.8,1.5-6.2,5.7-6.7c3.4-0.4,6.7-1.8,10-2.6
			C229,248,230.2,247.4,230.3,245.7z"/>
		<path class="st36" d="M366.5,118.9c1.8-2.4,4.7-2.2,7.2-2.7c7-1.5,13.8-3.8,20.6-5.9c1.8,0.6,3.2,1.7,3.9,3.5
			c-2.8,2-6.1,2.5-9.3,3.4c-2.4,0.6-4.8,1.5-7.1,2.6c-1.2,0.4-2.1-0.3-3.1-0.7c-1.4-0.1-2.9,0.4-4.3-0.1l-0.2-0.2
			c-1.5-1.4-2.8,0.1-4.2,0.2C368.8,119,367.6,120.1,366.5,118.9z"/>
		<path class="st24" d="M586.7,150.8c1.9,0.7,2.7,1.5,2.4,3.3C588,161,587,168,585.9,175c-0.2,1.3-0.6,2.6-1.9,3.2
			c-0.9,0.4-1.5,0.2-2.2-0.5c-0.9-1-0.2-1.1,0.4-1.8c2.1-2.5,1.5-5.7,2.1-8.6C585.3,162,585.9,156.5,586.7,150.8z"/>
		<path class="st37" d="M210.1,269.7c0-4.6,1-5.8,5.3-6.9c3.5-0.9,6.9-2.1,10.4-2.7c1.5-0.3,1.7-2.3,3-1.9c0.5,0.1,2,0.6,1.8,1.9
			c-0.2,1.1-1,1.7-1.9,2c-3.2,1-6.4,1.9-9.7,2.8c-3,0.7-5.9,1.3-6.4,5.2c-0.1,0.8-0.9,1.7-1.7,1.6
			C209.7,271.3,210.4,270.1,210.1,269.7z"/>
		<path class="st38" d="M76.9,239.8c0.2-1.4,0.5-2.9,0.7-4.3c3.8-1.9,7.9-2.6,12-3.5c1.2-0.3,2.4,0.1,3.3,0.9
			c0.3,0.3,0.4,0.7,0.4,1.1c0.2,1.7-0.2,3.3-1,4.7c-3.7,2.6-8.1,3.1-12.3,4.1C77.5,243.5,77.3,241.5,76.9,239.8z"/>
		<path class="st39" d="M308.8,173.6c1.6,1,3.2,1.3,5.1,0.6c4-1.5,8.4-1.8,12.1-4.2c1.9-0.5,3.3,0.2,4.3,1.8
			c0.2,1.8-0.2,3.3-2.1,4.1c-4.2,1.7-8.8,2.2-13.1,3.7c-0.8,0.3-1.6-0.2-2.4-0.7c-0.2-0.1-0.3-0.1-0.5-0.2c-0.2-0.1-0.4-0.1-0.6-0.2
			C310.7,176.9,309,175.7,308.8,173.6z"/>
		<path class="st30" d="M187.7,169.9c4.9-3.2,10.8-3.2,16.2-5.1c1.2-0.4,1.9,0.8,2.6,1.5c0.4,1.5,1.6,2.9,0.2,4.5
			c-0.5,0.4-1,0.5-1.6,0.4c-3.6-0.4-6.9,1.2-10.4,1.9c-1.3,0.3-2.6,1.4-4.1,0.4c-0.6-1.4-1.5-2.6-3-3.2
			C187.7,170.1,187.7,170,187.7,169.9z"/>
		<path class="st23" d="M381.4,119c0.4-0.6,0.6-1.6,1.1-1.7c5.2-1.5,10.1-4,15.7-3.5c0.2,0,0.3,0,0.5,0c0.6,0.4,1.4,0.5,1.5,1.4
			c0.2,0.3,0.3,0.6,0.2,1c-0.4,1-1,1.8-2,2.3c-4.8,2-10,2.5-14.6,4.7c-0.5,0.2-0.9,0.1-1.4-0.1C381.3,121.8,380.2,120.7,381.4,119z"
			/>
		<path class="st31" d="M473,92.9c-1.5,0.6-3,0.8-4.5,0.6c-2.5-0.9-4.5,0.7-6.7,1.1c-1.3,0.3-2.7,1.4-3.8-0.2
			c0.8-1.2,0.8-1.2,1.5-1.4c8.5-2.3,17-4.6,25.5-6.8c1.5-0.4,3-0.4,4.5-0.5c0.3,0.4,0.6,0.9,0.9,1.3c0.1,1.5-0.9,2.3-2,2.6
			c-4.7,1.2-9.3,2.7-14.1,3.4C473.9,92.9,473.4,92.9,473,92.9z"/>
		<path class="st28" d="M114.3,236.1c0.5-2.6,1-5.2,1.5-7.9c3.8-0.3,7.5-0.8,11.2-1.8c2.4-0.7,3.6,0.6,3.9,2.9
			c-0.2,1.3,0,2.7-1.6,3.2C124.4,234.1,119.5,235.8,114.3,236.1z"/>
		<path class="st29" d="M387.5,228.4c5.8-1.6,11.4-3,16.9-4.6c1.1-0.3,2.7-0.5,3.2-1.3c1-1.8,1.8-0.5,2.5,0c1,0.8,0.3,1.8-0.4,2.4
			c-0.6,0.5-1.4,1-2.2,1.2c-5.1,1.4-10.2,2.8-15.3,4.2C390.4,230.7,388.7,230.7,387.5,228.4z"/>
		<path class="st29" d="M362.9,219.1c-0.9,5.7-1.7,11.4-2.6,17.1c-0.2,1.4-0.9,2.5-2.3,3c-0.7,0.3-1.5,0.4-1.9-0.4
			c-0.3-0.5-0.5-1.3-0.3-1.6c3.8-5,2.3-11.2,3.9-16.7c0.2-0.6,0-1.2,0.2-1.8c0.4-1-0.1-2.9,1.6-2.6
			C362.8,216.2,363.1,217.7,362.9,219.1z"/>
		<path class="st30" d="M252.8,248.8c-0.9,5.5-1.7,11.1-2.6,16.6c-0.2,1.3-0.8,2.5-2.3,3c-1,0.3-1.8-0.1-2.4-1
			c-1.2-1.5,0.6-1.1,1-1.4c0.8-0.7,0.9-1.6,1.1-2.6c0.8-5.1,1.5-10.1,2.4-15.2c0.2-1-0.2-3.2,1.7-2.9
			C253,245.7,253,247.5,252.8,248.8z"/>
		<path class="st40" d="M559.3,119.5c-1.1,2.9,1,3.6,2.9,3.5c4.8-0.3,9.5-1.5,13.6-4.1c2.6-1.6,2.9-4.6,3.3-7.3
			c1.6-10.5,3-21.1,4.7-31.7c0.5-3.2,0.2-6.5,2.1-9.4c-2.1,14.4-4.3,28.9-6.3,43.3c-0.6,4.4-3.2,6.9-7.3,7.9
			c-3.2,0.8-6.3,2.2-9.8,2.1c-2.7-0.1-4.7-0.9-5.5-3.6c-0.4-0.6-1.5-0.4-1.6-1.4c0.9-0.5,1.8-1,2.9-1c0.7,0.1,1.3,0.3,1.5,1.1
			C560,119.5,559.6,119.4,559.3,119.5z"/>
		<path class="st41" d="M204.4,180.1c-3.4,1-6.7,2.3-10.2,3c-4.2,0.8-4.8,0.3-4.1-4c0.1-0.5,0.3-0.9,0.5-1.3c4.3-1.5,9-1.8,13-4.2
			c2-1.2,2.4,0.5,2.5,2.1C205.8,177.3,207,179.5,204.4,180.1z"/>
		<path class="st6" d="M210.3,279c-1.9,0.3-2.6-0.2-2.8-1.4c-0.3-1.4,0.9-1.2,1.6-1.4c4.8-1.4,9.7-2.6,14.5-4
			c1.1-0.3,2.4-0.7,3.3-1.3c0.7-0.5,0.8-1.8,2-0.5c0.8,0.9,0.7,1.7,0.1,2.6c-0.3,0.4-0.7,0.8-1.1,0.9
			C221.9,276.3,215.6,277.2,210.3,279z"/>
		<path class="st42" d="M437,117.5c-2.9,2.1-6.5,2.4-9.8,3.4c-3.9,1.2-4.7,0.6-4.7-3.4c0-1.3,0-2.6,0.7-3.8c4.6,2.4,8.7,0.1,12.3-2
			c2.7-1.6,3-1.1,3.2,1.3C438.3,114.6,439.6,116.8,437,117.5z"/>
		<path class="st43" d="M624.9,67.8c-0.1-0.3-0.3-0.6-0.4-0.9c-2.8,2.9-6.7,2.6-10.1,3.7c-3.8,1.2-4.4,0.5-3.9-3.4
			c0.1-0.6,0.4-1.1,0.6-1.7c4.3-1.9,9.1-2.3,13.4-4.4c1.8-0.9,2,1,2.1,2.3C626.3,65,627.5,67.1,624.9,67.8z"/>
		<path class="st38" d="M418.2,149c0.3-1.7,0.5-3.3,0.8-5c3.6-2,7.6-2.4,11.6-3.3c2.4-0.5,3,1.3,3.7,3c0.1,0.6,0.2,1.2,0.1,1.8
			c-0.2,1.2-0.5,2.3-1.3,3.2c-3.7,0.7-7.4,1.4-11.1,2.1C420.2,151.2,418.9,150.7,418.2,149z"/>
		<path class="st23" d="M115.8,226.8c0.2-1.7,0.5-3.3,0.7-5c0.3-0.7,0.6-1.3,1.3-1.6c4.3-1.4,8.6-3,13.3-2.9
			c0.4,0.2,0.7,0.4,0.9,0.7c0.7,2.2-0.5,4.2-0.6,6.2c-0.3,0.8-0.9,1.2-1.6,1.2c-3.4-0.1-6.5,1-9.7,1.8
			C118.7,227.7,117.2,227.7,115.8,226.8z"/>
		<path class="st43" d="M134.5,198.1c-3.7,3.2-8.4,3.4-12.8,4.4c-2.8,0.7-2.5-1.3-1.7-3.1c0.7-2.5,2.7-3.4,5-3.8
			c3.6-0.7,7-1.7,9.8-4.3c0.9,0.3,1.2,1,1.4,1.8C135.9,194.9,136.9,197,134.5,198.1z"/>
		<path class="st21" d="M259.8,164.3c-3,3.2-7.1,3.6-11,4.6s-4.6,0.3-4.1-3.8c0.1-0.6,0.4-1.1,0.6-1.7c4.8-1.3,10.1-1.4,14.1-5.1
			c0.5-0.5,1.1-0.2,1.6,0.2c0.2,0.3,0.4,0.7,0.4,1.1C261.2,161.3,262.5,163.5,259.8,164.3z"/>
		<path class="st43" d="M420.4,133.2c0.2-3.5,2.1-5.4,5.6-5.8c1.5-0.2,3.1-0.6,4.5-1.1c2.7-1,4.4-0.4,4.9,2.6
			c1.8,1.3,1.1,2.7,0.2,4.1c-0.2,0.2-0.4,0.5-0.5,0.4c-3.9-1.9-7.5,0.5-11.1,0.9C422.4,134.5,421.4,134.1,420.4,133.2z"/>
		<path class="st30" d="M186.3,207.4c0.3-1.7,0.5-3.3,0.8-5c3.4-2.5,7.5-2.9,11.5-3.6c2-0.4,3,1.1,3.7,2.8c0.4,1.9,0,3.6-1,5.2
			c-4.1,0.6-8.2,1.3-12.3,2C188,208.9,187.1,208.1,186.3,207.4z"/>
		<path class="st44" d="M267.7,162c0.4-7.7,1.6-9.2,8.9-11.1c5.7-1.5,11.3-3,16.9-4.8c3-1,5.8-2.5,5.8-6.4c0-2.1-0.6-3.8-2.9-4.4
			c0-0.5,0-0.9,0.1-1.4c2.9,0.3,4.4,2,4.5,4.7c0.1,3.3-1.1,6.2-4.4,7.6c-6.6,2.6-13.6,4-20.4,5.9c-3.9,1.1-6.8,3-7.1,7.4
			C269,160.6,268.5,161.4,267.7,162z"/>
		<path class="st42" d="M117.9,213.9c-0.1-3,1.3-4.7,4.3-5.2c2.1-0.4,4.3-0.8,6.3-1.6c2.8-1.1,4-0.1,4.5,2.5
			c0.6,0.3,0.8,0.8,0.8,1.4c0,1.2-0.2,2.3-1.1,3.2c-3.9-0.7-7.7-0.3-11.4,1C119.9,215.6,118.7,215.3,117.9,213.9z"/>
		<path class="st38" d="M115.8,226.8c4.9-1.2,9.5-4.6,14.9-2.2c0.6,0.3,0.7,0.9,0.8,1.5c0,1.2-0.1,2.4-1.5,2.9c-1.1-1.3-2.5-1-4-0.6
			c-2.2,0.6-4.4,0.9-6.5,1.7s-3.1,0-3.8-1.8C115.8,227.8,115.8,227.3,115.8,226.8z"/>
		<path class="st23" d="M122.1,183.5c0,0.7,0.1,1.5,0.1,2.2c4-2.1,8.5-2.6,12.6-4.4c1.9-0.8,2.7,0,2.8,1.8c-0.2,1.7-0.2,3.4-1,5
			c-3.9,2.2-8.3,2.9-12.6,4c-2.6,0.6-3-0.1-2.7-3.6C121.5,186.8,121.3,185.1,122.1,183.5z"/>
		<path class="st43" d="M95.6,205.2c0.4,3.4-1.2,5.1-4.5,5.7c-1.9,0.4-3.7,1-5.5,1.5c-3.7,1-4.4,0.4-4.4-3.5c0-1.3,0-2.6,0.7-3.8
			c2.9,2,5.6,0.3,8.3-0.3C92,204.5,94,202.9,95.6,205.2z"/>
		<path class="st40" d="M244.6,158.3c-0.3,1.5-0.6,3-1,5.1c-0.5-2.4-1.7-1.5-2.8-1.2c-3.4,0.9-6.9,1.9-10.4,2.6
			c-4.2,0.7-6.5-1.5-6.2-5.7c0.1-1.2,1.1-1.2,2-1.3c1-0.2,2.1-0.1,2.3,1c0.5,2.7,2,2.3,3.9,1.7c3.3-1.2,7-1.5,9.9-3.7
			C243.9,156.2,244.2,157.3,244.6,158.3z"/>
		<path class="st36" d="M549.3,69.9c-0.7-1.5,0.7-1.1,1.2-1.3c8.6-2.4,17.2-4.7,25.8-6.9c1.3-0.3,2.6-0.5,3.8,0.1
			c0.2,0.9-0.4,1.6-0.9,2.3c-2.2,2.7-5.6,2-8.4,3.2c-2.1,0.9-4.9,0.4-5.7,3.4c-0.4,0.5-0.9,0.9-1.5,0.5c-0.5-0.3-0.5-1-0.2-1.5
			c-0.2-0.8-0.5-1.6-1.3-2c-0.1-0.1-0.2-0.2-0.3-0.3c-3.3,1.2-6.9,1.7-10.2,2.8C550.7,70.5,550,70.6,549.3,69.9z"/>
		<path class="st28" d="M184.9,216.7c0.2-2.9,0.4-5.9,1.4-8.6c2.8,1,5.6,0.9,8.6,0.2c4.3-1,5.2-0.2,5.7,4.6
			C195.9,216.1,190.7,217.6,184.9,216.7z"/>
		<path class="st45" d="M79.1,224.7c0.1-3.3,1.7-5.2,5-5.9c2.5-0.5,5-1.2,7.5-1.9c1.5-0.4,2.5,0,3.2,1.3c0.5,0.3,0.8,0.8,0.8,1.4
			c-0.1,1.3-0.2,2.6-1,3.7c-4.3-0.2-8.4,1.1-12.5,2.1C81,225.7,80,225.3,79.1,224.7z"/>
		<path class="st42" d="M310.2,162.7c0.2-3.9,2.4-5.6,6.1-6c1.6-0.1,3.2-0.7,4.8-1.3c1.9-0.8,3.2-0.3,4.1,1.5
			c1.6,1.3,0.4,2.8,0.2,4.2c-4.3,1-8.6,1.9-13,2.8C311.5,164.1,310.9,163.1,310.2,162.7z"/>
		<path class="st40" d="M187.7,198.6c0-1.5,0.2-2.9,0.8-4.3c2.9-3.2,7.1-3.4,11-4.2c1.2-0.3,2,0.6,2.7,1.4c0.2,0.2,0.4,0.5,0.6,0.7
			c1.9,1.4,1,3,0.2,4.5c-3.9,2-8.3,2.7-12.6,3.6C189.1,200.6,188,200.1,187.7,198.6z"/>
		<path class="st29" d="M92.6,233.2c-3.4,0.3-6.6,1.3-9.8,2.3c-1.8,0.5-3.5,0.8-5.2-0.1c0-1.5-0.2-3,0.6-4.4
			c3.2-1.6,6.7-2.4,10.1-3.2c3.3-0.8,4.1-0.2,5.4,3.3C93.8,232,93.5,232.8,92.6,233.2z"/>
		<path class="st23" d="M433.2,144c-0.8-1.9-2.2-1.5-3.9-1.2c-3.4,0.5-6.7,2.9-10.4,1.3c0.2-1.4,0.5-2.9,0.7-4.3
			c3.6-2.1,7.8-2.4,11.7-3.5c2-0.6,2.9,1.2,3.6,2.8C435.2,140.9,435.1,142.8,433.2,144z"/>
		<path class="st25" d="M79.1,224.7c3.9-1.1,7.8-2.1,11.6-3.3c2-0.7,2.8,0.3,3.4,1.9c1.3,1.4,0.1,2.8-0.1,4.2
			c-3.5,0.6-7.2,0.3-10.5,1.8c-1.6,0.7-3.4,1.1-5.1-0.2C78.6,227.5,78.8,226.1,79.1,224.7z"/>
		<path class="st46" d="M556.4,117.3c0.5-2.9,1-5.8,1.5-8.6c0.6-0.3,1-0.1,1.5,0.3c1.5,2.6,3.6,1.1,5.4,0.6c2.3-0.6,4.5-1.5,6.9-0.2
			c0.6,0.3,1,0.6,1,1.3c-0.1,2.7-1.5,3.9-4.1,4.3c-3,0.6-5.9,1.5-8.8,2.5C558.7,117.8,557.5,118.4,556.4,117.3z"/>
		<path class="st47" d="M76.9,239.8c0.8,1.5,1.9,1.7,3.6,1.2c3.8-1,7.5-2.5,11.5-2.7c1.3,1.8,1.1,3.6-0.9,4.4
			c-4.3,1.6-8.7,2.9-13.3,3.5c-0.6,0.1-1.2-0.2-1.6-0.6C76,243.6,76.4,241.7,76.9,239.8z"/>
		<path class="st22" d="M297.9,121.7c-1.6,0.7-3.3,1.3-5,1.4c-5.8,1.9-12.1,2.2-17.3,5.7l0,0c-3,2.1-5.2,4.6-5.1,8.6
			c-1.6,1.2-3.5,1.6-5.4,1.6c-0.1,0-0.3-0.1-0.4-0.1c-0.1-0.6,0.2-1,0.5-1.5c1.6-1,2.1-2.7,2.5-4.4c1-3.8,3.4-5.7,6.5-5.6
			c9-4.2,18.8-5.6,28.2-8.5c1.8-0.6,3.7-1,5.7-0.9c-2.4,2.6-5.8,2.2-8.8,3.2C298.8,121.4,298.3,121.3,297.9,121.7z"/>
		<path class="st45" d="M511,108c-0.1-2.6,1-4.1,3.7-4.6c2.5-0.4,5-1.2,7.5-2c1.8-0.5,3-0.1,3.8,1.6c1.7,1.7,0.5,3.3,0,5
			c-4.4-0.4-8.5,1.1-12.8,1.5C512.2,109.6,511.5,108.9,511,108z"/>
		<path class="st48" d="M254.7,200.1c-0.8-2.5-2.5-3.2-5-2.3c-1.9,0.6-3.9,0.9-5.8,1.6c-1.7,0.6-2.7,0-3.5-1.4
			c-0.1-1.7,0.3-3.4,0.8-5c3.1,0.9,5.9-0.3,8.8-1.1c4.2-1.2,5.1-0.7,6.5,3.5C256.6,197.3,256.4,199,254.7,200.1z"/>
		<path class="st42" d="M560,95c-0.1-2.6,1.1-4,3.6-4.5c2.7-0.6,5.3-1.3,7.9-2.1c1.8-0.6,2.7,0.2,3.5,1.6c1.5,1.4,0.5,2.9,0,4.3
			c-4.2,0.4-8.1,1.7-12.2,2.4C561.4,97,560.6,96.2,560,95z"/>
		<path class="st28" d="M418.2,149c3.4,0.8,6.6-0.6,9.8-1.5c1.7-0.5,3.3-0.8,4.6,0.7c1.4,1.4,1,2.9-0.5,3.4c-4.3,1.7-8.7,3-13.4,3.2
			c-0.5,0-0.8-0.4-1.1-0.8C417.3,152.4,417.7,150.7,418.2,149z"/>
		<path class="st29" d="M246,158.4c0-1.9,0-3.8,0-5.7c4.7-2.1,9.8-2.7,14.5-4.6c1.2-0.5,1.7,0.4,2.2,1.3c0.3,1.5,0.4,2.9-0.2,4.4
			c-4.9,3.7-10.7,4.5-16.5,5.7C245.7,159,245.7,158.7,246,158.4z"/>
		<path class="st29" d="M513.9,86.4c0.1-1.5,0-3,0.7-4.4c1-1.7,2.6-2.6,4.5-3.1c3.1-0.9,6.5-1.3,9.3-3.1c1-0.6,1.8-0.4,2.3,0.8
			c0.1,1.6-0.3,3.2-0.4,4.9c-1.1,1.7-2.9,2.5-4.7,3c-3.9,1.2-7.6,2.8-11.8,2.9C513.6,87,513.6,86.7,513.9,86.4z"/>
		<path class="st42" d="M526.9,90c0.4,3.1-1.2,4.6-4.1,5.3c-2.1,0.5-4.2,1.1-6.2,1.6c-3.7,1-4.5,0.4-4-3.5c0.1-0.7,0.4-1.4,0.6-2
			c3.2-0.2,6.2-1.7,9.3-2.3C524,88.8,525.8,88,526.9,90z"/>
		<path class="st49" d="M199.8,212.4c-0.7-2.4-2.2-3.3-4.6-2.4c-1,0.4-2.1,0.4-3.1,0.9c-3.1,1.4-5,0.6-5.8-2.8c0-0.2,0-0.5,0-0.7
			c3.5,0.1,6.8-1.3,10.1-2.2c1.8-0.5,3.3-0.5,4.2,1.4c0.6,0.3,0.9,0.8,1,1.4C201.6,209.7,201.5,211.4,199.8,212.4z"/>
		<path class="st47" d="M605.3,104.3c0.4-2.9,0.5-5.8,1.5-8.6c0.3-0.3,0.6-0.3,1-0.2c1.5,1.4,3.2,1.3,5,0.8c0.9-0.2,1.8-0.4,2.8-0.6
			c5-1,6.1,0.2,4.8,5.4C615.6,103.5,610.4,104,605.3,104.3z"/>
		<path class="st18" d="M511,108c3.5-0.2,6.9-1.1,10.2-2c2.1-0.6,3.5-0.3,4,2c0.4,0.2,0.6,0.4,0.8,0.8c0.2,1.4,0.1,2.7-1,3.7
			c-3.6-1.4-6.9,0-10.2,0.9c-1.9,0.5-3.8,0.8-4.5-1.8C510.3,110.4,510.5,109.2,511,108z"/>
		<path class="st50" d="M117.9,213.9c3.3-0.1,6.3-1.4,9.3-2.2c2.5-0.6,4.2-0.4,5,2.2c1,0.7,0.6,1.6,0.4,2.5
			c-0.1,0.8-0.3,1.5-1.2,1.7c-0.2,0-0.4,0-0.6,0c-2.9-1.7-5.5,0.2-8.2,0.6c-1.9,0.2-3.9,1.7-5.5-0.5
			C117.2,216.7,117.2,215.2,117.9,213.9z"/>
		<path class="st40" d="M622.7,79.2c0.2,0,0.4,0,0.6,0c2.1,1.8,0.9,3.7,0.1,5.6c-4.1,0.9-8.4,1.4-12.4,2.7c-1.4,0.5-2.1-0.7-2.7-1.8
			c0.2-1.4,0.5-2.9,0.7-4.3c3.1-2.5,6.9-2.8,10.6-3.6C620.9,77.6,621.8,78.3,622.7,79.2z"/>
		<path class="st27" d="M437.7,112.4c-3.5,3.3-8.3,3.4-12.5,4.6c-3,0.9-1.5-2-2-3.3c0.1-1.5-0.1-3,0.7-4.4c0.7,0,1.2,0.6,1.7,1
			c4.1,1,10.1-1.1,11.3-4c1.4-1.3,2-0.4,2.4,0.9c0,1.6,0.4,3.3-0.5,4.9C438.5,112.5,438.1,112.6,437.7,112.4z"/>
		<path class="st25" d="M576.6,77.1c-0.3,0-0.5,0-0.8-0.1c-3.3,3.8-8.1,3.6-12.4,4.8c-1.7,0.5-2-1.2-1.3-2.7
			c0.1-1.9-0.3-3.9,0.7-5.8c0.3,0,0.6,0.1,0.9,0.3c3.9,0.7,7.3-1.1,10.7-2.2c3.3-1,3.4-1,3.8,2.6C577.7,75.1,578.6,76.9,576.6,77.1z
			"/>
		<path class="st50" d="M526.9,90c-3.9,0.5-7.6,1.8-11.3,3c-1.8,0.6-2.4,0.2-2.4-1.6c0.1-1.7-0.2-3.5,0.7-5c0,0.2,0.1,0.4,0.1,0.6
			c4.3,0.1,8.2-1.4,12.2-2.8c2.1-0.8,2.9-0.2,2.9,1.9c-0.1,1.7,0.3,3.4-0.3,5.1c-0.3,0.3-0.6,0.4-1,0.3
			C527.5,91,527.7,90.2,526.9,90z"/>
		<path class="st50" d="M246,158.4c0,0.2,0.1,0.4,0.1,0.7c2.7,0.7,5-0.9,7.4-1.5c1.7-0.4,3.4-1.1,5.1-1.3c1.5-0.1,2.7,0.2,1.7,2.1
			c-0.7,2.6-2.5,3.8-5.1,4.3c-2.7,0.6-5.3,1.4-7.9,2.3c-1.9,0.7-2-0.4-2.1-1.7C245.4,161.7,245.1,160,246,158.4z"/>
		<path class="st21" d="M562.1,79.2c0.3,2.3,1.7,1,2.6,0.7c3.6-1.2,7.3-2.2,11.1-2.8c0.1,3-1.3,4.7-4.2,5.2c-1.8,0.3-3.4,1-5.2,1.4
			c-1.5,0.3-3.1,1.6-4.4,0.3C560.8,82.6,561.4,80.8,562.1,79.2z"/>
		<path class="st50" d="M560,95c3,0.5,5.5-0.8,8.3-1.6c2.1-0.5,4.4-1.8,6,0.8c0.5,0.3,0.8,0.8,0.8,1.5c0,1.3-0.1,2.7-1.1,3.8
			c-3.6-1.3-7,0-10.4,1c-1.7,0.5-3.2,0.4-4.3-1.1C559.5,97.9,559.8,96.5,560,95z"/>
		<path class="st28" d="M507.4,130.3c0.3-1.7,0.5-3.4,0.8-5c3.8-1.8,7.8-2.6,11.8-3.5c1.3-0.3,2.6,0.1,3.6,1.1
			c0.8,2.9-0.5,4.5-3.3,5.1c-3.6,0.7-7,2.1-10.6,2.7C508.9,130.8,508.1,131,507.4,130.3z"/>
		<path class="st29" d="M241.1,192.2c0.2-1.4,0.5-2.9,0.7-4.3c3.6-3,8.2-3.2,12.5-4.2c1.1-0.3,2.2,0.6,3.1,1.5
			c0.4,0.5,0.5,1.1,0.5,1.7c0.1,1.2-0.3,2.3-0.9,3.3c-4.2,1.5-8.7,2-13,3.2C242.9,193.8,242.1,192.5,241.1,192.2z"/>
		<path class="st42" d="M326,144c0.1,3-1.3,4.7-4.3,5.2c-1.6,0.3-3.3,0.8-4.9,1.2c-4.1,1-5,0.1-4.4-4c0.1-0.6,0.4-1.1,0.6-1.7
			c3.2,0.2,6-1.4,9.1-1.9C323.6,142.6,325.2,142,326,144z"/>
		<path class="st50" d="M326,144c-3.6,0.1-6.9,1.5-10.3,2.5c-1.8,0.5-2.7,0.3-2.7-1.8c0.1-1.7-0.2-3.5,0.7-5.1
			c0.5,0,0.9,0.3,1.3,0.6c3.5,0.8,6.7-0.7,9.9-1.8c2.4-0.9,3.4-0.5,3.3,2.1c-0.5,1.7,1.2,3.9-1.4,5.1C326.5,145,326.3,144.5,326,144
			z"/>
		<path class="st51" d="M625.6,62.8c-4.1,1.2-8.1,2.4-12.2,3.6c-1,0.3-2.1,0.9-2.3-0.9c0-1.4,0-2.9,0.1-4.3
			c4.9-1.1,10.1-1.2,14.4-4.5c0.4-0.3,0.9,0,1.3,0.3c0.2,0.3,0.4,0.7,0.5,1.1C627,59.7,628.2,61.9,625.6,62.8z"/>
		<path class="st52" d="M187.7,198.6c3.5,0.5,6.6-1.3,10-2c1.5-0.3,2.9-0.9,4.5-0.1c0.6,0.3,0.9,0.8,1,1.4c0,1.5-0.3,2.8-1.7,3.6
			c-1.3-1.6-2.9-1.1-4.6-0.8c-3.2,0.6-6.3,2.4-9.7,1.6C187,201.1,187,199.8,187.7,198.6z"/>
		<path class="st53" d="M121.4,188.6c0,1.9,0.8,2.6,2.7,2c3.2-1,6.4-1.9,9.7-2.8c0.8-0.2,1.6-0.9,2.1,0.3c1.1,1.5,0.7,3.1,0.4,4.7
			c-0.2,0.4-0.6,0.5-1,0.4c-0.3-0.5-0.5-1-0.8-1.5c-3.4,3.5-8.1,3.6-12.5,4.5c-0.8,0.2-1.3-0.5-1.8-1
			C120.6,192.9,121,190.7,121.4,188.6z"/>
		<path class="st27" d="M95.6,205.2c-3.3,0.9-6.8,1.4-10,2.7c-3.3,1.4-4,0.3-3.8-2.7h0.1c2-3,5.5-2.8,8.4-3.9
			c1.7-0.7,3.5-0.8,5.1-1.7c1.7-1,2.3,0.2,2.6,1.6c-0.5,1.9,0.7,4.2-1.7,5.5C96.1,206.2,95.9,205.7,95.6,205.2z"/>
		<path class="st54" d="M295.7,133.1c-0.8,1.6-0.7,3.3-0.7,5c0,2.3-1.1,3.6-3.3,4.2c-7.8,2.1-15.7,3.8-23.4,6.5
			c-1.2,0.4-2.4,0.4-3.4-0.3c-0.4-0.2-0.6-0.6-0.8-1c0.6-1.4,2.1-1.3,3.1-2c5.7-2.5,12-3.1,17.8-5.3c2.8-0.2,5.3-1.4,8.1-1.9
			c0.9-1.6,0.6-3.4,0.7-5.1C294.3,132.9,294.9,131.5,295.7,133.1z"/>
		<path class="st55" d="M315.9,131.1c5.1-1.2,10.2-2.4,15.3-3.6c2.3-0.5,4.5-2,6.9-0.9c-2,2-5,1.6-7.2,3l0,0
			c-0.5,0.7-0.9,1.5-1.7,1.9c-3,2.1-6.6,2.1-9.9,3.3c-1.7,0.6-2.9,1.4-4,2.8c-2.4-0.3-1-1.9-1-2.9c0.1-1.7,0-3.5,0.7-5.1
			C315.8,129.8,315.4,130.7,315.9,131.1z"/>
		<path class="st29" d="M524,187.3c-2-7,0.7-13.6,1.1-20.9C528,169.4,527.4,180.2,524,187.3z"/>
		<path class="st56" d="M83.3,195.8c0.1-1.5,0-3.1,0.7-4.5c4.4-2.6,9.8-2.7,13.8-6.1c1.1-0.9,2-0.3,2.3,1c-0.4,1.6,0.1,3.4-0.9,4.9
			c-0.3,0.5-0.7,0.9-1.2,1.3c-2,1.3-4.4,1.7-6.6,2.2c-2.9,0.6-5.5,1.6-8.1,2.8C83,196.9,82.9,196.3,83.3,195.8z"/>
		<path class="st27" d="M477.2,103.6c0-1.9,0-3.8,0.1-5.7c2.7-1.4,5.7-1.7,8.6-2.6c1.9-0.6,4-0.7,5.5-2.5c0.4-0.5,1.1-0.3,1.6,0.2
			c0.4,0.5,0.5,1,0.5,1.6c0.2,3-0.3,5.6-3.8,6.5c-3.5,1.1-7.3,1.2-10.6,3C478.3,104.3,477.6,104.3,477.2,103.6z"/>
		<path class="st36" d="M529.8,76.3c-1.4,1.9-3.7,2.3-5.8,2.9c-3.2,0.9-6.3,1.8-9.4,2.7c0.1-1.7-0.1-3.5,0.7-5.1
			c0.5,0.1,0.5,0.7,0.8,0.9c5-1.2,10-2.3,14.9-3.6c1-0.3,2-0.8,3.1-0.1c-0.6,1.3-2.2,1.4-2.9,2.6C530.6,76.8,530.2,76.7,529.8,76.3z
			"/>
		<path class="st6" d="M304.3,228.1c3-0.9,6-1.7,8.9-2.7c1-0.3,2.5-0.5,2.9-1.2c1-1.9,1.9-0.8,2.6-0.2c1,1,0.4,2-0.5,2.7
			c-0.7,0.5-1.5,0.7-2.3,1c-2.5,0.7-5,1.6-7.6,2c-3.6,0.6-6.3,2.2-7.5,5.7c-1.7-1.3-0.6-3.4-1.4-5c0.2-0.3,0.4-0.6,0.5-0.9
			C301.5,229.4,303.3,229.9,304.3,228.1z"/>
		<path class="st35" d="M97.8,191.5c0.2-0.2,0.4-0.5,0.6-0.7c1.6,1.7,0.3,3.3,0,5c-0.4,2.6-2.5,3.7-4.5,4.4c-3.5,1.3-7.1,2-10.6,3.3
			c-0.5,0.2-0.9-0.2-1.2-0.5c0.4-2.4,0.8-4.8,1.3-7.2c0,0.5,0.1,1,0.1,1.4c3.4-1.8,7.2-2.4,10.8-3.3
			C95.8,193.5,96.9,192.8,97.8,191.5z"/>
		<path class="st57" d="M241.1,192.2c5.1-0.3,9.7-3.7,15-2.2c1.7,2,1.5,3.6-0.7,5c-1-1.9-2.5-2.4-4.5-1.7c-1.8,0.6-3.7,0.9-5.5,1.6
			c-2.3,1-3.6,0.2-4.3-2C241.1,192.7,241.1,192.5,241.1,192.2z"/>
		<path class="st45" d="M622.7,79.2c-3.4,0.3-6.6,1.1-9.8,2c-1.3,0.4-2.5,0.8-3.8,0.2c-0.2-2.3,1-3.5,3.1-4s4.2-1,6.2-1.7
			C621.6,74.6,623.1,75.7,622.7,79.2z"/>
		<path class="st58" d="M205.1,175.1c-3.8,2.2-8.2,2.6-12.3,3.9c-1.2,0.4-2.1,0.4-2.3-1.2c0-1,0-1.9,0.1-2.9
			c1.6-1.1,3.3-1.8,5.2-2.2c3.4-0.7,6.8-1.5,9.8-3.5c0,0.5,0.1,0.9,0.1,1.4c1.4,1.2,1.1,2.6,0.4,4.1
			C206,175.1,205.6,175.2,205.1,175.1z"/>
		<path class="st55" d="M624.4,51c-5.1,2.7-10.9,3.1-16.2,5.2c-2.1,0.6-4.3,0.1-6.4,0.6c-0.6,0-1.1-0.1-1.5-0.6
			c-0.8-1.2,0.5-1,0.9-1.2c5.2-1.5,10.4-2.8,15.5-4.4c2.5-0.8,4.9-0.8,7.4-0.3C624.3,50.6,624.3,50.8,624.4,51z"/>
		<path class="st45" d="M243.2,179.3c-0.2-2.3,1-3.5,3.2-4.1c2.9-0.7,5.8-1.4,8.6-2.1c2.2-0.6,2.5,1.2,3.2,2.5
			c0.6,0.3,0.9,0.8,1,1.4c0.1,1.5-0.3,2.8-1.5,3.8c-1.2,0.3-1.8-0.4-2.3-1.3c-0.5-1.2-1.4-1.6-2.7-1.2c-1.9,0.6-3.9,0.9-5.8,1.6
			C245.7,180.5,244.2,180.7,243.2,179.3z"/>
		<path class="st27" d="M310.2,162.7c3.7-0.9,7.4-1.7,11-2.7c1.5-0.4,2.5-0.2,3.2,1.2c0.7,0.7,0.7,1.4-0.1,2.1
			c-0.2,0.7-0.4,1.5-0.6,2.2c-3.4-0.1-6.7,0.8-10,1.8c-2,0.6-3.2,0.3-3.7-1.8C310.1,164.6,310.2,163.7,310.2,162.7z"/>
		<path class="st12" d="M202.2,191.5c-4.7,0.2-9,2.5-13.7,2.9c-0.3-2.8,0.9-4.3,3.7-4.7c2-0.3,4.1-0.7,5.9-1.4
			C201.4,187.1,202.5,188.2,202.2,191.5z"/>
		<path class="st59" d="M262,149.1c-4.5,2.1-9.7,2.4-14,4.8c-1.6,0.9-1.1-1.1-1.8-1.3c-0.2,0-0.5,0-0.7-0.1c0.4-0.7-1-1.9,1-2.3
			c4.1-0.8,8.1-2,12.1-3.1c1.5-0.4,3.1-0.8,4.2,0.9C263,148.9,262.6,149.1,262,149.1z"/>
		<path class="st27" d="M120.2,195.1c4.8-1.1,9.4-3,14.3-3.5c0.2,2.9-1.7,3.8-4,4.6c-3.5,1.1-7.3,1.2-10.4,3.3
			C120.1,198,120.1,196.5,120.2,195.1z"/>
		<path class="st52" d="M433.9,138.9c-1.2-1.5-2.7-0.9-4.2-0.6c-3.3,0.5-6.4,2.8-10,1.4c0-1.3-0.1-2.6,0.6-3.7
			c3.3-1.9,7-2.3,10.6-3.2c1.8-0.5,2.8,1,4.2,1.5c0.3,0.3,0.5,0.7,0.5,1.1C435.7,136.9,435.3,138.2,433.9,138.9z"/>
		<path class="st23" d="M518.2,170.7c2.8-0.2,1.2,1.4,0.7,2.1c-1,1.2-2.7,1.4-4.2,1.7c-3.6,0.6-5.2,2.6-5.6,6.2
			c-0.6,5.2-1.5,10.4-2.2,15.6c-0.2,1.2-0.3,2.5-1.4,3.2c-1.5,0.9-2.9,1.2-2.5-1.4c3.5-1.4,2-4,1.7-6.4c1.6-2,0.1-4.6,1.3-6.7
			c1.7-1.6,1.3-3.8,1.2-5.7c-0.3-3.2,1.3-4.7,4-5.7C513.5,172.6,516.3,172.8,518.2,170.7z"/>
		<path class="st53" d="M608.2,85.7c3.7,0.7,6.9-1.4,10.3-1.9c1.6-0.2,3.1-0.7,3.9,1.2c0.4,0.2,0.7,0.4,0.9,0.8
			c0.4,1.5-0.2,2.7-1.1,3.7c-3.9-1.5-7.5,0.2-11.2,1.1c-1.3,0.4-2.5,0.6-3.5-0.6C607.8,88.6,608,87.1,608.2,85.7z"/>
		<path class="st60" d="M244.6,158.3c-0.5-0.2-0.9-0.4-1.4-0.6c-3.6,1.4-7.3,2.5-11.2,3.1c-3.1,0.5-3.8-0.5-2.9-3.7
			c5.1-1.9,10.3-3,15.6-4.4c0.2,0,0.4,0,0.7,0C245.1,154.5,244.8,156.4,244.6,158.3z"/>
		<path class="st52" d="M82,203c2.8-2.2,6.3-2.8,9.6-3.7c2.3-0.6,4.8-0.9,6-3.4c1,0.5,0.8,1.5,0.8,2.3c0,0.4,0,0.8,0,1.3
			c0.4,1.2-0.3,1.6-1.3,1.6c-5.1,1.4-10.1,2.8-15.2,4.2C82,204.5,82,203.7,82,203z"/>
		<path class="st53" d="M78.4,229c4-1.1,7.9-2.2,11.9-3.3c1.6-0.4,2.3,0.7,3.1,1.9c1.1,1.5,0.6,2.6-0.7,3.6
			c-1.1-2.2-2.8-1.9-4.8-1.5c-3.2,0.7-6.1,2.9-9.6,1.4C78.3,230.3,78.3,229.7,78.4,229z"/>
		<path class="st27" d="M434.6,134.6c-3.1-0.9-5.9,0.6-8.8,1.2c-1.8,0.3-3.7,1.3-5.6,0.2c0-0.9,0.1-1.9,0.1-2.8
			c3.2-0.8,6.5-1.3,9.7-2.3c2.5-0.8,3.8,0,4.6,2.3C435.1,133.7,435.1,134.2,434.6,134.6z"/>
		<path class="st61" d="M508.9,121c-0.1-1.3,0.1-2.5,0.7-3.7c3.4,0.1,6.7-1,10-1.8c2-0.5,3.8-0.6,5,1.4c0.3,0.6,0.2,1.2,0.2,1.8
			c-0.1,1.3-0.1,2.7-1.1,3.8c-3.5-1-6.8-0.1-10.1,1.1C510.4,124.6,509.7,124.1,508.9,121z"/>
		<path class="st53" d="M510.3,111.6c3.5,1.4,6.5-0.6,9.6-1.4c2.3-0.6,3.9-0.4,4.7,2.1c0.3,0.4,0.2,0.8,0,1.2
			c-3.7,2.4-8.1,2.5-12.2,3.7c-1.1,0.3-2-0.5-2.8-1.2C509.6,114.4,509.6,113,510.3,111.6z"/>
		<path class="st10" d="M492.4,94.4c0-0.5-0.1-0.9-0.1-1.4c-0.6-0.5-1.3-1-2-1.3c-4.7,0.6-9.1,2.2-13.7,3.3
			c-0.8-0.7-1.5-1.4-2.3-2.1c0.9-1.8,2.7-1.7,4.3-2.1c4-1,8.2-1.6,11.8-3.9c1-0.4,1.5,0.3,2.1,0.9c0.7,0.7,1.4,1.4,2.1,2.1
			c0.4,0.4,0.6,0.8,0.7,1.4C494.5,92.5,494.5,94.4,492.4,94.4z"/>
		<path class="st53" d="M205.7,169.3c-0.7,2.4-2.3,3.8-4.8,4c-3.5,0.3-6.5,2.9-10.2,1.7c0-0.5,0-1,0-1.5
			C195.2,170.5,200.4,169.5,205.7,169.3z"/>
		<path class="st46" d="M315.9,131.1c-0.6,0-0.6,0-0.8-1.6c-0.1-2.5,2-2.8,3.7-3.2c7.4-1.7,14.6-4.6,22.3-5.2
			c-2.6,3.3-6.8,3.3-10.3,4c-4.4,0.8-8.4,3-12.8,3.5C316.7,128.6,316.1,129.7,315.9,131.1z"/>
		<path class="st29" d="M482.9,179.5c0.9,0.1,2.3-0.1,2.4,1.4c0.1,1.3-1.2,1.2-2.1,1.4c-3.6,0.9-6.7,2.4-7.9,6.3
			c-0.4,1.3-1.2,0.4-1.5,0.1c-1.9-1.5-1.2-3.2-0.1-4.7C475.9,181,479.3,180.2,482.9,179.5z"/>
		<path class="st53" d="M256.8,185.7c-3.5-1.4-6.5,0.9-9.7,1.3c-1.8,0.3-3.5,0.9-5.3,0.9c-0.1-1.3,0.2-2.5,0.7-3.6
			c3.7-1.9,7.8-2.8,11.8-3.8c2.6-0.6,2.9,1.8,3.4,3.7C257.6,184.8,257.4,185.4,256.8,185.7z"/>
		<path class="st52" d="M117.2,218.2c3.5-0.8,7-1.6,10.4-2.5c2.2-0.5,3.2,0.2,3.2,2.4c-4.6,1.7-9.5,2.6-14.3,3.6
			C116.8,220.6,117,219.4,117.2,218.2z"/>
		<path class="st62" d="M558.6,109.4c-0.2-0.2-0.5-0.5-0.7-0.7c-0.1-1.5,0.1-2.9,0.7-4.3c3.8-0.1,7.4-1.3,11.1-2.3
			c2.2-0.6,3.4,0,4,2.2c0.1,0.6,0.1,1.1,0.1,1.7c0,1.2-0.2,2.3-1.2,3.1c-3.4-0.7-6.6,0-9.8,1.1C561.3,110.7,559.7,111,558.6,109.4z"
			/>
		<path class="st29" d="M432.6,196.5c-5,0.1-9.3,1.1-11.3,6.6c-0.4,1.2-1.3,0.4-1.9,0c-1.3-1-0.9-2.3-0.3-3.5
			c1.7-3.5,7.5-6.1,11.3-5.1C431.6,194.7,432.3,195.4,432.6,196.5L432.6,196.5z"/>
		<path class="st56" d="M508.9,121c1,1.8,2.4,1.6,4,1.1c2-0.6,4.2-1.1,6.2-1.7c2.1-0.7,3.5-0.2,4.1,2c0.2,0.2,0.2,0.3,0.2,0.5
			s-0.1,0.3-0.2,0.3c-3.6,0-7,1.4-10.5,2.1c-1.5,0.3-3,0.8-4.5,0.1C508.4,123.9,508.7,122.4,508.9,121z"/>
		<path class="st53" d="M559.3,99.4c3.4,0,6.6-0.9,9.7-2.1c2.5-1,3.8-0.3,4.6,2.1c0.3,0.3,0.4,0.6,0.3,1c-0.7,2-2.6,1.2-4,1.6
			c-2.3,0.8-4.8,1.2-7.1,1.9c-1.8,0.5-3,0.1-4.2-0.9C558.8,101.8,559.1,100.6,559.3,99.4z"/>
		<path class="st22" d="M509.6,115.9c5.2-0.2,9.9-2.7,15-2.9c1.2,1.7,1.1,3.1-0.7,4.3c-2.9-1.4-5.6,0-8.4,0.8
			c-2.2,0.6-4.2,1.1-6-0.8C509.6,116.9,509.6,116.4,509.6,115.9z"/>
		<path class="st22" d="M558.6,103c5.1-0.5,9.9-2.6,15-2.9c1,1.7,0.3,3-0.7,4.3c-1-1.2-2.3-1-3.6-0.6c-2.4,0.7-4.8,1.2-7.2,2
			c-1.7,0.6-2.7,0-3.5-1.4C558.6,103.9,558.6,103.4,558.6,103z"/>
		<path class="st31" d="M425.3,99.8c0,1.7,0.5,2.3,2.3,1.7c2.9-0.9,6-1.5,9-2.3c1.3-0.3,2.6-0.2,3.9,0.1c0.3,0.2,0.4,0.5,0.4,0.9
			c-0.1,0.7-0.6,1.2-0.9,1.9c-0.5,0.6-1.1,0.9-1.9,1.1c-4.5,0.8-9.1,1.7-13,4.3c-1.2-0.6-0.9-1.5-0.6-2.5
			C424.6,103.3,424.5,101.5,425.3,99.8z"/>
		<path class="st52" d="M310.1,165.5c3.2,1.3,5.9-0.6,8.8-1.3c1.9-0.4,3.7-1.1,4.8,1.3c0,0.5,0,1,0,1.5c-3.6,2.3-7.8,2.4-11.8,3.6
			c-1.2,0.4-2-0.5-2.6-1.5C309.5,168,309.4,166.7,310.1,165.5z"/>
		<path class="st63" d="M492.4,94.4c1-0.8-0.2-3.1,2.1-2.9c1.3,0.8,1,2.2,1.1,3.4c-0.2,1.5-0.3,3-0.5,4.5c-0.3,1.7-0.9,3.1-2.5,3.6
			c-3.4,1.1-6.7,2.5-10.3,2.5c-1,0-1.9-0.7-2.9-0.5c-1.1,0.2-2.2,0.5-3.3,0.7c-0.1-1,0.1-1.8,1.2-2.1c0.5-0.2,1.1-0.3,1.6-0.5
			c3.2-1.6,6.7-2.2,10.2-3C492.1,99.4,492.4,97,492.4,94.4z"/>
		<path class="st53" d="M491.6,90c0.6,0.9,0.7,1.9,0.6,3c-2.2,3.3-11.5,6.3-15,4.9c0-0.5,0-1,0-1.5c0.5-1.7,1.9-2.3,3.5-2.8
			C484.4,92.7,488.5,92.7,491.6,90z"/>
		<path class="st52" d="M626.2,56.9c-2.2,4.8-7.4,3.5-11.1,5.3c-1.5,0.7-3,0.9-3.9-1c0-0.2,0-0.5,0-0.7c0.5-1.4,1.5-2.2,2.9-2.6
			c3.3-1,6.6-1.6,9.9-2.5C624.8,55.1,627,54.3,626.2,56.9z"/>
		<path class="st64" d="M438.3,102.2c0.3-0.5,0.6-1,0.9-1.4c1.1,2.3,2.2,4.7-0.8,6.5c-0.2-0.5-0.5-0.7-0.7,0
			c-1.3,1.6-3.1,2.1-5.1,2.5c-2.9,0.5-5.5,2-8.5,1.9c0-0.7-0.1-1.5-0.1-2.2c0.1-1.5,0-3,0.7-4.4c0.3,0.7,0.5,1.5,0.8,2.2
			c2.8-2.6,6.8-2.2,10-3.7C436.3,103.1,437.5,103,438.3,102.2z"/>
		<path class="st22" d="M626.2,56.9c-0.7-1.4-1.7-0.3-2.4-0.1c-4.2,1.2-8.6,1.7-12.6,3.7c-0.2-0.5-0.4-1-0.7-1.5
			c4.9-3.6,10.3-5.4,16.4-4.2c0.8,1.2,1.2,2.3-0.6,2.9C626.3,57.4,626.2,57.2,626.2,56.9z"/>
		<path class="st4" d="M607.5,95.8c-0.2,0-0.5,0-0.7,0c-0.1-1.7,0.1-3.4,0.8-5c2.9,0.5,5.5-0.7,8.2-1.5c2.2-0.7,4.4-0.7,6.4,0.6
			c1.5,1.5,0.4,3-0.2,4.4c-2.9,1.6-6.4,0.4-9.4,1.8C610.9,96.8,609.1,97,607.5,95.8z"/>
		<path class="st65" d="M324.4,163.3c0-0.7,0.1-1.4,0.1-2.1c0.2-1.4,0.5-2.9,0.7-4.3c0.5-3.8,1.1-7.6,1.6-11.4
			c0.9-1.8,0.6-3.8,0.8-5.7c0.2-0.3,0.5-0.4,0.8-0.2c0.5,0.9-0.2,2,0.5,2.9c-0.6,7.7-1.7,15.3-3.1,22.9
			C324.2,165.1,324.7,164,324.4,163.3z"/>
		<path class="st23" d="M518.2,170.7c0.4,2.4-1.7,2.2-3,2.7c-2.2,0.8-4.7,0.8-6.2,3.1c-0.8,1.2-1.6,2.1-1.1,3.8
			c0.6,2.1-0.5,4.2-0.6,6.3c-1.1-0.3-1-1.2-1.4-1.7c0-0.1,0-0.2,0-0.4C507.5,171.1,505.7,173.9,518.2,170.7z"/>
		<path class="st66" d="M626.3,57.6c0.2-1,0.4-1.9,0.6-2.9c2.9,1.3,0.9,3.8,1.5,5.7c0.2,6.2-1.3,12.2-2.1,18.3
			c-0.1,0.8-0.1,1.7-1.1,2.1c-2-1.1-0.6-3-1-4.4c0.3-2.8,0.5-5.7,0.8-8.5c0.8-1.6,0.6-3.4,0.7-5.1C626.4,61.1,626.2,59.4,626.3,57.6
			z"/>
		<path class="st10" d="M455.5,187.1c0.8,0.2,2.1-0.4,2.3,0.9c0.2,1.4-1.1,1.3-2,1.5c-3.1,0.6-5.5,2.1-7.4,4.6
			c-0.6,0.8-1.4,1.7-2.3,1c-1.1-0.8-0.6-2,0-2.9C448.4,189,451.5,187.2,455.5,187.1z"/>
		<path class="st65" d="M97.1,201c0.4-0.5,0.9-1.1,1.3-1.6c1.5,2.3,0.3,4.7-0.1,7c-0.8,5.9-1.2,11.8-2.8,17.6
			c-1.6-1.2,0.1-3-0.7-4.3c0-0.5-0.1-1-0.1-1.5c0.8-3.8,1.5-7.6,1.6-11.4C97.2,204.9,97,202.9,97.1,201z"/>
		<path class="st16" d="M256.9,184.3c-0.8-2.4-2.3-2.8-4.8-2.1c-3.2,0.9-6.2,2.8-9.7,2.1c0-0.7,0-1.4,0.1-2.1
			c4.4-2.6,9-4.6,14.4-3.6c0.2,0.7,0.4,1.4,0.6,2.1C259,182.2,258.8,183.4,256.9,184.3z"/>
		<path class="st67" d="M309.5,169.2c3.8,0.9,7-1.5,10.6-1.8c1.3-0.1,2.5-0.8,3.8-0.3c0.8,1.4-0.1,1.9-1.3,2.3
			c-3.2,0.9-6.4,1.7-9.6,2.6c-1.6,0.5-2.8-0.1-3.6-1.4C309.4,170.1,309.4,169.6,309.5,169.2z"/>
		<path class="st68" d="M527.7,91.5c0.2-0.1,0.4-0.1,0.5-0.2c1.1-0.3-0.3-2.4,1.5-2.1c-0.7,8.5-1.9,16.9-3.6,25.2
			c-1.7-1.7,0.3-3.9-0.7-5.7c-0.1-0.3-0.2-0.6-0.2-0.8c0.3-1.7,0.5-3.4,0.8-5C526.6,99.1,527.1,95.3,527.7,91.5z"/>
		<path class="st69" d="M76.2,245.6c4.7-0.2,9.1-2,13.6-3.2c2-0.5,2.1-2.4,2.1-4.1c0.3-1.4,0.6-2.8,0.8-4.2c2.1,1.1,0.7,2.8,0.7,4.3
			c0.3,3.7-1.3,5.5-5,6.2c-3.9,0.7-7.7,2-11.6,3.1C74.2,247.7,75.8,246.4,76.2,245.6z"/>
		<path class="st65" d="M135.3,193.1c0.2-0.1,0.4-0.1,0.6-0.2c1-0.4-0.4-2.4,1.5-2.1c-0.6,8.5-2,16.9-3.6,25.2
			c-1.7-1.5,0.1-3.4-0.7-5.1c0-0.5-0.1-1-0.1-1.5c0.8-3.8,1.6-7.5,1.6-11.4C135.3,196.5,135.1,194.8,135.3,193.1z"/>
		<path class="st67" d="M562.9,74.1c0-0.2,0-0.4-0.1-0.7c0.1-1.2,0-2.5,0.7-3.7c0.2,0.4,0.5,0.8,0.8,0.1c4.1-2.2,8.4-3.8,13.2-3.4
			c1.1,1.4,0.9,2.9-0.5,3.7C572.7,72.6,568,74,562.9,74.1z"/>
		<path class="st47" d="M99.2,185.8c-1.3,2.2-3.4,3.3-5.9,3.3c-3.2,0-5.8,1.1-8.2,2.9c-1.2,0.9-1-0.2-1.2-0.7
			c4.9-3.2,10.4-5.6,15.7-7.9C100.6,184.4,101,185.3,99.2,185.8z"/>
		<path class="st70" d="M256.9,178.6c-4.8,1.3-9.4,2.9-14.4,3.6c0.2-1,0.5-1.9,0.7-2.9c3.5-0.2,6.6-1.6,9.9-2.4
			C254.8,176.4,256.5,176.1,256.9,178.6z"/>
		<path class="st67" d="M491.6,90c-0.1,2.1-1.5,2.7-3.2,3.1c-3.7,1-7.7,1.5-11.2,3.3c-0.2-0.5-0.4-1-0.6-1.5
			C480.9,91.2,486.5,91.4,491.6,90z"/>
		<path class="st71" d="M258.4,177.2c-0.1-0.5-0.1-1-0.2-1.5c0.8-3.8,1.6-7.5,1.6-11.4c0.8-1.6,0.6-3.3,0.8-5
			c0.2-0.3,0.4-0.6,0.5-0.9c0.5-1.6,1.2-2.4,2.5-0.5c0,7.6-1.7,15-2.9,22.4c-0.1,0.7-0.6,1-1,1.3
			C256.9,180.7,259.3,178.5,258.4,177.2z"/>
		<path class="st69" d="M523.2,123.1c0-0.2,0-0.5,0-0.7c0.3-1.2,0.6-2.3,0.9-3.5c2.1,1.1,0.7,2.8,0.7,4.3c-0.2,3.8-2.3,5.5-6,6
			c-3.2,0.5-6.2,1.6-9.3,2.4c-0.7,0.2-1.5,0.5-2.2,0.7c-1.5-0.8-0.2-1.4,0.1-2.1c4.4-1.1,8.7-2.2,13.1-3.3
			C522.6,126.5,523.4,125.2,523.2,123.1z"/>
		<path class="st72" d="M574.5,95.8c-0.1-0.5-0.1-1-0.2-1.5c0.2-1.4,0.5-2.9,0.7-4.3c0.6-3.8,1.1-7.7,1.7-11.5
			c1.2-0.6,0.1-2.8,2-2.9c-0.9,8.2-1.9,16.4-3.6,24.5C573.6,98.9,575.2,97.2,574.5,95.8z"/>
		<path class="st67" d="M621.8,90c-3.3-0.1-6.5,0.8-9.7,1.6c-1.7,0.4-3.3,0.6-4.6-0.8c0-0.2,0-0.5,0-0.7c3.4-0.4,6.6-1.7,9.9-2.6
			c1.9-0.5,3.8-0.7,4.4,1.9c0.2,0.2,0.3,0.3,0.2,0.5C621.9,89.9,621.9,90,621.8,90z"/>
		<path class="st64" d="M314.4,134.6c0.2,0.8-0.2,1.7,0.8,2.2c3.8-2.3,7.9-3.8,12.4-3.4c1.4,1.8,0.7,3.2-1,4.1
			c-4,2.1-8.3,3.1-12.8,3.6c0-0.5-0.1-1-0.1-1.5C313.8,137.9,313.6,136.2,314.4,134.6z"/>
		<path class="st73" d="M572.2,108.7c0.3-0.9,0.6-1.8,0.9-2.7c1.8,0.9,0.9,2.3,0.7,3.6c-0.1,4.5-2.8,6.3-6.9,6.8
			c-2.1,0.3-4.1,1.1-6.2,1.7c-0.6,0.8-1.6,0.3-2.3,0.6c-0.9,0.1-1.8,0.1-2.7,0.2c0.3-0.5,0.6-1,0.8-1.5c4-1.1,8-2.2,12.1-3.1
			c2.3-0.5,3.5-1.7,3.7-4C571.8,109.7,571.8,109.2,572.2,108.7z"/>
		<path class="st7" d="M364.3,210.8c4.7,3.6,8.6,7.9,11,13.4C370.7,220.6,367.6,215.6,364.3,210.8z"/>
		<path class="st73" d="M130.1,228.9c0.3-0.9,0.6-1.9,0.8-2.8c1.8,0.9,0.9,2.3,0.7,3.6c-0.1,2.5-1.4,3.7-3.8,4.3
			c-3.4,0.7-6.7,1.8-10,2.7c-0.9,0.3-1.9,0.5-2.8,0.8c-1.2,0-1.4-0.5-0.7-1.4c4.2-1.2,8.5-2.4,12.8-3.6
			C128.9,232,130.5,231.3,130.1,228.9z"/>
		<path class="st69" d="M417.5,154.1c4.6-0.2,8.8-2.1,13.2-3.1c1.4-0.3,1.8-1.4,1.7-2.7c0.3-0.9,0.6-1.9,0.8-2.8
			c1.8,0,2.2,1.3,2.4,2.7c-1.3,5.1-6.4,8.3-11.9,7.4c-0.9-0.2-1.8-0.6-2.7,0l0,0c-0.4,0.5-0.6,1.2-1.5,0.9c-1-0.4-2.3,0.4-3.1-0.8
			C416.8,155,417.2,154.6,417.5,154.1z"/>
		<path class="st66" d="M554.7,63.2c0.9,0.7,0.2,1-0.3,1.1c-9.2,2.3-18.1,5.4-27.5,7c-0.2-0.1-0.3-0.3-0.2-0.4
			c0.1-0.2,0.1-0.2,0.2-0.2C536.2,68.2,545.5,65.7,554.7,63.2z"/>
		<path class="st7" d="M264.9,254.4c-3.5-4.2-6.7-8.1-10-11.9c-0.4-0.5-0.8-1-0.4-1.6c0.3-0.5,0.9-0.5,1.2-0.1
			c3.3,3.9,7.4,7.3,9.4,12.2C265.3,253.2,265.1,253.6,264.9,254.4z"/>
		<path class="st69" d="M199.8,212.4c0.3-1.4,0.6-2.8,0.9-4.2c2,0.2,2.6,1.6,2.7,3.4c-0.2,3-1.9,4.5-4.8,5.3
			c-3.9,1.1-7.7,2-11.7,1.3c-0.7,0.2-1.5,0.5-2.2,0.7c-2-0.8,0.1-1.4,0.1-2.1C190,215.5,195.2,214.9,199.8,212.4z"/>
		<path class="st74" d="M451.1,202.4c-1,0-2.6-0.1-4.1-0.2c-0.6,0-1.3-0.3-1.3-1s0.7-0.8,1.2-1c3.6-1.1,7.3,0.1,11-0.3
			c0.6-0.1,1.1,0.5,1.2,1.2c0.2,1.5-0.9,0.5-1.4,0.7C455.7,202.6,453.6,202.2,451.1,202.4z"/>
		<path class="st73" d="M605.3,104.3c4.8-1.5,9.9-2.2,14.5-4.2c0.7-1.5-0.4-3.6,1.7-4.5c1.7,1,0.4,2.6,0.7,3.9
			c0.3,2.1-0.7,3.4-2.7,3.8c-2.4,0.5-4.6,1.8-7.2,1c-1,0.1-2,0.1-2.8,0.8c-1,0.2-2.3-0.1-2.8,1.3c-0.6-0.5-1.8-0.1-2.2-1.2
			C604.8,104.9,605,104.6,605.3,104.3z"/>
		<path class="st75" d="M244.7,152.7c-3.5,2.3-7.7,2.5-11.5,3.8c-1.2,0.4-2.5,0.8-3.8,1.2c-0.7,1.1-2,0.1-2.9,0.7
			c-0.7,0.2-1.5,0.4-2.2,0.7c-2.1-0.2-0.8-1.2-0.4-1.9c5.8-0.8,11.3-2.9,17-4.2C242.2,152.5,243.4,151.7,244.7,152.7z"/>
		<path class="st76" d="M424.4,206.9c1.7,0.4,3.6,0.6,5.5,0.2c0.6-0.2,1.3,0.1,1.3,0.8c0,0.3-0.4,1-0.8,1c-3.5,0.8-7,1.2-10.5,0.7
			c-0.6-0.1-1.2-0.4-1.2-1.1c0-0.7,0.7-0.9,1.3-1C421.5,207.3,422.9,207.1,424.4,206.9z"/>
		<path class="st67" d="M472.1,193.4c4.9-1.5,9.2-0.2,14.4-0.2C482.2,195.7,475,195.8,472.1,193.4z"/>
		<path class="st77" d="M372.1,113.1c-5.3,2.3-11.3,2.6-16.6,5c-2,0.7-4,1.1-6,1.8c-1.2,0.4-2.5,0.8-3.6-0.4
			c8.3-3.2,17-4.8,25.5-7.1C371.7,112.5,372.1,112.6,372.1,113.1z"/>
		<path class="st65" d="M437.7,112.4c0.2-0.1,0.4-0.2,0.6-0.2c0.7-0.8,1.1-2.8,2.5-0.5c0,5.6-1.3,11.1-2.2,16.6
			c-0.1,0.7-0.5,1-1,1.3c-2.4-0.5-0.8-2.5-1.3-3.7c0.3-2.8,0.5-5.7,0.8-8.5C437.7,115.9,437.6,114.1,437.7,112.4z"/>
		<path class="st22" d="M501.7,174.9c0.9-0.1,1.5-0.2,1.8,0.5c0.3,0.6,0,1.2-0.5,1.6c-1.7,1.5-3.8,1.9-5.9,2.1
			c-1,0.1-1.4-0.7-1.6-1.6c-0.2-1.1,0.7-1,1.3-1.2C498.5,175.7,500.3,175.3,501.7,174.9z"/>
		<path class="st77" d="M586.5,54.7c0.3,0.2,1.7,0.5,0.6,0.8c-6.2,1.9-12.4,3.9-18.9,4.7c-0.3,0-0.6-0.3-1-0.4
			C573.7,58.1,580.1,56.4,586.5,54.7z"/>
		<path class="st78" d="M99.2,185.8c0.2-0.8,0.3-1.6,0.5-2.4c0.4-0.5,0.9-1.3,1.6-1.1c0.8,0.2,0.3,1,0.3,1.5
			c-0.1,1.1-0.2,2.3-0.3,3.4c-1.5,3.5-1.2,7.5-2.8,11c-0.3-0.8-0.5-1.5-0.8-2.3c0.5-1.6,1-3.3,0.8-5
			C99.5,189.3,99.1,187.5,99.2,185.8z"/>
		<path class="st79" d="M205.1,175.1c0.2-0.1,0.4-0.2,0.5-0.3c1.4,0.5,2.2,1.5,2.4,3c0.4,4.5-0.6,8.8-1.4,13.1
			c-0.2,1.1-0.7,2-1.9,2.3c-2.3-1.3-0.2-3.5-1-5.2c0.2-2.6,0.5-5.2,0.7-7.9C205.2,178.5,205,176.8,205.1,175.1z"/>
		<path class="st33" d="M337,219c1.3-0.1,2.4,0.1,2,1.4c-0.7,2.8-3.4,1.7-5.2,2.4c-0.8,0.3-2.3,0.5-2-1
			C332.4,218.9,335.5,220.2,337,219z"/>
		<path class="st80" d="M459.5,189.8c1.7,0,3.4,0.2,3.9-2c0.6-2.3,1.7-1,2.3-0.1c0.8,1,0.6,2.3-0.2,3.3c-0.8,1-2,1.4-3.2,0.9
			C461.4,191.5,460.3,191,459.5,189.8z"/>
		<path class="st65" d="M273.5,139.7c-0.5-0.2-1-0.5-1.4-0.7c4.7-1.3,9.4-2.5,14.1-3.8c1.1,1.1-0.2,1.1-0.6,1.2
			C281.5,137.6,277.5,138.6,273.5,139.7z"/>
		<path class="st81" d="M486.2,182.6c2,0.1,3.1-0.2,4.1-0.7c0.7-0.4,0.3-2.4,1.8-1.4c1,0.6,1,1.8,0.5,2.9c-0.5,1-1.5,1.7-2.6,1.3
			C488.9,184.3,487.9,183.6,486.2,182.6z"/>
		<path class="st82" d="M578.7,75.6c-0.7,0.9-0.8,2.3-2,2.9c0-0.5-0.1-0.9-0.1-1.4c0.9-1,0.7-2.3,0.8-3.5c0.9-1.7-0.7-3.5,0.3-5.1
			c0-0.3,0.1-0.7,0.2-1c0.6-0.8,1-1.9,2.3-1.2C580.2,69.4,579.6,72.5,578.7,75.6z"/>
		<path class="st83" d="M432.5,196.6c2.9,1.5,4,0,4.5-2.7c1.8,1.2,2.7,2.9,1,4.4C435.7,200.4,434.1,198.2,432.5,196.6
			C432.6,196.5,432.5,196.6,432.5,196.6z"/>
		<path class="st46" d="M345.9,119.4c3.3,0.4,6.4-1.4,9.6-1.4c-3.7,2.2-7.9,2.7-11.9,3.8c-0.8,0.2-1.4-0.1-1.8-0.8
			C343.2,120.5,344.5,120,345.9,119.4z"/>
		<path class="st65" d="M526.9,70.6c0,0.2,0,0.5,0,0.7c-2.2,1.4-4.7,1.7-7.1,2.3c-2.2,0.6-3.6,1.7-3.7,4.2c-0.3-0.3-0.6-0.6-0.8-0.9
			c-0.3-2.5,0.8-3.7,3.3-4.2C521.3,72.2,524.1,71.3,526.9,70.6z"/>
		<path class="st84" d="M203.7,188c0.9,1.6,0.5,3.3,0.6,5c1.7,4,1.4,7.4-1,9.5c-2.4-1-0.3-3-1.1-4.4c0-0.5-0.1-1-0.1-1.5
			c0.2-1.4,0.4-2.9,0.6-4.3C203.1,190.8,203.4,189.4,203.7,188z"/>
		<path class="st85" d="M624.1,76.3c0.8,1.3,0.6,2.8,0.7,4.3c0.6,3.3,1.1,6.5-1,9.5c-2.4-0.9-0.3-3-1.1-4.4
			c-0.1-0.3-0.1-0.5-0.2-0.8c0.3-1.9,1-3.8,0.8-5.8C623.4,78.2,623.4,77.2,624.1,76.3z"/>
		<path class="st85" d="M436.2,126c0.7,1.1,0.7,2.4,0.7,3.6c1.1,3.3,1.4,6.5-0.9,9.4c-2.4-0.5-0.3-2.6-1.2-3.6
			c-0.1-0.3-0.2-0.5-0.2-0.8c0-0.5,0.1-0.9,0.1-1.4c0.4-1.4,0.8-2.8,0.6-4.3C435.6,127.9,435.9,127,436.2,126z"/>
		<path class="st86" d="M619.7,48.3c-4,0.9-8.1,1.1-12.2,0.7C611.6,47.7,615.6,47,619.7,48.3z"/>
		<path class="st87" d="M189.9,162c-0.5-0.2-0.9-0.5-1.4-0.7c3.7-1.2,7.5-2,11.4-0.7C196.7,162,193.1,160.7,189.9,162z"/>
		<path class="st65" d="M372.1,113.1c-0.2-0.2-0.5-0.5-0.7-0.7c2.8-0.8,5.7-1.5,8.5-2.3c0.8,0.2,1.6,0.5,0.1,0.9
			C377.4,111.8,374.7,112.4,372.1,113.1z"/>
		<path class="st65" d="M447.4,92c0.1,0.3,0.2,0.5,0.4,0.8c-3.1,0.9-6,2.7-9.4,1.6C441.4,93.6,444.4,92.8,447.4,92z"/>
		<path class="st88" d="M131.6,176.5c0.2,1.7-1.6,1.3-2.2,2.1c-1.8,0.3-3.7,0.5-5.3,1.5c-1.1,0.7-1.1-0.3-1.2-0.9
			C125.6,177.7,128.7,177.5,131.6,176.5z"/>
		<path class="st23" d="M504.6,191.6c0.8,1.2,1.3,2.5,1.3,4c0,2-0.6,3.3-3,2.4C504.1,196,504.5,193.8,504.6,191.6z"/>
		<path class="st37" d="M299.4,230.5c0.8,1.6,1.1,3.3,1.4,5c0.8,1.1,0.3,1.4-0.8,1.6c-1.2,0.1-1.4-0.7-1.3-1.6
			C298.9,233.8,299.2,232.1,299.4,230.5z"/>
		<path class="st89" d="M270.5,137.4c-0.6-3.8,1-6.5,5.1-8.6c-1.5,2.3-4.3,3.9-4.3,7.2C271,136.5,270.7,137,270.5,137.4z"/>
		<path class="st37" d="M304.3,228.1c1.4,1.7-0.5,1.7-1.2,2.3c-1.4,1.1-2.3,0.5-3.1-0.8C301.2,228.4,302.7,228.2,304.3,228.1z"/>
		<path class="st5" d="M601.7,56c2.2-1.1,4.3-0.4,6.5,0.1c0,0.3,0,0.5,0,0.8c-0.4,0-0.9,0-1.3,0c-1.5,0.6-3,0.7-4.5,0.6
			C602.1,57.1,601.7,56.7,601.7,56z"/>
		<path class="st7" d="M486.1,188.5c-2.4,0.2-4.9,0.5-7.3,0.7C481.2,187.6,483.8,187.9,486.1,188.5z"/>
		<path class="st20" d="M420.3,216.6c-2.8,0.1-3.9-0.8-4.3-2.8C418.1,213.6,418.5,215.6,420.3,216.6z"/>
		<path class="st90" d="M523.3,64.1c-0.7,0-1.4,0-2.2,0c5.4-2.4,11.2-3.5,16.8-5c12.6-3.5,25.4-6.8,38-10.2c1.4-0.4,2.8-0.4,4.2-0.6
			c-2,1.8-4.6,2-7,2.7C556.6,55.3,539.9,59.7,523.3,64.1z"/>
		<path class="st90" d="M591,46.1c0.8-1.7,2.4-1.8,3.9-2.2c11.3-3.1,22.6-6.2,33.9-9.1c2.7-0.7,5.1-2,7.6-3c-1.2,2-3.1,3-5.2,3.5
			C617.7,38.8,604.3,42.5,591,46.1z"/>
		<path class="st91" d="M274.8,122.3c0.3,0.3,0.5,0.5,0.8,0.8c-1.4,0.8-2.8,1.6-4.2,2.4c-1,2.8-1.7,5.9-5.2,6.8
			c-0.6-0.2-0.9-0.6-0.7-1.2C267,126.5,270.1,123.5,274.8,122.3z"/>
		<path class="st92" d="M265.4,131c0.3,0.3,0.6,0.5,0.9,0.8c2.5,2.5,0.1,4.4-0.8,6.4c-0.3,0.2-0.5,0.5-0.8,0.7c-0.2,0-0.4,0-0.6,0.1
			C264,136.2,264.2,133.5,265.4,131z"/>
		<path class="st89" d="M297.9,121.7c3.2-1.7,7-1.7,10.1-3.6c22.6-6,45.1-12,67.7-18c25.1-6.7,50.2-13.6,75.3-20.3
			c1.3-0.3,2.6-0.4,3.9-0.5c0,0.2,0,0.5,0,0.7c-10.4,2.8-20.8,5.7-31.2,8.5c-34.5,9.3-69,18.6-103.5,27.8
			C312.8,118.1,305.6,120.8,297.9,121.7z"/>
		<path class="st57" d="M265.5,138.2c0.3-2.1,0.6-4.3,0.8-6.4c1.2-2.5,2.5-4.9,5.1-6.4c2,0.7,3.4-1.4,6.1-0.8
			c-1.4,1.2-2.4,2-3.4,2.8c-2.5,1.7-4.3,4.1-5.3,7C268.3,136.2,267.3,137.6,265.5,138.2z"/>
		<path class="st93" d="M255.4,195.1c0.4-1.7,0.9-3.3,0.7-5c0.3-0.9,0.6-1.9,0.9-2.8c2.1,0.4,2.4,1.9,2.3,3.6
			c-1.4,5-1.1,10.2-2.3,15.2c-0.3,1.3-0.1,2.6-1.4,3.5c-2.4,0-0.6-2.1-1.4-2.9c0.2-2.2,0.4-4.4,0.6-6.6
			C254.9,198.5,255.1,196.8,255.4,195.1z"/>
		<path class="st94" d="M236.8,232.6c-0.5-0.2-1-0.4-1.4-0.6c6.4-2.8,11.6-6.8,15-13.1c0.7-0.2,1.1,0.1,1.5,0.6
			c0.4,0.6,0.5,1.3,0.3,2.1c-1.1,4.1-9.3,11.2-13.4,11.7C238,233.3,237.4,233,236.8,232.6z"/>
		<path class="st95" d="M251.3,219.8c-0.3-0.3-0.6-0.6-0.9-0.9c1.8-3.9,2.7-8,3.7-12.2c0.2,1,0.5,1.9,0.7,2.9
			C256.6,213.3,254.8,218.7,251.3,219.8z"/>
		<path class="st89" d="M275.6,128.9c5-4.3,11.3-4.5,17.3-5.7C287.3,125.6,281.1,126.1,275.6,128.9z"/>
		<path class="st96" d="M170.6,171.4c4.2-0.7,8.1-2.4,12.5-2.7c-0.1,1.5-1.4,1.2-2,1.8c-13.6,3.6-27.2,7.2-40.8,10.8
			c-0.6,0.1-1,0.5-1.6,0.8c-0.7,0.6,0.3,2.2-1.3,2.1c-0.6,0-0.5-1-0.5-1.5c-0.1-1.1-0.3-2.4,1-2.7c3.1-0.9,6-2.5,9.4-2.2
			C155.2,175.9,163,173.9,170.6,171.4z"/>
		<path class="st97" d="M131.6,229.7c-0.1-1.2,0-2.5-0.7-3.6c-0.1-0.5-0.1-1-0.2-1.5c0.4-2.1,1.1-4.3,0.7-6.5
			c0.1-0.7,0.1-1.4,0.2-2.1c1.9,0.1,2,0.4,1.4,3.6C131.6,222.9,133.1,226.5,131.6,229.7z"/>
		<path class="st98" d="M137.3,182.8c1,1,0.9-0.6,1.4-0.7c0.1,3-1.8,5.6-1.4,8.6c-0.9,0.4,0,2.1-1.5,2.1c0-1.6,0.1-3.3,0.1-4.9
			c0.9-1.6,0.6-3.3,0.8-5c0.1-0.2,0.1-0.4,0.2-0.6C137,182.5,137.2,182.7,137.3,182.8z"/>
		<path class="st99" d="M133.1,219.7c-0.2-1.3,0.2-2.8-1.4-3.6c0.2-0.7,0.4-1.5,0.6-2.2c0.3-0.9,0.5-1.9,0.8-2.8
			c1,1.6,0.6,3.4,0.7,5.1C133.7,217.3,133.8,218.5,133.1,219.7z"/>
		<path class="st100" d="M531.1,76.3c0.3-1.7,1.8-1.7,3-2.2c5.1-1.2,10.3-2.5,15.2-4.2c4.2-0.5,8.1-2.9,12.5-2.4
			c-1.3,1.4-3.1,1.7-4.8,2.2c-8.3,2.3-16.7,4.5-25,6.8C531.7,76.6,531.4,76.6,531.1,76.3z"/>
		<path class="st100" d="M601.7,56c0.5,0.1,1.4,0.1,1.6,0.4c0.4,0.7-0.6,0.7-0.9,1.1c-6.6,1.7-13.1,3.5-19.7,5.2
			c-2,0.5-2.8,1.6-2.6,3.5c-0.8,0.2,0,1.9-1.4,1.4c-1.2-1.4-0.6-2.9,0-4.3c0.5-0.5,0.9-1,1.4-1.6c6.8-1.9,13.5-3.7,20.3-5.6
			C600.9,56.2,601.3,56.1,601.7,56z"/>
		<path class="st85" d="M531.1,76.3c0.3,0,0.6,0.1,0.9,0.1c-0.4,4.4-2.2,8.5-2.3,12.9c-0.7,0.6-0.4,1.9-1.5,2.1
			c0-1.9,0.1-3.8,0.1-5.6c0.8-1.3-0.8-3.1,0.8-4.3c0.8-1.6,0.6-3.4,0.7-5.1C530.2,76.3,530.6,76.3,531.1,76.3z"/>
		<path class="st101" d="M524.8,123.2c-0.2-1.4,0.1-3-0.7-4.3c0-0.5-0.1-1-0.1-1.5c0.2-1.4,0.5-2.9,0.7-4.3c0-0.2,0-0.5,0-0.7
			c0.3-1.2,0.6-2.3,0.9-3.5c1,1.8,0.5,3.8,0.7,5.7C525.9,117.4,525.7,120.4,524.8,123.2z"/>
		<path class="st102" d="M93.5,238.4c-0.2-1.4,0.2-2.9-0.7-4.3c-0.1-0.3-0.1-0.6-0.2-0.9c0-0.7,0-1.4,0.1-2.1
			c0.2-1.2,0.5-2.4,0.7-3.6c0.2-1.4,0.4-2.9,0.7-4.3c0.3-1.2,0.6-2.4,0.9-3.5c0.8,1.3,0.6,2.9,0.7,4.3c-1.5,3.6-0.3,7.6-1.4,11.3
			C93.9,236.3,93.7,237.3,93.5,238.4z"/>
		<path class="st18" d="M317.4,185c-0.5,0-1,0-1.5,0c-1.1-0.6-2.3-1.1-3.4-1.8c-2-1.3-2.2-2.9-0.3-4.5l0.1-0.2
			c1.4,0,2.2,0.8,2.9,1.9C314.7,182.5,318.1,182.8,317.4,185z"/>
		<path class="st2" d="M202.9,202.4c1.5-3-0.1-6.4,1.4-9.4c1.3-5,2-10,2.1-15.1c-0.9-3.5,0.5-6.8,1.4-10c0-0.5,0-1,0.1-1.5
			c3.3,1.7,3.8,4.6,3.4,7.9c-1.8,12.7-3.7,25.3-5.5,38c-0.5,3.7-2.4,6.1-6.1,7c-0.5,0.1-0.9,0.3-1.4,0.4c-4,1.2-8.1,3-11.3-1.5
			c4-1.1,7.9-2.2,11.9-3.2c1.7-0.4,2.8-1.2,2.6-3.1c0.6-1.5,0.2-3,0-4.5C201.3,205.5,201.4,203.7,202.9,202.4z"/>
		<path class="st103" d="M558.3,118.6c0.8-0.2,1.5-0.4,2.3-0.6c5,4.4,14.7,1.2,15.8-5.4c2-11.6,3.5-23.2,5.2-34.8
			c0.1-0.6,0.2-1.2,0.3-1.8c1.7-9.6,2.6-10.5,12.3-12.7c4.7-1.1,9.1-3,14.1-2.8c-0.5,1.2-1.6,1.2-2.7,1.5c-5.3,1.3-10.7,2.7-16,4.2
			c-3.6,1-5.2,3.6-5.7,7c-1.7,12.1-3.5,24.2-5.2,36.3c-1.2,8.5-6.7,12.8-15.4,12.2c-1.7-0.1-3-0.7-3.9-2.2
			C559.2,118.9,558.7,118.8,558.3,118.6z"/>
		<path class="st104" d="M573.7,109.5c-0.1-1.2,0-2.5-0.7-3.6c-0.1-0.5-0.1-1-0.2-1.5c0.2-1.4,0.5-2.9,0.7-4.3c0-0.2,0-0.5,0-0.7
			c0.3-1.2,0.6-2.3,0.9-3.5c0.8,1.3,0.5,2.9,0.7,4.3C573.8,103.1,575.1,106.5,573.7,109.5z"/>
		<path class="st0" d="M381.4,119c0.5,1.1,1,2.3,1.5,3.4c0.6,0.4,1,1,1.1,1.7c0.6,6,1.3,6.4,7.4,4.3c1.2-0.4,2.3-1.1,3.3-2
			c1.3-1.2,2.3-1.1,2.9,0.7c0,4.1-0.3,8.1-1.6,12.1c-0.5,0.8-1.2,1.1-2.1,0.6c-4.1-2.1-7.6,0.4-11.1,1.7c-1.2,0.5-1.1,1.8-1.3,2.8
			c0.2,1.4-0.1,2.8-0.3,4.2c-0.1,0.7-0.1,1.5-0.3,2.2c-0.2,1.5-0.4,3-0.8,4.5s-0.2,3.2-1.3,4.5c-1.1,1.3-2.2,2.3-4,2.8
			c-13.1,3.6-26.2,7.1-39.4,10.5c-1.9,0.5-4.2,1.6-5.7-1c-1.2-0.7-2.5-1.4-3.7-2.1c0-0.7-1.3-1.5,0-2.2c1,0.4,1.9,1.2,3.1,0.7
			c0.6-0.2,1.2-0.4,1.8-0.7c0.4-0.3,0.8-0.6,1.1-1c2.1-4.8,2.3-10.1,2.9-15.2c0.5-3.8,1.2-7.6,1.7-11.4c0.4-2.9,2.7-4.3,5.5-5.1
			c5.7-1.7,11.5-3.1,17.2-4.9c5.2-1.1,10.3-2.8,15.6-3.6c1.4-0.2,2.4-1,3.3-1.9c0.3-0.4,0.6-0.8,0.9-1.2c0.4-0.6,1-1.1,0.8-2
			c0.3-1.3-1.8-1.8-1.2-3.2C379.6,118.4,380.5,118.7,381.4,119z"/>
		<path class="st76" d="M378.7,118.1c0.7,0.9,1.4,1.9,2,2.8c-0.1,2.1-1.7,2.3-3.2,2.7c-11.5,3.1-22.9,6.3-34.4,9.2
			c-5.4,1.4-8.2,4.4-8.8,9.9c-0.8,7.1-2.1,14.2-3,21.4c-0.3,2-0.5,4.1-1.8,5.8c-1.7,0.1-2.8-0.7-3.5-2.1c2.6-0.5,2.4-2.7,2.7-4.5
			c1.2-7.7,2.3-15.4,3.5-23.1c1.1-6.5,3.1-8.4,9.5-10c11.9-2.9,23.6-6.1,35.5-9.2c0.3-0.1,0.6-0.3,1.1-0.6c-1.1-1.3-2.9-0.6-4-1.5
			C375.8,118.6,377.3,118.4,378.7,118.1z"/>
		<path class="st105" d="M331,129.6c1.9-2.3,4.8-2.1,7.2-3c9.4-2.4,19-4.7,28.2-7.7c3.1-0.2,5.9-1.9,9.1-1.7c0.2,1.2-0.9,1-1.3,1.5
			c-12.9,3.4-25.7,6.8-38.6,10.2C334.1,129.3,332.6,129.9,331,129.6z"/>
		<path class="st106" d="M328.9,142.5c-0.3-1-0.5-2-0.8-2.9c-0.6-1.3-0.9-2.7-0.3-4.1c0.6-1.7-0.5-3.7,1.1-5.1
			c0.7-0.2,1.4-0.5,2.1-0.7C330.8,134,328.9,138.1,328.9,142.5z"/>
		<path class="st93" d="M440.3,100.1c0-0.2,0.1-0.5,0.1-0.7c0.9-0.9,1.9-1.3,3.2-1.4c4.9-0.4,9.6-2,14.3-3.6c4-0.7,7.8-2.5,12-2.5
			c0,1.2-1,1.1-1.4,1.6c-0.2,0-0.4,0.1-0.6,0.1c-0.6,1.5-1.9,2-3.3,2.4c-6.3,1.7-12.7,3-18.8,5.2c-1.6,0.5-3.1,0.4-4.5-0.3
			C440.8,100.8,440.5,100.5,440.3,100.1z"/>
		<path class="st31" d="M137.3,182.8c-0.2,0-0.4,0.1-0.6,0.1c-4,1-8,2.1-12,3.1c-0.9,0.2-1.8,1-2.5-0.3c0.8-1.3,1.6-2.7,3.3-3.1
			c6.5-1.7,13-3.5,19.4-5.2c0.9-0.2,1.7-0.1,2.4,0.4c-2.5,0.7-5,1.5-7.6,2.1C138.3,180.3,137.3,181.1,137.3,182.8z"/>
		<path class="st107" d="M241,239c-11.3,3.1-22.6,6.2-33.9,9.3c-5.9,1.6-11.8,3.1-17.7,4.7c-2.2,0.6-4.3,0.4-6.3-0.7
			c-1.3-0.8-2.5-1.8-0.4-3.2c2.2,1.4,4.6,1.9,7.2,1.2c15.1-3.9,30.2-8,45.3-12.3c6-1.7,11.5-4.6,16.1-9c0.5-0.5,1.1-0.9,1.9-0.8
			c5.4-5.9,6.7-13.4,7.8-20.9c1.8-12.2,3.5-24.4,5.3-36.6c0.2-1.3,0.6-2.6,1.4-3.7c-0.3,7.8-1.9,15.4-3,23.1c-1.1,8-2.2,16.1-3.7,24
			C258.6,226,252,234.2,241,239z"/>
		<path class="st57" d="M285,140.6c-5.8,2.2-11.9,3.6-17.9,5c-0.6-1.5,0.9-1,1.3-1.1c5.5-1.6,11-3.2,16.6-4.7
			C285.5,140,285.5,140.2,285,140.6z"/>
		<path class="st108" d="M262.6,157c-0.7,0.6-0.4,1.8-1.5,2.1c-0.4-1.9-1.5-3.8,0.1-5.7c0.9-1.3,0.7-2.8,0.7-4.3
			c0.2-0.3,0.4-0.6,0.6-0.9c0.5-0.2,0.9-0.4,1.4-0.6c0.1,0.1,0.2,0.2,0.2,0.3C266.1,150.5,265.5,154,262.6,157z"/>
		<path class="st62" d="M285,140.6c0-0.3,0-0.6,0-0.9c2.7,0.1,5.1-2,8-1.4C290.5,139.8,287.8,140.3,285,140.6z"/>
		<path class="st32" d="M556.4,77c-3.9,2.5-8.6,2.7-12.9,4c-4.3,1.4-5.8,2.9-6.5,7.4c-0.6,4.1-0.7,8.3-2.2,12.3
			c-0.1-4.9,1.1-9.7,1.7-14.6c0.3-2.5,1.7-4.7,4.2-5.3C545.9,79.5,551,77.5,556.4,77z"/>
		<path class="st109" d="M419.6,156.4c0.5-0.3,1-0.6,1.5-0.9c0.8,2.9,2.9,3.1,5.4,2.6c2.8-0.6,5.6-1.2,8.3-1.9
			c-3.3,2.4-7.2,2.8-11.1,3.4c-1.9,0.3-3.5-0.7-4.1-2.7C419.6,156.7,419.6,156.6,419.6,156.4z"/>
		<path class="st25" d="M101.4,160.5c1.6-1.3,2.9-0.9,4.2,0.6c3.5,4.1,3.3,11.3-0.6,14.7c-4.5,4-11.6,3.6-15.5-0.9
			c-1.2-1.4-1.3-2.2,0.5-2.9c0.9,0.5,1.8,1,2.7,1.6c3.9,3.8,8.1,2.3,10.6-0.2c3-2.9,2.8-6.4-0.4-10.8
			C102.4,162,101.9,161.2,101.4,160.5z"/>
		<path class="st74" d="M102.8,162.7c3.3,0.1,3.1,2.9,3.5,4.9c0.6,3.5-1.2,6.1-3.9,7.9c-2.4,1.6-5.1,2.1-7.8,0.7
			c-1.1-0.5-2.3-1-1.9-2.6c1.5-0.1,2.9-0.1,4.4-0.2c4.5-0.1,6.4-2.7,4.5-6.3c0.1-0.9,0.5-1.6,1.1-2.2
			C102.8,164.2,102.8,163.4,102.8,162.7z"/>
		<path class="st81" d="M102.2,167c0.8,0.3,1.9-0.1,2.1,1.4c0.4,3.3-3.9,7.3-7,6.4c-0.9-0.3-0.4-0.9-0.2-1.4c0-0.2,0-0.4,0-0.6
			C98.8,170.9,100.5,169,102.2,167z"/>
		<path class="st110" d="M102.2,167c-0.6,2.9-2.6,4.6-5.2,5.8c-0.8-0.1-1.6,0.3-2.5-0.6c3.4-1.2,5.8-3.2,6.8-6.6
			c0.2-0.7,0.7-0.9,1.4-0.7C102.6,165.6,102.4,166.3,102.2,167z"/>
		<path class="st111" d="M317.4,185c-0.7-1.6-4.8-1-2.9-4.3c1.1-0.9,2.2-0.8,3.3,0c0.7,1.6,1.8,2.4,3.7,2.6c2.8,0.3,5.6,0.2,8.2-0.6
			c12-3.3,24.1-6.3,36-9.6c7.8-2.2,15.6-4.4,23.5-6.3c4.8-1.2,6.8-3,7.5-7.9c1.7-11.5,3.3-23,5-34.5c0.4-2.8,0.1-5.5-1.5-8
			c0-0.2-0.1-0.4-0.1-0.6c0-0.3,0.1-0.6,0.1-0.8c1.7-1.4,2.3,0.1,2.9,1.2c1.2,2.4,1.5,5,1.1,7.7c-1.7,11.4-3.3,22.8-4.9,34.1
			c-1,7.1-2.8,9.3-9.7,11.1c-20.1,5.5-40.2,10.9-60.3,16.4C325.2,186.8,321.3,186.6,317.4,185z"/>
		<path class="st109" d="M434.7,156.2c3.6-3.6,3.5-8.5,4.2-13c1.6-10.6,3.1-21.3,4.6-31.9c0.7-4.9,3-7.9,8.2-9.1
			c7.6-1.6,14.8-4.9,22.7-5c-7.7,2.1-15.4,4.3-23.2,6.3c-3.9,1-5.8,3.3-6.3,7.2c-1.9,13-3.8,26-5.8,39.1
			C438.6,152.6,437.9,155.2,434.7,156.2z"/>
		<path class="st4" d="M262.6,157c-0.3-3.2,1.6-6,1.6-9.1c9.4-2.5,18.9-4.9,28.3-7.3c1.3-0.3,2-1.2,2.4-2.4c0.1,0.4,0.1,0.9,0.2,1.3
			c1.6,2.3,1.3,3.5-1.7,4.5c-4.3,1.5-8.7,2.6-13.1,3.6c-2.8,0.7-5.5,1.5-8.3,2.3c-5.1,1.4-5.9,5.9-6.5,10.1c-1.2,10-2.9,20-4.3,29.9
			c-1,6.8-2,13.6-2.9,20.4c-2.1,14.6-9.7,24.4-24.2,28.1c-14,3.6-28,7.5-42,11.1c-0.9,0.2-1.8,0.5-2.8,0.5c-2.3,0-3.5-0.8-2.5-3.3
			c14-3.8,27.9-7.6,41.9-11.4c2.8-0.8,5.6-1.3,8.1-2.8c6.3-2.6,11.5-6.4,14.5-12.8c2.4-3,2.5-6.7,3.5-10.2c1.3-4.6,1.8-9.2,2.1-13.9
			c0.1-1.7,0.3-3.3,0.7-4.9c0.7-1.5,0.2-3,0-4.5c-0.2-1.8,0-3.5,1.4-4.9C260.8,173.4,261.9,165.2,262.6,157z"/>
		<path class="st112" d="M186.9,246.9c0.9,1,1.2,2.6,3.4,2c15-4.1,30.2-7.9,45.2-12.1c15.2-4.2,21.1-15.5,22.9-30.2
			c1.9-15.8,4.5-31.6,6.6-47.4c0.8-6.1,3.8-9.7,10-11c5.9-1.2,11.6-3,17.4-4.7c2-0.6,3.6-1.5,2.8-4.1c0.7-0.5,0.7-2.2,1.9-1.7
			c1.2,0.5,1,1.9,0.7,2.9c-0.8,2.7-3,3.9-5.5,4.6c-6,1.6-12,3.3-18,4.8c-4.3,1.1-6.8,3.5-7.4,8c-2.5,17.4-5.1,34.8-7.6,52.2
			c-0.8,5.9-2.8,11.4-5.9,16.5c-3.9,6-9.7,9.5-16.4,11.5c-15.5,4.5-31.1,8.5-46.6,12.8c-1.3,0.4-2.6,0.3-3.9,0.2
			c-2.7-0.2-3-1-1.7-3.7C185.4,247.3,186.1,247.1,186.9,246.9z"/>
		<path class="st113" d="M184.7,247.5c0.3,3,1.6,3.7,5.6,2.7c5.2-1.3,10.4-2.6,15.6-4c7.5-2,14.9-4.4,22.5-6.1
			c9.6-2.2,18.2-5.9,24.9-13.3c0,0.5,0,1,0,1.4c-5.4,7.3-13.5,10.1-21.7,12.4c-13.4,3.7-26.8,7.2-40.2,10.8
			c-4.9,1.3-6.9,0.8-8.6-2.3c-0.3-0.8-1-0.6-1.6-0.8C182.2,247.7,183.5,247.5,184.7,247.5z"/>
		<path class="st2" d="M623.4,90.1c1.5-3-0.1-6.4,1.4-9.4c0.9-5.7,1.9-11.4,2.8-17.1c0.2-1,0.5-2.1,0.7-3.1c1.1,3.3,0.6,6.6,0.1,9.9
			c-1.3,8.7-2.5,17.4-3.8,26.1c-0.1,1-0.5,2-0.9,3.4c-0.5-1.2-0.8-1.9-1.2-2.6C621.5,94.7,621.5,92.3,623.4,90.1z"/>
		<path class="st2" d="M612.4,104.2c2.3-0.7,4.6-1.4,6.9-2c1.4-0.4,2.8-0.8,2.7-2.7c0.1-0.4,0.2-0.5,0.6-0.3
			c0.8,2.9-0.5,4.7-3.2,5.1C617.1,104.6,614.6,108,612.4,104.2z"/>
		<path class="st97" d="M622.6,99.2c-0.2,0.1-0.4,0.2-0.6,0.3c-0.1-1.3,0-2.6-0.7-3.7c-0.4-0.5-0.5-1-0.1-1.5
			c0.2-1.4,0.5-2.8,0.7-4.3c0-0.2,0-0.5,0-0.7c0.3-1.2,0.6-2.3,0.9-3.5c0.8,1.3,0.5,2.9,0.7,4.3c-0.9,2.3-0.7,4.7-0.7,7.1
			C622.6,97.9,622.6,98.5,622.6,99.2z"/>
		<path class="st114" d="M479.3,105c0.7-0.2,1.5-0.4,2.2-0.6c3.1,1,6.1,0.4,9.1-0.6c4.4-1.5,5.7-4.2,3.8-8.7c0-1.2,0-2.4,0-3.6
			c0-0.5,0.1-1.1,0.1-1.6c1-1.8,2-1.2,2.9,0.1c2.9,4.1,2.5,15.6-4.9,17.2c-3.2,0.7-6.2,2.4-9.7,2.3
			C479.9,109.3,478.4,108.2,479.3,105z"/>
		<path class="st4" d="M441.4,100.3c7.7-1.4,15-4,22.6-5.8c1.3-0.3,2.6-0.6,3.9-0.9c1.3,1.1,3.3,0.2,5.2,1.8
			c-5.3,1.4-10.1,2.6-15,3.9c-2.1,0.5-4.2,1.1-6.3,1.6c-5.5,1.3-8.6,4.4-9.4,10.3c-1.6,12.2-3.5,24.4-5.4,36.6
			c-1.1,7.3-7.7,10.9-14.7,8.1c-0.4-0.2-0.9-0.3-1.4-0.4c2.8-0.8,5.5-1.7,8.3-2.3c2.8-0.5,4.5-1.9,4.8-4.8c0.9-1.9-0.4-3.7,0-5.6
			c0.3-1.3,0.1-2.9,1.4-3.8c1.4-3-0.1-6.4,1.4-9.4c1.4-6.2,2.4-12.4,2.8-18.7C438.8,107.1,439.5,103.6,441.4,100.3z"/>
		<path class="st115" d="M207.9,167.8c0.5,3.5-1.7,6.6-1.4,10c-0.3-1-0.5-2-0.8-3c0.1-1.4,0.1-2.7,0.2-4.1c0.7-1.4,0.6-2.9,0.7-4.4
			C207,166.8,207.4,167.3,207.9,167.8z"/>
		<path class="st28" d="M317.3,181.5c-0.9-0.3-1.9-0.5-2.8-0.8c-0.7-0.8-1.4-1.5-2.1-2.3c4.7-1.3,9.5-2.7,14.2-3.8
			c1.6-0.4,1.9-2,3.1-2.7c5.1-0.1,9.8-2,14.7-3.3c9.7-2.5,19.5-5.2,29.2-7.8c1.5-0.4,3-0.7,4.3-1.8c3.5-1.5,7.3-2,11-3.1
			c2.6-0.7,3.7,0.8,4.4,3c0.1,0.4,0.1,0.8,0.1,1.1c-0.2,2.3-2,2.7-3.7,3.2c-12,3.4-24,6.5-36,9.7c-9.6,2.5-19.1,5.4-28.8,7.4
			c-1.5,0.3-2.9,1-4.3,1.8c-0.6,0.1-1.2,0.2-1.7,0.2C318.1,182.4,317.6,182,317.3,181.5z"/>
		<path class="st53" d="M382.9,124.6c0-0.7,0-1.5,0.1-2.2c1.8-2,4.3-2.4,6.7-3.1c2.5-0.7,5.2-1,7.4-2.6c0.9-0.6,0.9,0.3,1,0.8
			c1.6,1.9,1.2,3.8,0.2,5.8c-0.5,0.4-1,0.5-1.6,0.5c-3.4-0.8-6.4,1-9.6,1.5c-1.3,0.2-2.7,1.1-4-0.1
			C383,124.9,382.9,124.7,382.9,124.6z"/>
		<path class="st115" d="M397.4,123.2c0.8-1.9,0.6-3.8,0.7-5.8c0.5-0.7,0.6-2,2-1.5l0,0c1.1,1.1,1.1,2.4,1,3.8
			c-1.1,7.3-2.1,14.7-3.2,22c-0.2,1.2-0.2,2.5-1.5,3.2c-2.4-0.6-1.4-2.7-1.9-4.1c0-0.4,0.2-0.8,0.5-1.1c0.8-4.3,1.5-8.5,1.6-12.9
			C396.9,125.6,395.6,124.1,397.4,123.2z"/>
		<path class="st116" d="M435.5,139c-1.4,3-0.1,6.4-1.4,9.4c-0.3-1-0.5-2-0.8-3c0-0.5-0.1-1-0.1-1.5c0.2-1.7,0.5-3.3,0.7-5
			c0.3-1.2,0.6-2.3,0.9-3.5C435.5,136.6,435.4,137.8,435.5,139z"/>
		<path class="st53" d="M261.2,153.4c0,1.9-0.1,3.8-0.1,5.7c-0.2,0.1-0.4,0.1-0.6,0.2c-0.1-0.3-0.1-0.5-0.2-0.8
			c-0.6-1.4-1.6-0.6-2.4-0.3c-3,0.8-6,1.6-9,2.3c-1.2,0.3-2.8,0.7-2.9-1.4c2.6-2.7,6.3-2.6,9.4-3.8
			C257.4,154.5,259.3,154,261.2,153.4z"/>
		<path class="st117" d="M202.9,202.4c-1.4,3-0.1,6.4-1.4,9.4c-0.1-1.2,0-2.5-0.7-3.6c-0.1-0.5-0.1-1-0.2-1.5c0.2-1.7,0.5-3.3,0.7-5
			c0.3-1.2,0.6-2.3,0.9-3.5C203,199.4,202.8,200.9,202.9,202.4z"/>
		<path class="st74" d="M226.5,158.3c1-0.2,1.9-0.5,2.9-0.7c0.4,2.5,2.2,2.4,4,2.1c3.3-0.4,6.3-2.2,9.8-2c-4.1,3-9,3.8-13.9,4.1
			C226.9,162,227.6,159.3,226.5,158.3z"/>
		<path class="st10" d="M578.7,63.4c0,1.4,0,2.9,0,4.3c-0.2,0-0.4,0.1-0.6,0.1c-0.5,0-0.6-0.5-0.8-0.8c-4.3,1-8.6,1.9-13,2.9
			c0.2-2.2,2-2.4,3.6-2.9C571.6,65.9,575.4,65.5,578.7,63.4z"/>
		<path class="st118" d="M572.2,108.7c0,0.5,0,1,0,1.5c-3.5-0.3-6.8,1-10.1,1.8c-2.2,0.5-3.5-0.1-3.5-2.5c3.1-0.8,6.3-1.5,9.4-2.4
			C569.9,106.5,571.2,106.9,572.2,108.7z"/>
		<path class="st53" d="M529.1,81.4c-0.1,1.5,0.1,3-0.8,4.3c-3.9,1-7.9,2-11.8,3.1c-1.8,0.5-2.8,0.3-2.6-1.8c2-1.8,4.6-2.3,7.2-2.9
			C523.8,83.4,526.5,82.3,529.1,81.4z"/>
		<path class="st49" d="M621.1,94.3c0,0.5,0.1,1,0.1,1.5c-0.5,1.4-1,2.9-1.5,4.3c0.1-3-1.3-3.7-3.9-2.7c-1.4,0.5-3,0.7-4.5,1.3
			c-2.9,1-4.1,0-3.9-2.9c3.3-1,6.7-1.9,10-2.9C619.1,92.4,620.3,92.7,621.1,94.3z"/>
		<path class="st109" d="M423.9,111.6c2.4-2.9,6-2.4,9.1-3.5c1.4-0.5,3-0.6,4.6-0.8c-0.1,1.3-0.5,2.5-1.7,2.9
			c-3.4,1.1-6.9,2-10.4,2.9C424.4,113.3,424,112.5,423.9,111.6z"/>
		<path class="st106" d="M441.4,100.3c-0.1,3.6-2,6.9-1.7,10.6c-0.8,0.1,0.1,2.1-1.5,1.3c0-1.6,0.1-3.3,0.1-4.9
			c1.1-2.1,0.6-4.3,0.8-6.5c0.4-0.2,0.7-0.5,1.1-0.7C440.7,100.1,441.1,100.2,441.4,100.3z"/>
		<path class="st53" d="M577.3,67c0.3,0.3,0.6,0.5,0.8,0.8c-0.2,1.9,0.1,3.9-0.8,5.8c-0.1-1.1-0.5-1.5-1.6-0.9
			c-3.3,1.7-7.1,1.9-10.6,3.3c-1.9,0.8-2.3-0.2-2.2-1.9c3.3-2.5,7.4-2.6,11.1-3.9C575.7,69.6,577.2,69.1,577.3,67z"/>
		<path class="st119" d="M259.1,181.5c-1.4,3-0.1,6.4-1.4,9.4c-0.1-1.2,0-2.5-0.7-3.6c-0.1-0.5-0.1-1-0.2-1.5c0-0.5,0.1-0.9,0.1-1.4
			c0.5-1.2,0.8-2.4,0.6-3.6c0.3-1.2,0.6-2.3,0.9-3.5C259.2,178.5,258.9,180,259.1,181.5z"/>
		<path class="st53" d="M328.2,135.4c0,1.4-0.1,2.8-0.1,4.2c-0.2,0.1-0.4,0.2-0.5,0.2c-3.5,0.3-6.8,1.6-10.2,2.3
			c-1.3,0.3-3.1,1.6-3.6-1.1c2.9-2.9,7-2.6,10.5-4c1.6-0.6,3.2-1.1,3.2-3.2C328.8,133.9,328.6,134.6,328.2,135.4z"/>
		<path class="st60" d="M328.2,135.4c-0.3-0.5-0.5-1-0.8-1.5c-4.2,0.5-8,2.6-12.3,2.9c0.1-1.9,1.2-2.5,2.9-3c3.7-1,7.4-1.6,10.8-3.4
			C328.8,132.1,329,133.8,328.2,135.4z"/>
		<path class="st62" d="M97.8,191.5c-0.1,1-0.2,2.1-1,2.6c-4.2,2-8.6,3.5-13.3,3.1c0.9-2.2,2.9-2.9,5.1-3.4
			C91.6,193.1,94.7,192.3,97.8,191.5z"/>
		<path class="st43" d="M489,100.1c-3.2,1.7-6.7,2.2-10.2,3C481.8,100.7,485.3,100.3,489,100.1z"/>
		<path class="st10" d="M438.3,102.2c-0.3,1.3-1.2,2-2.4,2.4c-3.5,1-6.9,2.2-10.6,2.7c0.1-1.3,0.8-2.3,2.1-2.6
			C431.1,103.9,434.5,102.2,438.3,102.2z"/>
		<path class="st10" d="M494.5,95.1c0.4-0.6,0.7-1.2,1.1-1.8c2.7,4.6,1,10.2-3.7,11.9c-1.9,0.7-3.9,1.1-5.8,1.7
			c-2.5,0.8-4,0.1-4.6-2.5c1.8-0.5,3.7-1.3,5.5-1.5C492,102.5,494.1,99.7,494.5,95.1z"/>
		<path class="st12" d="M359.8,131c-5.6,1.6-11.2,3.4-16.9,4.9c-3.3,0.9-5.1,2.7-5.5,6.1c-1.1,8.4-2.9,16.7-3.2,25.2
			c-0.1,1.2-0.7,1.7-1.8,1.9c-3.1-2-1.1-4.9-0.9-7.2c0.8-7.3,2-14.5,3.1-21.8c0.4-3,2.1-4.9,4.7-6.3c6.1-1.5,12.1-3.3,18.2-4.7
			c1.5-0.3,3-1.1,4.4,0.1C362.7,131.5,360.3,130.2,359.8,131z"/>
		<path class="st120" d="M329.6,169.9c0.8-10.6,2.7-21.1,4.3-31.7c0.5-3.1,2.6-4.8,5.4-5.6c12.7-3.4,25.5-6.8,38.2-10.1
			c1.2-0.3,2.3-0.7,3.2-1.5c0.7,0.9,0.9,2,0.7,3c-0.6,2.1-0.8-0.9-1.4-0.1c-4.9,2.3-10.1,3.7-15.4,4.5c-6.9,1-13.4,3.2-20.1,4.8
			c-1.6,0.4-3.2,0.8-4.9,1.2c-2.6,0.8-3.9,2.6-4.3,5.2c-1.4,9.4-3.2,18.8-3.8,28.3c0,0.5-0.2,0.9-0.5,1.3
			C330.5,169.4,330.1,169.6,329.6,169.9z"/>
		<path class="st38" d="M392.1,159.1c-0.8-1.6-2.1-1.7-3.6-1.2c-2.3,0.7-4.6,1.3-6.8,2c-1.5,0.5-2.8,0.5-3.9-0.8
			c0.3-1.4,0.5-2.9,0.8-4.3c3.6-2.1,7.7-2.5,11.6-3.4c2.1-0.4,3,1,3.7,2.7C394.1,156.1,394.1,157.9,392.1,159.1z"/>
		<path class="st43" d="M397.4,123.2c-0.1,1.2,0.1,2.5-0.8,3.5c-2.9,4.8-8.3,3.9-12.6,5.3c-1.1,0.3-1.7-0.8-1.7-1.8
			c-0.1-1.9-0.4-3.8,0.6-5.6l0.1-0.1c1,1.5,2.4,1.1,3.8,0.8c3.6-0.8,7.1-1.9,10.5-3.5C397.3,122.3,397.3,122.7,397.4,123.2z"/>
		<path class="st43" d="M395,139.6c0.1,0.3,0.1,0.5,0.2,0.8c0.5,1.3-0.1,2.4-0.4,3.5c-3.8-1.3-7.3,0.1-10.8,1
			c-1.5,0.4-2.8,0.1-3.9-1c0.1-3.2,1.5-5.1,4.9-5.5c1.9-0.2,3.7-0.9,5.5-1.5C393.1,136.1,394.5,136.9,395,139.6z"/>
		<path class="st23" d="M392.9,154.1c-1.4-1.6-3-0.7-4.6-0.4c-3.2,0.5-6.2,2.6-9.7,1.2c0.2-1.4,0.5-2.9,0.7-4.3
			c3.5-2,7.4-2.5,11.2-3.4c2-0.5,3.3,0.8,4,2.6C394.8,151.5,394.5,153,392.9,154.1z"/>
		<path class="st50" d="M380,144c3.2-0.8,6.5-1.5,9.7-2.5c2.5-0.8,4.1-0.4,4.6,2.4c1,0.7,0.8,1.6,0.5,2.5c-0.1,0.5-0.4,1-0.8,1.3
			c-3.4-1.5-6.6,0.1-9.9,0.9c-1.6,0.4-3.2,0.8-4.7-0.4C379.6,146.9,379.8,145.5,380,144z"/>
		<path class="st70" d="M339.7,133.9c11.9-3.3,23.8-6.5,35.7-9.7c1.5-0.4,3.1-0.2,4.6-0.3c0,0.5,0,1,0,1.4c-6,1.4-11.9,3.5-18,4.3
			c-5.6,0.6-10.9,2.6-16.4,3.9c-2,0.5-4,0.8-6,1.2c-0.2-0.2-0.2-0.3-0.2-0.5C339.6,134,339.6,133.9,339.7,133.9z"/>
		<path class="st52" d="M379.4,148.3c3.9-1.1,7.8-2.2,11.7-3.2c1.9-0.5,1.9,1.4,2.6,2.4c0.7,0.7,0.7,1.4,0,2.2
			c-1.3-1.7-3-0.9-4.6-0.6c-3.2,0.4-6.2,2.8-9.7,1.4C379.3,149.8,379.3,149,379.4,148.3z"/>
		<path class="st25" d="M339.7,133.9c0,0.2,0,0.5,0,0.7c-2.3,1.6-3.7,3.6-4.1,6.4c-1.1,8.2-2.2,16.4-3.3,24.5
			c-0.1,1.2,0.1,2.4,0.1,3.6c-0.5,0-0.9,0-1.4,0c0.1-10.2,2.4-20.2,3.9-30.2C335.3,136.3,336.6,134.2,339.7,133.9z"/>
		<path class="st12" d="M362,129.6c5.9-2,11.6-4.5,18-4.3c-0.4,0.8-0.8,1.4-1.7,1.6c-6.1,1.4-12.3,2.8-18.4,4.1
			C360.6,130.6,361.3,130.1,362,129.6z"/>
		<path class="st76" d="M400.1,119.5c0-1.2,0-2.4,0-3.6c2.8,0.7,2.9,2.8,2.9,5.1c-0.2,8.5-2.2,16.9-3.1,25.3
			c-0.5,4.5-1.3,9-1.9,13.5s-2.7,6.9-7,8.1c-19.9,5.3-39.8,10.7-59.7,16c-4.1,1.1-8.2,1.6-12.4,0.2c-1.1-0.4-3-0.5-1.6-2.5
			c0.5,0,1,0,1.6,0c11.2,2.2,21-3.2,31.4-5.7c12.7-3,25.3-6.6,37.9-10.1c6-1.7,6.7-2.5,7.5-8.8c1.3-9.8,2.9-19.4,4.3-29.2
			C400.3,125,400.6,122.3,400.1,119.5z"/>
		<path class="st2" d="M400.1,119.5c1.9-0.7,1.4,0.8,1.5,1.7c0.4,4.7-0.8,9.3-1.5,13.9c-1.1,7.7-2.4,15.4-3.2,23.1
			c-0.6,5.4-3.5,8-8.4,9.3c-13.7,3.6-27.3,7.3-40.9,10.9c-6.1,1.6-12.3,3-18.4,4.6c-3.7,1-7.1,0.6-10.3-1.4c0.5-0.1,1-0.1,1.5-0.2
			c18-4.5,35.9-9.5,53.9-14.3c5.1-1.4,10.1-2.7,15.2-4c2.5-0.6,3.4-1.8,3.6-4.1c1-3,0.3-6.3,1.4-9.2c0.7-1.6-0.3-3.6,1.5-4.9
			c1.2-7.4,2.3-14.8,3.5-22.2C399.5,121.6,399.9,120.5,400.1,119.5z"/>
		<path class="st121" d="M393.7,159.2c-0.3,2.7-1.7,4-4.4,4.7c-21.3,5.6-42.7,11.4-64,17.1c-1.7,0.5-3.3,0.1-5,0.3
			c-0.8-0.9-0.4-1.1,0.6-1.3c23-5,45.5-11.9,68.2-17.8c1.4-0.4,2.9-0.6,3.2-2.4c0.6-0.6-0.3-2.2,1.2-2.1
			C394.1,157.8,394.1,158.6,393.7,159.2z"/>
		<path class="st116" d="M393.7,159.2c-1.1-1-0.9,0.5-1.4,0.7c-0.1-0.2-0.1-0.5-0.2-0.7c0.3-1.7,0.5-3.4,0.8-5
			c0.2-1.4,0.5-2.9,0.7-4.3c0-0.7,0-1.4,0-2.2c0.1-0.5,0.1-0.9,0.2-1.4c3.2,0.1,1.3,2.2,1.4,3.6
			C393.8,152.8,395.1,156.2,393.7,159.2z"/>
		<path class="st51" d="M397.2,121.8c-0.7,2.4-2.3,3.6-4.8,3.9c-2.1,0.3-4.1,1.1-6.2,1.6c-2.4,0.6-3.7-0.1-3.3-2.8
			c4-1.1,8-2.1,11.9-3.2C395.7,121.1,396.7,120.4,397.2,121.8z"/>
		<path class="st122" d="M395.2,149.8c-0.2-1.3,0.2-2.8-1.4-3.6c0.2-0.7,0.3-1.5,0.5-2.2c0.3-1.2,0.6-2.4,0.9-3.5
			c0.8,1.4,0.6,2.9,0.7,4.4C395.8,146.5,396,148.2,395.2,149.8z"/>
	</g>
</g>
</svg>
